<svg width="1020" height="550" viewBox="0 0 1020 550" fill="none" xmlns="http://www.w3.org/2000/svg">
<path d="M510 180L510 328" stroke="#DBDBDB" stroke-linecap="square" stroke-linejoin="round"/>
<path d="M433 254L510 254" stroke="#DBDBDB" stroke-linecap="square" stroke-linejoin="round"/>
<path d="M37 368V338C37 332.477 41.4772 328 47 328H973C978.523 328 983 332.477 983 338V368" stroke="#DBDBDB"/>
<path d="M123 328L123 368" stroke="#DBDBDB" stroke-linecap="square" stroke-linejoin="round"/>
<path d="M209 328L209 368" stroke="#DBDBDB" stroke-linecap="square" stroke-linejoin="round"/>
<path d="M295 328L295 368" stroke="#DBDBDB" stroke-linecap="square" stroke-linejoin="round"/>
<path d="M381 328L381 368" stroke="#DBDBDB" stroke-linecap="square" stroke-linejoin="round"/>
<path d="M467 328L467 368" stroke="#DBDBDB" stroke-linecap="square" stroke-linejoin="round"/>
<path d="M553 328L553 368" stroke="#DBDBDB" stroke-linecap="square" stroke-linejoin="round"/>
<path d="M639 328L639 368" stroke="#DBDBDB" stroke-linecap="square" stroke-linejoin="round"/>
<path d="M725 328L725 368" stroke="#DBDBDB" stroke-linecap="square" stroke-linejoin="round"/>
<path d="M811 328L811 368" stroke="#DBDBDB" stroke-linecap="square" stroke-linejoin="round"/>
<path d="M897 328L897 368" stroke="#DBDBDB" stroke-linecap="square" stroke-linejoin="round"/>
<circle cx="510" cy="90" r="90" fill="#000081"/>
<path d="M462.232 98.4082V99.7441H447.854V98.4082H454.234V96.7383H449.646V91.4648H460.457V92.7832H451.299V95.4023H460.562V96.7383H455.852V98.4082H462.232ZM455.025 100.764C458.418 100.764 460.457 101.801 460.457 103.629C460.457 105.457 458.418 106.477 455.025 106.494C451.615 106.477 449.559 105.457 449.559 103.629C449.559 101.801 451.615 100.764 455.025 100.764ZM455.025 102.064C452.617 102.064 451.246 102.627 451.246 103.629C451.246 104.631 452.617 105.193 455.025 105.176C457.398 105.193 458.787 104.631 458.787 103.629C458.787 102.627 457.398 102.064 455.025 102.064ZM467.629 91.9219C469.984 91.9219 471.654 94.0664 471.672 97.4414C471.654 100.834 469.984 102.979 467.629 102.979C465.273 102.979 463.586 100.834 463.604 97.4414C463.586 94.0664 465.273 91.9219 467.629 91.9219ZM467.629 93.416C466.188 93.416 465.203 94.9629 465.203 97.4414C465.203 99.9375 466.188 101.484 467.629 101.484C469.088 101.484 470.072 99.9375 470.072 97.4414C470.072 94.9629 469.088 93.416 467.629 93.416ZM475.68 90.7441V96.9141H478.211V98.3203H475.68V106.494H474.01V90.7441H475.68ZM483.836 93.7148C483.818 95.0332 484.557 96.7031 486.139 97.7051C487.712 96.7207 488.441 95.0859 488.441 93.7148V91.9043H490.129V93.7148C490.111 95.543 491.201 97.3711 493.275 98.1445L492.414 99.4102C490.858 98.7773 489.804 97.6084 489.25 96.1758C488.723 97.5469 487.721 98.7773 486.139 99.3926C484.548 98.7598 483.528 97.5117 482.992 96.1406C482.447 97.5557 481.419 98.7773 479.898 99.4102L479.002 98.1445C481.059 97.3359 482.166 95.4199 482.184 93.7148V91.9043H483.836V93.7148ZM493.363 103.137V104.525H478.967V103.137H485.312V99.9727H486.965V103.137H493.363ZM500.307 94.752C500.289 97.6348 502.029 100.518 504.473 101.607L503.471 102.926C501.66 102.064 500.228 100.298 499.498 98.1445C498.76 100.447 497.31 102.354 495.42 103.277L494.4 101.871C496.879 100.764 498.619 97.7578 498.619 94.752V92.0625H500.307V94.752ZM507.566 90.7441V106.529H505.896V90.7441H507.566ZM517.252 91.6934C520.627 91.7109 523.07 93.3633 523.07 95.877C523.07 98.2412 521.022 99.7969 518.078 100.043V103.137H524.494V104.525H510.08V103.137H516.426V100.043C513.499 99.7969 511.451 98.2412 511.451 95.877C511.451 93.3633 513.895 91.7109 517.252 91.6934ZM517.252 93.0645C514.826 93.0469 513.068 94.1719 513.068 95.877C513.068 97.6523 514.826 98.7422 517.252 98.7598C519.695 98.7422 521.453 97.6523 521.453 95.877C521.453 94.1719 519.695 93.0469 517.252 93.0645ZM539.189 91.7812V92.9941H526.375V91.7812H531.982V90.5156H533.652V91.7812H539.189ZM532.809 93.5566C536.184 93.5566 537.977 94.207 537.977 95.5781C537.977 96.8262 536.482 97.4854 533.652 97.582V98.5664H539.998V99.7793H525.637V98.5664H531.982V97.582C529.126 97.4854 527.623 96.835 527.641 95.5781C527.623 94.207 529.416 93.5566 532.809 93.5566ZM532.809 94.6641C530.506 94.6641 529.416 94.9629 529.416 95.5781C529.416 96.1934 530.506 96.5098 532.809 96.5098C535.094 96.5098 536.219 96.1934 536.236 95.5781C536.219 94.9629 535.094 94.6641 532.809 94.6641ZM538.188 100.693V104.016H529.064V105.123H538.627V106.336H527.377V102.873H536.482V101.871H527.359V100.693H538.188ZM554.254 90.7441V100.342H552.584V90.7441H554.254ZM549.631 91.957V93.3105H543.795V97.6348C547.056 97.626 548.945 97.5117 551.107 97.0898L551.266 98.4609C548.98 98.9004 546.994 98.9883 543.461 98.9883H542.143V91.957H549.631ZM548.963 100.412C552.25 100.395 554.307 101.537 554.307 103.453C554.307 105.369 552.25 106.477 548.963 106.494C545.641 106.477 543.602 105.369 543.602 103.453C543.602 101.537 545.641 100.395 548.963 100.412ZM548.963 101.73C546.643 101.73 545.289 102.346 545.289 103.453C545.289 104.525 546.643 105.158 548.963 105.158C551.283 105.158 552.654 104.525 552.654 103.453C552.654 102.346 551.283 101.73 548.963 101.73ZM564.748 92.9766C564.748 95.543 567.49 97.9688 570.514 98.5137L569.74 99.9023C567.227 99.3574 564.906 97.7051 563.887 95.4902C562.85 97.6875 560.538 99.3398 558.016 99.9023L557.277 98.5137C560.266 97.9512 562.99 95.543 562.99 92.9766V91.7812H564.748V92.9766ZM571.164 103.031V104.42H556.75V103.031H571.164ZM492.484 116.744V132.494H490.885V124.355H488.846V131.686H487.316V117.061H488.846V122.984H490.885V116.744H492.484ZM485.4 118.643V119.996H481.164V127.291C483.098 127.273 484.557 127.186 486.244 126.869L486.367 128.24C484.469 128.627 482.852 128.697 480.549 128.715H479.494V118.643H485.4ZM508.938 129.26V130.631H494.523V129.26H498.391V125.762H495.789V124.408H498.145V119.504H495.754V118.133H507.619V119.504H505.211V124.408H507.566V125.762H504.982V129.26H508.938ZM499.797 124.408H503.576V119.504H499.797V124.408ZM500.061 129.26H503.312V125.762H500.061V129.26ZM523.123 116.744V132.529H521.453V116.744H523.123ZM514.703 117.922C517.041 117.922 518.764 120.066 518.764 123.441C518.764 126.834 517.041 128.979 514.703 128.979C512.33 128.979 510.625 126.834 510.625 123.441C510.625 120.066 512.33 117.922 514.703 117.922ZM514.703 119.416C513.244 119.416 512.242 120.963 512.242 123.441C512.242 125.938 513.244 127.484 514.703 127.484C516.145 127.484 517.146 125.938 517.146 123.441C517.146 120.963 516.145 119.416 514.703 119.416ZM531.104 120.752C531.086 123.547 532.703 126.395 535.059 127.537L534.021 128.873C532.308 127.985 530.98 126.219 530.295 124.109C529.583 126.359 528.203 128.24 526.41 129.172L525.373 127.818C527.799 126.658 529.434 123.635 529.434 120.752V118.062H531.104V120.752ZM537.906 116.744V123.02H540.438V124.443H537.906V132.494H536.236V116.744H537.906Z" fill="white"/>
<path d="M504.441 73.7731C504.441 73.7731 504.559 67.6353 503.79 65.3519C503.006 63.0685 502.143 59.3842 496.363 55.5462C494.347 54.202 493.681 54.3235 493.477 54.4449C493.265 54.5664 492.951 55.1251 493.006 57.5948C493.069 60.0725 492.889 66.8661 495.704 69.8621C498.52 72.8581 500.7 73.5706 504.441 73.7731Z" fill="white"/>
<path d="M509.022 57.5768C513.548 50.1031 520.355 47.4715 521.1 47.2367C521.743 47.0423 522.065 46.8237 522.12 46.2731C522.183 45.7468 521.351 44.6132 518.951 43.4391C515.673 41.8277 509.022 42.0058 509.022 42.0058C509.022 42.0058 502.38 41.8277 499.101 43.4391C496.702 44.6132 495.862 45.7468 495.925 46.2731C495.988 46.8237 496.294 47.0342 496.945 47.2367C497.682 47.4715 504.505 50.1031 509.022 57.5768Z" fill="white"/>
<path d="M509.002 74.0012C510.194 74.0012 511.285 73.9446 512.288 73.8798C512.288 73.8798 512.406 68.3575 512.077 66.3089C511.716 64.0254 510.955 60.4222 509.002 57.6367C507.065 60.4141 506.297 64.0254 505.936 66.3089C505.614 68.3575 505.732 73.8798 505.732 73.8798C506.728 73.9527 507.826 74.0012 509.002 74.0012Z" fill="white"/>
<path d="M513.557 73.7731C513.557 73.7731 513.44 67.6353 514.216 65.3519C515 63.0685 515.871 59.3842 521.643 55.5462C523.659 54.202 524.325 54.3235 524.529 54.4449C524.741 54.5664 525.055 55.1251 524.992 57.5948C524.937 60.0725 525.117 66.8661 522.302 69.8621C519.486 72.8581 517.306 73.5706 513.557 73.7731Z" fill="white"/>
<path d="M495.003 49.0686C494.595 48.9877 494.32 48.5666 494.32 48.1131C494.32 47.5625 494.752 47.1172 495.277 47.1172C495.363 47.1172 495.536 47.1415 495.661 47.2063C495.661 47.2063 499.998 49.2387 502.736 52.9553L502.665 53.0687C499.01 50.1132 495.003 49.0686 495.003 49.0686Z" fill="white"/>
<path d="M494.05 51.3856C493.642 51.2803 493.336 50.9079 493.321 50.4544C493.305 49.9038 493.713 49.418 494.246 49.418C494.372 49.418 494.544 49.4423 494.678 49.507C494.678 49.507 499.046 51.337 501.783 54.7864L501.705 54.8836C497.885 52.0901 494.05 51.3856 494.05 51.3856Z" fill="white"/>
<path d="M493.832 53.8657C493.432 53.7686 493.142 53.4042 493.126 52.975C493.102 52.4406 493.502 51.9629 494.028 51.9629C494.059 51.9629 494.232 51.9629 494.397 52.0277C494.397 52.0277 498.608 53.801 500.804 56.5459L500.733 56.6674C497.071 54.2544 493.832 53.8738 493.832 53.8738V53.8657Z" fill="white"/>
<path d="M522.999 49.0686C523.414 48.9877 523.689 48.5666 523.689 48.1131C523.689 47.5625 523.25 47.1172 522.716 47.1172C522.638 47.1172 522.465 47.1415 522.332 47.2063C522.332 47.2063 517.987 49.2387 515.258 52.9553L515.328 53.0687C518.991 50.1132 522.991 49.0686 522.991 49.0686H522.999Z" fill="white"/>
<path d="M523.983 51.3856C524.383 51.2803 524.689 50.9079 524.705 50.4544C524.728 49.9038 524.305 49.418 523.779 49.418C523.661 49.418 523.481 49.4423 523.348 49.507C523.348 49.507 518.979 51.337 516.234 54.7864L516.313 54.8836C520.132 52.0901 523.975 51.3775 523.975 51.3775L523.983 51.3856Z" fill="white"/>
<path d="M524.171 53.8657C524.564 53.7686 524.862 53.4042 524.869 52.975C524.901 52.4406 524.501 51.9629 523.983 51.9629C523.936 51.9629 523.771 51.9629 523.607 52.0277C523.607 52.0277 519.387 53.801 517.191 56.5459L517.262 56.6674C520.909 54.2544 524.164 53.8738 524.164 53.8738L524.171 53.8657Z" fill="white"/>
<rect y="298" width="88" height="433" rx="8" transform="rotate(-90 0 298)" fill="white"/>
<path d="M33.6562 238.438C33.6406 240.984 34.7344 243.562 37.0156 244.656L35.8125 246.25C34.2891 245.5 33.2656 244.094 32.6719 242.375C32.0547 244.219 30.9531 245.727 29.3438 246.516L28.1094 244.906C30.5156 243.797 31.6562 241.078 31.6562 238.438V236.312H33.6562V238.438ZM39.6406 235.219V240.703H41.7344V242.391H39.6406V249.438H37.6406V235.219H39.6406ZM54.2031 235.219V249.438H52.2188V235.219H54.2031ZM42.3125 245.422C43.3984 245.414 44.6406 245.414 45.9375 245.375V244.172C44.375 243.898 43.3594 242.93 43.375 241.594C43.3594 240 44.8125 238.922 46.9062 238.922C49.0156 238.922 50.4844 240 50.4844 241.594C50.4844 242.922 49.4688 243.891 47.9062 244.172V245.312C49.0938 245.258 50.2969 245.164 51.4375 245.016L51.5781 246.484C48.4688 247.016 45.1094 247.047 42.5781 247.047L42.3125 245.422ZM51.2344 236.797V238.359H42.5938V236.797H45.9375V235.281H47.9219V236.797H51.2344ZM46.9062 240.438C45.9375 240.438 45.25 240.859 45.2656 241.594C45.25 242.344 45.9375 242.75 46.9062 242.75C47.9062 242.75 48.5781 242.344 48.5781 241.594C48.5781 240.859 47.9062 240.438 46.9062 240.438ZM60.5625 238.469C60.5625 239.875 61.375 241.281 63.1719 241.875L62.2812 243.375C61.0234 242.93 60.1641 242.109 59.6562 241.094C59.1562 242.211 58.2891 243.109 56.9844 243.594L56.0781 242.125C57.8594 241.453 58.6719 239.984 58.6719 238.469V238.391H56.4688V236.828H58.6719V235.359H60.5625V236.828H62.75V238.391H60.5625V238.469ZM68.2969 235.234V243.922H66.4062V240.406H65.2656V243.891H63.3906V235.453H65.2656V238.797H66.4062V235.234H68.2969ZM68.2969 244.531V249.438H66.3125V246.141H58.4688V244.531H68.2969ZM81.8125 235.234V243.266H79.8125V235.234H81.8125ZM81.8125 243.906V249.281H72.2812V243.906H81.8125ZM74.25 245.484V247.688H79.8594V245.484H74.25ZM74.0156 235.875C76.2344 235.875 77.9062 237.281 77.9062 239.312C77.9062 241.266 76.2344 242.703 74.0156 242.703C71.7969 242.703 70.125 241.266 70.125 239.312C70.125 237.281 71.7969 235.875 74.0156 235.875ZM74.0156 237.547C72.875 237.547 72.0625 238.203 72.0781 239.312C72.0625 240.375 72.875 241.031 74.0156 241.031C75.125 241.031 75.9375 240.375 75.9375 239.312C75.9375 238.203 75.125 237.547 74.0156 237.547ZM95.6875 235.219V249.438H93.6719V235.219H95.6875ZM91.4219 236.703C91.4219 241.016 89.9062 244.594 84.8281 247L83.7812 245.406C87.4531 243.672 89.0703 241.422 89.3906 238.266H84.5469V236.703H91.4219ZM106.484 236.266V237.719H98.0469V236.266H101.266V235.125H103.25V236.266H106.484ZM102.266 238.047C104.375 238.047 105.812 238.875 105.828 240.203C105.812 241.289 104.812 242.031 103.25 242.25V242.922C104.391 242.875 105.531 242.789 106.609 242.656L106.75 243.984C103.719 244.516 100.391 244.562 97.8906 244.562L97.625 243.047C98.7266 243.047 99.9688 243.039 101.266 243V242.25C99.6797 242.031 98.6875 241.289 98.7031 240.203C98.6875 238.875 100.109 238.047 102.266 238.047ZM102.266 239.375C101.25 239.375 100.625 239.641 100.625 240.203C100.625 240.719 101.25 240.984 102.266 240.984C103.234 240.984 103.906 240.719 103.906 240.203C103.906 239.641 103.234 239.375 102.266 239.375ZM109.516 235.25V244.844H107.484V235.25H109.516ZM109.516 245.406V249.438H107.484V246.938H99.625V245.406H109.516ZM122.859 235.844V236.953C122.859 238 122.859 239.203 122.578 240.734H124.406V242.328H118.875V244.375H122.875V249.438H120.875V245.938H112.703V244.375H116.875V242.328H111.391V240.734H120.562C120.828 239.406 120.867 238.359 120.875 237.422H112.984V235.844H122.859ZM130.75 248.141C130.016 248.141 129.422 247.547 129.438 246.828C129.422 246.109 130.016 245.531 130.75 245.531C131.438 245.531 132.047 246.109 132.047 246.828C132.047 247.547 131.438 248.141 130.75 248.141ZM130.75 242.188C130.016 242.188 129.422 241.594 129.438 240.875C129.422 240.156 130.016 239.578 130.75 239.578C131.438 239.578 132.047 240.156 132.047 240.875C132.047 241.594 131.438 242.188 130.75 242.188Z" fill="#222222"/>
<path d="M142.422 243.688C142.438 240.734 143.234 238.281 144.672 236.203H145.859C144.797 237.75 143.812 240.906 143.812 243.688C143.812 246.469 144.797 249.641 145.859 251.188H144.672C143.234 249.094 142.438 246.641 142.422 243.688ZM159.688 242.25V243.234H147.016V242.25H152.75V240.625H148.625V236.031H158.109V237.016H149.828V239.625H158.203V240.625H153.938V242.25H159.688ZM153.344 244.25C156.328 244.25 158.109 245.156 158.125 246.75C158.109 248.359 156.328 249.25 153.344 249.266C150.344 249.25 148.547 248.359 148.547 246.75C148.547 245.156 150.344 244.25 153.344 244.25ZM153.344 245.219C151.109 245.219 149.781 245.797 149.797 246.75C149.781 247.719 151.109 248.281 153.344 248.281C155.547 248.281 156.891 247.719 156.891 246.75C156.891 245.797 155.547 245.219 153.344 245.219ZM164.562 236.453C166.609 236.469 168.062 238.344 168.078 241.297C168.062 244.25 166.609 246.125 164.562 246.125C162.5 246.125 161.062 244.25 161.062 241.297C161.062 238.344 162.5 236.469 164.562 236.453ZM164.562 237.547C163.188 237.562 162.219 239.031 162.219 241.297C162.219 243.562 163.188 245.031 164.562 245.031C165.953 245.031 166.891 243.562 166.891 241.297C166.891 239.031 165.953 237.562 164.562 237.547ZM171.594 235.375V240.922H173.922V241.984H171.594V249.266H170.375V235.375H171.594ZM178.844 238.094C178.844 239.242 179.57 240.797 181 241.656C182.414 240.812 183.141 239.312 183.141 238.094V236.438H184.375V238.094C184.359 239.703 185.406 241.328 187.219 242.016L186.578 242.953C185.18 242.375 184.219 241.305 183.75 240.016C183.289 241.234 182.391 242.359 181 242.938C179.602 242.352 178.688 241.188 178.234 239.953C177.758 241.227 176.805 242.359 175.453 242.953L174.766 242.016C176.547 241.297 177.625 239.562 177.641 238.094V236.438H178.844V238.094ZM187.375 246.453V247.484H174.672V246.453H180.391V243.469H181.594V246.453H187.375ZM193.438 239.109C193.422 241.641 195.156 244.203 197.203 245.125L196.453 246.094C194.875 245.32 193.508 243.688 192.844 241.703C192.195 243.805 190.828 245.555 189.203 246.375L188.422 245.344C190.484 244.391 192.203 241.75 192.219 239.109V236.578H193.438V239.109ZM199.953 235.375V249.297H198.719V235.375H199.953ZM208.656 236.281C211.609 236.297 213.734 237.734 213.734 239.922C213.734 241.992 211.891 243.367 209.25 243.531V246.453H215.047V247.484H202.328V246.453H208.047V243.531C205.414 243.359 203.578 241.984 203.578 239.922C203.578 237.734 205.703 236.297 208.656 236.281ZM208.656 237.297C206.406 237.297 204.766 238.359 204.766 239.922C204.766 241.531 206.406 242.562 208.656 242.578C210.906 242.562 212.547 241.531 212.547 239.922C212.547 238.359 210.906 237.297 208.656 237.297ZM228.078 236.359V237.266H216.812V236.359H221.875V235.156H223.094V236.359H228.078ZM222.484 237.844C225.406 237.844 226.984 238.438 226.984 239.641C226.984 240.758 225.625 241.352 223.094 241.438V242.406H228.812V243.328H216.156V242.406H221.875V241.438C219.32 241.352 217.969 240.758 217.969 239.641C217.969 238.438 219.531 237.844 222.484 237.844ZM222.484 238.688C220.375 238.688 219.266 239.016 219.281 239.641C219.266 240.281 220.375 240.625 222.484 240.625C224.578 240.625 225.688 240.281 225.703 239.641C225.688 239.016 224.578 238.688 222.484 238.688ZM227.188 244.234V247.031H218.969V248.203H227.609V249.109H217.719V246.172H225.953V245.125H217.688V244.234H227.188ZM241.453 235.375V243.938H240.234V235.375H241.453ZM237.422 236.469V237.484H232.062V241.547C235.047 241.547 236.781 241.453 238.797 241.047L238.938 242.078C236.844 242.469 235.062 242.547 231.984 242.562H230.844V236.469H237.422ZM236.812 243.938C239.703 243.938 241.484 244.922 241.5 246.594C241.484 248.281 239.703 249.25 236.812 249.266C233.891 249.25 232.125 248.281 232.125 246.594C232.125 244.922 233.891 243.938 236.812 243.938ZM236.812 244.922C234.656 244.922 233.359 245.547 233.359 246.594C233.359 247.641 234.656 248.266 236.812 248.266C238.953 248.266 240.281 247.641 240.281 246.594C240.281 245.547 238.953 244.922 236.812 244.922ZM250.734 237.422C250.734 239.797 253.453 241.922 255.875 242.375L255.312 243.406C253.219 242.922 251.008 241.43 250.109 239.375C249.211 241.422 247.008 242.914 244.906 243.406L244.344 242.375C246.75 241.906 249.453 239.812 249.453 237.422V236.359H250.734V237.422ZM256.531 246.359V247.375H243.812V246.359H256.531ZM273.172 235.375V243.656H271.938V240.016H269.141V239H271.938V235.375H273.172ZM268.562 244.094C271.453 244.094 273.219 245.031 273.219 246.672C273.219 248.312 271.453 249.25 268.562 249.266C265.672 249.25 263.906 248.312 263.906 246.672C263.906 245.031 265.672 244.094 268.562 244.094ZM268.562 245.047C266.438 245.047 265.109 245.656 265.125 246.672C265.109 247.672 266.438 248.281 268.562 248.281C270.688 248.281 272 247.672 272 246.672C272 245.656 270.688 245.047 268.562 245.047ZM266.484 237.922C266.484 239.734 267.875 241.453 269.906 242.156L269.266 243.141C267.703 242.578 266.492 241.414 265.906 239.969C265.297 241.602 264.008 242.906 262.359 243.531L261.719 242.547C263.781 241.797 265.25 239.922 265.25 237.938V237.422H262.109V236.391H269.594V237.422H266.484V237.922ZM286.703 241.891V242.891H282.406V246.484H288.203V247.516H275.484V246.484H281.203V242.891H277.109V236.516H286.562V237.516H278.344V241.891H286.703ZM300.828 235.391V243.734H299.594V241.859H295.906V240.844H299.594V238.969H296.047C295.133 241.203 292.984 242.82 290.016 243.703L289.5 242.734C292.859 241.734 294.945 239.859 295.203 237.453H290.203V236.422H296.531C296.531 236.969 296.469 237.492 296.359 237.984H299.594V235.391H300.828ZM296.281 243.875C299.094 243.875 300.906 244.875 300.906 246.531C300.906 248.203 299.094 249.203 296.281 249.203C293.438 249.203 291.641 248.203 291.641 246.531C291.641 244.875 293.438 243.875 296.281 243.875ZM296.281 244.859C294.188 244.844 292.844 245.484 292.844 246.531C292.844 247.578 294.188 248.203 296.281 248.203C298.344 248.203 299.672 247.578 299.688 246.531C299.672 245.484 298.344 244.844 296.281 244.859ZM306.969 236.219C308.141 236.211 309.141 236.648 309.781 237.391H313.422V235.375H314.656V243.609H313.422V241.625H309.797C309.141 242.367 308.141 242.805 306.969 242.797C304.891 242.812 303.359 241.453 303.359 239.516C303.359 237.562 304.891 236.203 306.969 236.219ZM306.969 237.281C305.547 237.266 304.531 238.203 304.531 239.516C304.531 240.812 305.547 241.75 306.969 241.75C308.344 241.75 309.375 240.812 309.375 239.516C309.375 238.203 308.344 237.266 306.969 237.281ZM310.047 243.938C312.922 243.938 314.703 244.906 314.703 246.578C314.703 248.266 312.922 249.234 310.047 249.234C307.156 249.234 305.391 248.266 305.391 246.578C305.391 244.906 307.156 243.938 310.047 243.938ZM310.047 244.891C307.922 244.891 306.594 245.531 306.594 246.578C306.594 247.625 307.922 248.25 310.047 248.25C312.188 248.25 313.5 247.625 313.5 246.578C313.5 245.531 312.188 244.891 310.047 244.891ZM310.375 238.391C310.492 238.734 310.562 239.109 310.562 239.516C310.562 239.906 310.492 240.273 310.375 240.609H313.422V238.391H310.375ZM324.438 236.234V237.25H319.016V238.984H324.047V239.969H319.016V241.812C321.977 241.828 323.617 241.758 325.578 241.422L325.703 242.422C323.672 242.781 321.969 242.812 318.906 242.812H317.781V236.234H324.438ZM328.438 235.391V243.672H327.219V235.391H328.438ZM328.438 244.359V249.078H319.406V244.359H328.438ZM320.609 245.344V248.078H327.234V245.344H320.609ZM333.078 246.953L331.859 251.203H330.703L331.562 246.953H333.078ZM339.594 248V236.688H341V241.719H346.984V236.688H348.406V248H346.984V242.953H341V248H339.594ZM350.891 248V236.688H354.734C357.391 236.688 358.594 238.156 358.594 240.172C358.594 241.664 357.922 242.844 356.484 243.344L359.031 248H357.391L355.031 243.594C354.938 243.609 354.844 243.609 354.75 243.609H352.297V248H350.891ZM352.297 242.328H354.688C356.484 242.328 357.203 241.516 357.203 240.172C357.203 238.812 356.484 237.938 354.672 237.938H352.297V242.328ZM371.453 235.391V245.578H370.219V240.25H367.359V239.234H370.219V235.391H371.453ZM371.844 247.938V248.969H362.531V244.656H363.766V247.938H371.844ZM364.766 238.25C364.766 240.047 366.156 241.797 368.188 242.484L367.547 243.469C365.977 242.906 364.766 241.734 364.172 240.297C363.57 241.898 362.289 243.18 360.641 243.797L360 242.797C362.047 242.078 363.531 240.25 363.531 238.25V237.531H360.391V236.516H367.875V237.531H364.766V238.25ZM386.719 237.609V238.625H384.625V240.516H386.719V241.547H384.625V243.828H383.406V235.391H384.625V237.609H386.719ZM380.656 236.219V240.047H375.594V242.062C378.062 242.062 379.852 241.977 382.016 241.609L382.141 242.625C379.906 243 378.047 243.078 375.469 243.078H374.391V239.078H379.453V237.219H374.359V236.219H380.656ZM384.625 244.562V249.266H383.406V245.562H375.531V244.562H384.625ZM395.062 236.234V237.25H389.641V238.984H394.672V239.969H389.641V241.812C392.602 241.828 394.242 241.758 396.203 241.422L396.328 242.422C394.297 242.781 392.594 242.812 389.531 242.812H388.406V236.234H395.062ZM399.062 235.391V243.672H397.844V235.391H399.062ZM399.062 244.359V249.078H390.031V244.359H399.062ZM391.234 245.344V248.078H397.859V245.344H391.234ZM403.703 246.953L402.484 251.203H401.328L402.188 246.953H403.703ZM153.047 259.375V273.266H151.812V259.375H153.047ZM148.938 260.891C148.922 264.891 147.062 268.422 142.406 270.656L141.734 269.656C145.492 267.875 147.406 265.211 147.688 261.891H142.375V260.891H148.938ZM159.219 260.031C161.086 260.016 162.5 261.102 162.766 262.703H165.672V259.375H166.906V266.828H165.672V263.719H162.781C162.531 265.359 161.102 266.453 159.219 266.453C157.109 266.453 155.609 265.141 155.609 263.234C155.609 261.344 157.109 260.016 159.219 260.031ZM159.219 261.078C157.797 261.062 156.781 261.953 156.781 263.234C156.781 264.5 157.797 265.422 159.219 265.422C160.625 265.422 161.625 264.5 161.625 263.234C161.625 261.953 160.625 261.062 159.219 261.078ZM159.188 267.531V269.297H165.672V267.531H166.906V273.078H157.953V267.531H159.188ZM159.188 272.078H165.672V270.281H159.188V272.078ZM181.922 266.484V267.5H176.266V270.344H175.047V267.5H169.203V266.484H181.922ZM180.266 260.062V264.891H170.859V260.062H180.266ZM172.062 261.031V263.906H179.047V261.031H172.062ZM180.5 271.938V272.969H170.828V268.969H172.062V271.938H180.5ZM193.828 259.375V265.297H196.047V266.328H193.828V273.266H192.594V259.375H193.828ZM182.875 269.562C184.008 269.562 185.328 269.562 186.703 269.516V267.969C185.086 267.789 184.031 266.844 184.047 265.469C184.031 263.906 185.359 262.891 187.328 262.891C189.266 262.891 190.609 263.906 190.625 265.469C190.609 266.844 189.539 267.789 187.938 267.984V269.469C189.234 269.406 190.539 269.305 191.75 269.125L191.828 270.062C188.797 270.578 185.516 270.609 183.078 270.609L182.875 269.562ZM191.5 261.078V262.078H183.125V261.078H186.703V259.406H187.938V261.078H191.5ZM187.328 263.844C186.047 263.844 185.188 264.5 185.188 265.469C185.188 266.438 186.047 267.062 187.328 267.047C188.594 267.062 189.453 266.438 189.453 265.469C189.453 264.5 188.594 263.844 187.328 263.844ZM204.75 260.812V261.828H196.891V260.812H200.266V259.266H201.484V260.812H204.75ZM200.859 262.594C202.703 262.609 204.031 263.641 204.031 265.188C204.031 266.734 202.703 267.781 200.859 267.797C199.016 267.781 197.703 266.734 197.719 265.188C197.703 263.641 199.016 262.609 200.859 262.594ZM200.859 263.547C199.672 263.562 198.859 264.219 198.859 265.188C198.859 266.156 199.672 266.812 200.859 266.812C202.047 266.812 202.875 266.156 202.891 265.188C202.875 264.219 202.047 263.562 200.859 263.547ZM208.391 259.375V268.188H207.156V266.438H204.734V265.406H207.156V263.797H204.75V262.812H207.156V259.375H208.391ZM208.391 269V273.266H207.156V270H199.047V269H208.391ZM222.172 259.391V269.578H220.953V259.391H222.172ZM222.609 271.938V272.969H213.203V268.641H214.422V271.938H222.609ZM215.625 261.562C215.609 263.672 217.062 265.578 219.125 266.328L218.484 267.312C216.875 266.695 215.625 265.445 215.016 263.844C214.398 265.547 213.133 266.914 211.516 267.562L210.844 266.609C212.953 265.797 214.375 263.75 214.375 261.562V260.172H215.625V261.562ZM232 260.234V261.25H226.578V262.984H231.609V263.969H226.578V265.812C229.539 265.828 231.18 265.758 233.141 265.422L233.266 266.422C231.234 266.781 229.531 266.812 226.469 266.812H225.344V260.234H232ZM236 259.391V267.672H234.781V259.391H236ZM236 268.359V273.078H226.969V268.359H236ZM228.172 269.344V272.078H234.797V269.344H228.172ZM240.641 270.953L239.422 275.203H238.266L239.125 270.953H240.641ZM259.141 266.25V267.234H246.469V266.25H252.203V264.625H248.078V260.031H257.562V261.016H249.281V263.625H257.656V264.625H253.391V266.25H259.141ZM252.797 268.25C255.781 268.25 257.562 269.156 257.578 270.75C257.562 272.359 255.781 273.25 252.797 273.266C249.797 273.25 248 272.359 248 270.75C248 269.156 249.797 268.25 252.797 268.25ZM252.797 269.219C250.562 269.219 249.234 269.797 249.25 270.75C249.234 271.719 250.562 272.281 252.797 272.281C255 272.281 256.344 271.719 256.344 270.75C256.344 269.797 255 269.219 252.797 269.219ZM264.016 260.453C266.062 260.469 267.516 262.344 267.531 265.297C267.516 268.25 266.062 270.125 264.016 270.125C261.953 270.125 260.516 268.25 260.516 265.297C260.516 262.344 261.953 260.469 264.016 260.453ZM264.016 261.547C262.641 261.562 261.672 263.031 261.672 265.297C261.672 267.562 262.641 269.031 264.016 269.031C265.406 269.031 266.344 267.562 266.344 265.297C266.344 263.031 265.406 261.562 264.016 261.547ZM271.047 259.375V264.922H273.375V265.984H271.047V273.266H269.828V259.375H271.047ZM286 259.375V273.266H284.828V259.375H286ZM283.188 259.719V272.547H282.031V265.391H279.688V264.391H282.031V259.719H283.188ZM278.203 263.344C278.203 265.75 279.281 268.141 281.203 269.25L280.453 270.156C279.086 269.336 278.117 267.836 277.641 266.062C277.133 267.977 276.125 269.609 274.734 270.484L273.953 269.562C275.891 268.406 277.016 265.875 277.016 263.344V262.031H274.344V261.016H280.75V262.031H278.203V263.344ZM300.875 261.531V262.531H298.812V264.484H300.875V265.531H298.812V267.641H297.594V259.375H298.812V261.531H300.875ZM298.812 268.281V273.266H297.594V269.297H289.719V268.281H298.812ZM291.859 260.219C293.969 260.203 295.5 261.562 295.516 263.484C295.5 265.438 293.969 266.781 291.859 266.781C289.75 266.781 288.203 265.438 288.219 263.484C288.203 261.562 289.75 260.203 291.859 260.219ZM291.859 261.266C290.453 261.266 289.406 262.172 289.422 263.484C289.406 264.812 290.453 265.734 291.859 265.719C293.281 265.734 294.312 264.812 294.312 263.484C294.312 262.172 293.281 261.266 291.859 261.266ZM314.203 264.25C313.875 262.688 312.531 261.844 311.047 261.844C309 261.844 307.406 263.422 307.406 266.344C307.406 269.266 309 270.844 311.047 270.844C312.531 270.844 313.859 270 314.203 268.453H315.609C315.203 270.766 313.344 272.156 311.047 272.156C308.141 272.156 306.047 269.922 306.047 266.344C306.047 262.766 308.141 260.531 311.047 260.531C313.328 260.531 315.188 261.906 315.609 264.25H314.203ZM323.75 263.531C323.625 262.422 322.609 261.781 321.25 261.781C319.75 261.781 318.766 262.562 318.766 263.641C318.766 264.828 320.094 265.266 320.953 265.484L322.078 265.797C323.297 266.109 325.281 266.812 325.281 268.922C325.281 270.766 323.797 272.203 321.172 272.203C318.734 272.203 317.219 270.938 317.094 269.062H318.531C318.656 270.328 319.828 270.922 321.172 270.922C322.734 270.922 323.906 270.125 323.906 268.891C323.906 267.797 322.859 267.375 321.672 267.031L320.281 266.656C318.5 266.141 317.406 265.234 317.406 263.703C317.406 261.797 319.109 260.531 321.297 260.531C323.484 260.531 325.062 261.812 325.125 263.531H323.75ZM327.297 272V260.688H331.141C333.797 260.688 335 262.156 335 264.172C335 265.664 334.328 266.844 332.891 267.344L335.438 272H333.797L331.438 267.594C331.344 267.609 331.25 267.609 331.156 267.609H328.703V272H327.297ZM328.703 266.328H331.094C332.891 266.328 333.609 265.516 333.609 264.172C333.609 262.812 332.891 261.938 331.078 261.938H328.703V266.328ZM343.812 260.234V261.25H338.391V262.984H343.422V263.969H338.391V265.812C341.352 265.828 342.992 265.758 344.953 265.422L345.078 266.422C343.047 266.781 341.344 266.812 338.281 266.812H337.156V260.234H343.812ZM347.812 259.391V267.672H346.594V259.391H347.812ZM347.812 268.359V273.078H338.781V268.359H347.812ZM339.984 269.344V272.078H346.609V269.344H339.984ZM353.641 267.688C353.625 270.641 352.828 273.094 351.391 275.188H350.203C351.266 273.641 352.25 270.469 352.25 267.688C352.25 264.906 351.266 261.75 350.203 260.203H351.391C352.828 262.281 353.625 264.734 353.641 267.688Z" fill="#666666"/>
<rect y="368" width="74" height="182" rx="8" fill="#2F75FF"/>
<path d="M33.5078 404.938V406.5H20.5078V404.938H26.0391V403.719H22.0859V398.844H31.9453V400.391H24.0703V402.156H32.0234V403.719H27.9922V404.938H33.5078ZM26.9766 407.219C30.0547 407.219 31.9141 408.156 31.9297 409.844C31.9141 411.5 30.0547 412.453 26.9766 412.453C23.8672 412.453 21.9922 411.5 21.9922 409.844C21.9922 408.156 23.8672 407.219 26.9766 407.219ZM26.9766 408.734C25.0078 408.734 24.0078 409.109 24.0234 409.844C24.0078 410.594 25.0078 410.938 26.9766 410.938C28.8984 410.938 29.9141 410.594 29.9297 409.844C29.9141 409.109 28.8984 408.734 26.9766 408.734ZM24.3359 417.219C26.5078 417.219 28.0703 419.188 28.0859 422.281C28.0703 425.406 26.5078 427.359 24.3359 427.359C22.1641 427.359 20.5703 425.406 20.5859 422.281C20.5703 419.188 22.1641 417.219 24.3359 417.219ZM24.3359 419.016C23.2422 419.016 22.5078 420.172 22.5078 422.281C22.5078 424.406 23.2422 425.547 24.3359 425.547C25.4453 425.547 26.1641 424.406 26.1797 422.281C26.1641 420.172 25.4453 419.016 24.3359 419.016ZM31.7266 416.219V421.578H33.8203V423.234H31.7266V430.438H29.7266V416.219H31.7266ZM29.0547 438.922C28.9609 438.031 28.2422 437.5 27.1016 437.5C25.9141 437.5 25.2578 438.047 25.2422 438.797C25.2266 439.609 26.0859 439.984 27.0547 440.203L28.0703 440.453C30.0078 440.891 31.4609 441.875 31.4609 443.766C31.4609 445.844 29.8359 447.156 27.0859 447.156C24.3516 447.156 22.6016 445.891 22.5391 443.469H24.8203C24.8984 444.609 25.8047 445.188 27.0547 445.188C28.2891 445.188 29.0859 444.609 29.0859 443.766C29.0859 443 28.3828 442.641 27.1484 442.328L25.9141 442.031C24.0078 441.562 22.8359 440.609 22.8359 438.953C22.8359 436.891 24.6484 435.531 27.1172 435.531C29.6172 435.531 31.2734 436.922 31.3047 438.922H29.0547ZM22.375 455.625V453.688H31.6406V455.625H28.1719V465H25.8438V455.625H22.375Z" fill="white"/>
<path d="M52.8047 398.219V412.438H50.9141V405.297H49.5391V411.75H47.7109V398.453H49.5391V403.703H50.9141V398.219H52.8047ZM46.2109 399.859V401.469H42.9141V407.531C44.2891 407.523 45.5078 407.453 46.8828 407.203L47.0234 408.828C45.2891 409.156 43.7734 409.203 41.8984 409.219H40.9141V399.859H46.2109ZM53.5234 427.266V428.859H40.5078V427.266H43.7422V424.562H41.5859V422.953H43.4922V418.953H41.5234V417.359H52.4297V418.953H50.4297V422.953H52.3672V424.562H50.2266V427.266H53.5234ZM45.4922 422.953H48.4609V418.953H45.4922V422.953ZM45.7422 427.266H48.2266V424.562H45.7422V427.266ZM52.4141 434.219V448.469H50.3984V434.219H52.4141ZM44.6953 435.219C46.8359 435.219 48.4297 437.188 48.4297 440.281C48.4297 443.406 46.8359 445.359 44.6953 445.359C42.5078 445.359 40.9141 443.406 40.9297 440.281C40.9141 437.188 42.5078 435.219 44.6953 435.219ZM44.6953 437.016C43.5859 437.016 42.8516 438.172 42.8516 440.281C42.8516 442.406 43.5859 443.547 44.6953 443.547C45.7734 443.547 46.5078 442.406 46.5078 440.281C46.5078 438.172 45.7734 437.016 44.6953 437.016ZM45.7422 455.438C45.7266 457.984 46.8203 460.562 49.1016 461.656L47.8984 463.25C46.375 462.5 45.3516 461.094 44.7578 459.375C44.1406 461.219 43.0391 462.727 41.4297 463.516L40.1953 461.906C42.6016 460.797 43.7422 458.078 43.7422 455.438V453.312H45.7422V455.438ZM51.7266 452.219V457.703H53.8203V459.391H51.7266V466.438H49.7266V452.219H51.7266Z" fill="white"/>
<rect x="86" y="368" width="74" height="182" rx="8" fill="#2F75FF"/>
<path d="M119.508 404.938V406.5H106.508V404.938H112.039V403.719H108.086V398.844H117.945V400.391H110.07V402.156H118.023V403.719H113.992V404.938H119.508ZM112.977 407.219C116.055 407.219 117.914 408.156 117.93 409.844C117.914 411.5 116.055 412.453 112.977 412.453C109.867 412.453 107.992 411.5 107.992 409.844C107.992 408.156 109.867 407.219 112.977 407.219ZM112.977 408.734C111.008 408.734 110.008 409.109 110.023 409.844C110.008 410.594 111.008 410.938 112.977 410.938C114.898 410.938 115.914 410.594 115.93 409.844C115.914 409.109 114.898 408.734 112.977 408.734ZM110.336 417.219C112.508 417.219 114.07 419.188 114.086 422.281C114.07 425.406 112.508 427.359 110.336 427.359C108.164 427.359 106.57 425.406 106.586 422.281C106.57 419.188 108.164 417.219 110.336 417.219ZM110.336 419.016C109.242 419.016 108.508 420.172 108.508 422.281C108.508 424.406 109.242 425.547 110.336 425.547C111.445 425.547 112.164 424.406 112.18 422.281C112.164 420.172 111.445 419.016 110.336 419.016ZM117.727 416.219V421.578H119.82V423.234H117.727V430.438H115.727V416.219H117.727ZM118.805 434.219V448.438H116.914V434.219H118.805ZM115.898 434.453V447.781H114.023V440.703H112.148V439.094H114.023V434.453H115.898ZM111.008 438.031C111.008 440.391 111.742 442.781 113.82 443.969L112.648 445.438C111.383 444.688 110.547 443.414 110.07 441.891C109.578 443.547 108.719 444.953 107.414 445.75L106.211 444.281C108.305 443 109.086 440.438 109.086 438.031V437.266H106.758V435.672H113.164V437.266H111.008V438.031ZM119.633 454.094V455.703H117.789V457.156H119.633V458.812H117.789V460.609H115.789V452.219H117.789V454.094H119.633ZM117.789 461.172V466.438H115.789V462.781H108.211V461.172H117.789ZM110.508 453C112.711 452.984 114.383 454.453 114.383 456.453C114.383 458.5 112.711 459.938 110.508 459.938C108.289 459.938 106.602 458.5 106.602 456.453C106.602 454.453 108.289 452.984 110.508 453ZM110.508 454.703C109.383 454.703 108.555 455.344 108.57 456.453C108.555 457.594 109.383 458.25 110.508 458.25C111.602 458.25 112.43 457.594 112.445 456.453C112.43 455.344 111.602 454.703 110.508 454.703Z" fill="white"/>
<path d="M138.805 398.219V412.438H136.914V405.297H135.539V411.75H133.711V398.453H135.539V403.703H136.914V398.219H138.805ZM132.211 399.859V401.469H128.914V407.531C130.289 407.523 131.508 407.453 132.883 407.203L133.023 408.828C131.289 409.156 129.773 409.203 127.898 409.219H126.914V399.859H132.211ZM139.523 427.266V428.859H126.508V427.266H129.742V424.562H127.586V422.953H129.492V418.953H127.523V417.359H138.43V418.953H136.43V422.953H138.367V424.562H136.227V427.266H139.523ZM131.492 422.953H134.461V418.953H131.492V422.953ZM131.742 427.266H134.227V424.562H131.742V427.266ZM138.414 434.219V448.469H136.398V434.219H138.414ZM130.695 435.219C132.836 435.219 134.43 437.188 134.43 440.281C134.43 443.406 132.836 445.359 130.695 445.359C128.508 445.359 126.914 443.406 126.93 440.281C126.914 437.188 128.508 435.219 130.695 435.219ZM130.695 437.016C129.586 437.016 128.852 438.172 128.852 440.281C128.852 442.406 129.586 443.547 130.695 443.547C131.773 443.547 132.508 442.406 132.508 440.281C132.508 438.172 131.773 437.016 130.695 437.016ZM131.742 455.438C131.727 457.984 132.82 460.562 135.102 461.656L133.898 463.25C132.375 462.5 131.352 461.094 130.758 459.375C130.141 461.219 129.039 462.727 127.43 463.516L126.195 461.906C128.602 460.797 129.742 458.078 129.742 455.438V453.312H131.742V455.438ZM137.727 452.219V457.703H139.82V459.391H137.727V466.438H135.727V452.219H137.727Z" fill="white"/>
<rect x="172" y="368" width="74" height="182" rx="8" fill="#2F75FF"/>
<path d="M204.836 398.219V412.438H202.93V398.219H204.836ZM201.867 398.422V411.781H199.992V405.062H198.852C198.664 407.859 197.477 409.547 195.727 409.547C193.852 409.547 192.633 407.578 192.633 404.375C192.633 401.188 193.852 399.234 195.727 399.234C197.438 399.234 198.609 400.828 198.836 403.484H199.992V398.422H201.867ZM195.727 401.109C194.93 401.109 194.461 402.203 194.477 404.375C194.461 406.562 194.93 407.641 195.727 407.625C196.539 407.641 197.023 406.562 197.023 404.375C197.023 402.203 196.539 401.109 195.727 401.109ZM199.992 418.094C199.992 420.172 201.836 422.406 205.055 422.953L204.18 424.609C201.703 424.117 199.859 422.727 198.945 420.891C198 422.711 196.156 424.109 193.695 424.609L192.836 422.953C195.992 422.391 197.852 420.156 197.867 418.094V417.062H199.992V418.094ZM205.523 427.047V428.688H192.508V427.047H205.523ZM200.523 435.391V437.016H195.258V439.359H199.93V440.922H195.258V443.609C197.438 443.594 199.18 443.516 201.164 443.203L201.352 444.812C199.117 445.141 197.07 445.203 194.508 445.203H193.289V435.391H200.523ZM204.461 434.219V448.438H202.445V434.219H204.461ZM200.477 453.172V454.766H199.32V458.203C199.883 458.164 200.438 458.109 200.977 458.047L201.117 459.531C198.289 460.016 195.023 460.047 192.648 460.062L192.43 458.422C192.914 458.422 193.43 458.422 193.977 458.406V454.766H192.805V453.172H200.477ZM203.789 461.047V466.281H194.492V461.047H203.789ZM196.461 462.609V464.688H201.82V462.609H196.461ZM203.789 452.219V455.438H205.711V457.062H203.789V460.453H201.789V452.219H203.789ZM195.898 458.375C196.391 458.367 196.891 458.352 197.398 458.328V454.766H195.898V458.375Z" fill="white"/>
<path d="M224.805 398.219V412.438H222.914V405.297H221.539V411.75H219.711V398.453H221.539V403.703H222.914V398.219H224.805ZM218.211 399.859V401.469H214.914V407.531C216.289 407.523 217.508 407.453 218.883 407.203L219.023 408.828C217.289 409.156 215.773 409.203 213.898 409.219H212.914V399.859H218.211ZM225.523 427.266V428.859H212.508V427.266H215.742V424.562H213.586V422.953H215.492V418.953H213.523V417.359H224.43V418.953H222.43V422.953H224.367V424.562H222.227V427.266H225.523ZM217.492 422.953H220.461V418.953H217.492V422.953ZM217.742 427.266H220.227V424.562H217.742V427.266ZM224.414 434.219V448.469H222.398V434.219H224.414ZM216.695 435.219C218.836 435.219 220.43 437.188 220.43 440.281C220.43 443.406 218.836 445.359 216.695 445.359C214.508 445.359 212.914 443.406 212.93 440.281C212.914 437.188 214.508 435.219 216.695 435.219ZM216.695 437.016C215.586 437.016 214.852 438.172 214.852 440.281C214.852 442.406 215.586 443.547 216.695 443.547C217.773 443.547 218.508 442.406 218.508 440.281C218.508 438.172 217.773 437.016 216.695 437.016ZM217.742 455.438C217.727 457.984 218.82 460.562 221.102 461.656L219.898 463.25C218.375 462.5 217.352 461.094 216.758 459.375C216.141 461.219 215.039 462.727 213.43 463.516L212.195 461.906C214.602 460.797 215.742 458.078 215.742 455.438V453.312H217.742V455.438ZM223.727 452.219V457.703H225.82V459.391H223.727V466.438H221.727V452.219H223.727Z" fill="white"/>
<rect x="258" y="368" width="74" height="182" rx="8" fill="#2F75FF"/>
<path d="M290.836 398.219V412.438H288.93V398.219H290.836ZM287.867 398.422V411.781H285.992V405.062H284.852C284.664 407.859 283.477 409.547 281.727 409.547C279.852 409.547 278.633 407.578 278.633 404.375C278.633 401.188 279.852 399.234 281.727 399.234C283.438 399.234 284.609 400.828 284.836 403.484H285.992V398.422H287.867ZM281.727 401.109C280.93 401.109 280.461 402.203 280.477 404.375C280.461 406.562 280.93 407.641 281.727 407.625C282.539 407.641 283.023 406.562 283.023 404.375C283.023 402.203 282.539 401.109 281.727 401.109ZM285.992 418.094C285.992 420.172 287.836 422.406 291.055 422.953L290.18 424.609C287.703 424.117 285.859 422.727 284.945 420.891C284 422.711 282.156 424.109 279.695 424.609L278.836 422.953C281.992 422.391 283.852 420.156 283.867 418.094V417.062H285.992V418.094ZM291.523 427.047V428.688H278.508V427.047H291.523ZM286.523 435.391V437.016H281.258V439.359H285.93V440.922H281.258V443.609C283.438 443.594 285.18 443.516 287.164 443.203L287.352 444.812C285.117 445.141 283.07 445.203 280.508 445.203H279.289V435.391H286.523ZM290.461 434.219V448.438H288.445V434.219H290.461ZM290.727 452.234V462.812H288.836V452.234H290.727ZM287.898 452.5V462.5H286.008V457.609H284.43V456.016H286.008V452.5H287.898ZM291.086 464.594V466.188H281.086V461.641H283.086V464.594H291.086ZM282.992 455.547C282.992 457.062 283.742 458.547 285.57 459.25L284.57 460.812C283.359 460.336 282.539 459.492 282.055 458.453C281.531 459.602 280.656 460.539 279.352 461.047L278.305 459.531C280.258 458.75 281.055 457.141 281.055 455.531V455.047H278.789V453.438H285.117V455.047H282.992V455.547ZM289.727 470.219V475.531H291.82V477.203H289.727V484.438H287.727V470.219H289.727ZM280.945 471.344V474.812H283.898V471.344H285.883V481.141H278.961V471.344H280.945ZM280.945 479.531H283.898V476.359H280.945V479.531ZM290.414 488.219V502.469H288.398V488.219H290.414ZM282.695 489.219C284.836 489.219 286.43 491.188 286.43 494.281C286.43 497.406 284.836 499.359 282.695 499.359C280.508 499.359 278.914 497.406 278.93 494.281C278.914 491.188 280.508 489.219 282.695 489.219ZM282.695 491.016C281.586 491.016 280.852 492.172 280.852 494.281C280.852 496.406 281.586 497.547 282.695 497.547C283.773 497.547 284.508 496.406 284.508 494.281C284.508 492.172 283.773 491.016 282.695 491.016ZM284.992 506.953C288.055 506.953 290.336 508.5 290.352 510.844C290.336 512.984 288.531 514.43 285.977 514.719V517.141H291.523V518.781H278.508V517.141H283.992V514.703C281.445 514.43 279.648 512.977 279.648 510.844C279.648 508.5 281.93 506.953 284.992 506.953ZM284.992 508.547C283.008 508.547 281.617 509.422 281.617 510.844C281.617 512.344 283.008 513.188 284.992 513.188C286.992 513.188 288.367 512.344 288.383 510.844C288.367 509.422 286.992 508.547 284.992 508.547Z" fill="white"/>
<path d="M310.805 398.219V412.438H308.914V405.297H307.539V411.75H305.711V398.453H307.539V403.703H308.914V398.219H310.805ZM304.211 399.859V401.469H300.914V407.531C302.289 407.523 303.508 407.453 304.883 407.203L305.023 408.828C303.289 409.156 301.773 409.203 299.898 409.219H298.914V399.859H304.211ZM311.523 427.266V428.859H298.508V427.266H301.742V424.562H299.586V422.953H301.492V418.953H299.523V417.359H310.43V418.953H308.43V422.953H310.367V424.562H308.227V427.266H311.523ZM303.492 422.953H306.461V418.953H303.492V422.953ZM303.742 427.266H306.227V424.562H303.742V427.266ZM310.414 434.219V448.469H308.398V434.219H310.414ZM302.695 435.219C304.836 435.219 306.43 437.188 306.43 440.281C306.43 443.406 304.836 445.359 302.695 445.359C300.508 445.359 298.914 443.406 298.93 440.281C298.914 437.188 300.508 435.219 302.695 435.219ZM302.695 437.016C301.586 437.016 300.852 438.172 300.852 440.281C300.852 442.406 301.586 443.547 302.695 443.547C303.773 443.547 304.508 442.406 304.508 440.281C304.508 438.172 303.773 437.016 302.695 437.016ZM303.742 455.438C303.727 457.984 304.82 460.562 307.102 461.656L305.898 463.25C304.375 462.5 303.352 461.094 302.758 459.375C302.141 461.219 301.039 462.727 299.43 463.516L298.195 461.906C300.602 460.797 301.742 458.078 301.742 455.438V453.312H303.742V455.438ZM309.727 452.219V457.703H311.82V459.391H309.727V466.438H307.727V452.219H309.727Z" fill="white"/>
<rect x="344" y="368" width="74" height="182" rx="8" fill="#2F75FF"/>
<path d="M377.508 404.938V406.5H364.508V404.938H370.039V403.719H366.086V398.844H375.945V400.391H368.07V402.156H376.023V403.719H371.992V404.938H377.508ZM370.977 407.219C374.055 407.219 375.914 408.156 375.93 409.844C375.914 411.5 374.055 412.453 370.977 412.453C367.867 412.453 365.992 411.5 365.992 409.844C365.992 408.156 367.867 407.219 370.977 407.219ZM370.977 408.734C369.008 408.734 368.008 409.109 368.023 409.844C368.008 410.594 369.008 410.938 370.977 410.938C372.898 410.938 373.914 410.594 373.93 409.844C373.914 409.109 372.898 408.734 370.977 408.734ZM368.336 417.219C370.508 417.219 372.07 419.188 372.086 422.281C372.07 425.406 370.508 427.359 368.336 427.359C366.164 427.359 364.57 425.406 364.586 422.281C364.57 419.188 366.164 417.219 368.336 417.219ZM368.336 419.016C367.242 419.016 366.508 420.172 366.508 422.281C366.508 424.406 367.242 425.547 368.336 425.547C369.445 425.547 370.164 424.406 370.18 422.281C370.164 420.172 369.445 419.016 368.336 419.016ZM375.727 416.219V421.578H377.82V423.234H375.727V430.438H373.727V416.219H375.727ZM372.617 435.641V437.203H369.742C369.781 438.633 370.812 440.07 373.07 440.672L372.164 442.203C370.547 441.781 369.422 440.891 368.773 439.734C368.148 441.008 367.016 442 365.336 442.453L364.398 440.922C366.656 440.305 367.727 438.773 367.758 437.203H364.898V435.641H367.758V434.156H369.773V435.641H372.617ZM375.789 434.219V437.562H377.711V439.188H375.789V442.547H373.789V434.219H375.789ZM375.789 443.141V448.281H366.492V443.141H375.789ZM368.461 444.719V446.688H373.82V444.719H368.461ZM370.57 453.688V457.391H371.992V452.422H373.867V465.781H371.992V458.984H370.57V462.859H364.914V453.688H370.57ZM366.773 455.266V461.297H368.711V455.266H366.773ZM376.836 452.219V466.438H374.93V452.219H376.836ZM376.102 476.797V478.391H366.039V471.406H375.992V473.016H368.008V476.797H376.102ZM377.523 481.062V482.703H364.508V481.062H377.523Z" fill="white"/>
<path d="M396.805 398.219V412.438H394.914V405.297H393.539V411.75H391.711V398.453H393.539V403.703H394.914V398.219H396.805ZM390.211 399.859V401.469H386.914V407.531C388.289 407.523 389.508 407.453 390.883 407.203L391.023 408.828C389.289 409.156 387.773 409.203 385.898 409.219H384.914V399.859H390.211ZM397.523 427.266V428.859H384.508V427.266H387.742V424.562H385.586V422.953H387.492V418.953H385.523V417.359H396.43V418.953H394.43V422.953H396.367V424.562H394.227V427.266H397.523ZM389.492 422.953H392.461V418.953H389.492V422.953ZM389.742 427.266H392.227V424.562H389.742V427.266ZM396.414 434.219V448.469H394.398V434.219H396.414ZM388.695 435.219C390.836 435.219 392.43 437.188 392.43 440.281C392.43 443.406 390.836 445.359 388.695 445.359C386.508 445.359 384.914 443.406 384.93 440.281C384.914 437.188 386.508 435.219 388.695 435.219ZM388.695 437.016C387.586 437.016 386.852 438.172 386.852 440.281C386.852 442.406 387.586 443.547 388.695 443.547C389.773 443.547 390.508 442.406 390.508 440.281C390.508 438.172 389.773 437.016 388.695 437.016ZM389.742 455.438C389.727 457.984 390.82 460.562 393.102 461.656L391.898 463.25C390.375 462.5 389.352 461.094 388.758 459.375C388.141 461.219 387.039 462.727 385.43 463.516L384.195 461.906C386.602 460.797 387.742 458.078 387.742 455.438V453.312H389.742V455.438ZM395.727 452.219V457.703H397.82V459.391H395.727V466.438H393.727V452.219H395.727Z" fill="white"/>
<rect x="430" y="368" width="74" height="182" rx="8" fill="#2F75FF"/>
<path d="M463.508 404.938V406.5H450.508V404.938H456.039V403.719H452.086V398.844H461.945V400.391H454.07V402.156H462.023V403.719H457.992V404.938H463.508ZM456.977 407.219C460.055 407.219 461.914 408.156 461.93 409.844C461.914 411.5 460.055 412.453 456.977 412.453C453.867 412.453 451.992 411.5 451.992 409.844C451.992 408.156 453.867 407.219 456.977 407.219ZM456.977 408.734C455.008 408.734 454.008 409.109 454.023 409.844C454.008 410.594 455.008 410.938 456.977 410.938C458.898 410.938 459.914 410.594 459.93 409.844C459.914 409.109 458.898 408.734 456.977 408.734ZM454.336 417.219C456.508 417.219 458.07 419.188 458.086 422.281C458.07 425.406 456.508 427.359 454.336 427.359C452.164 427.359 450.57 425.406 450.586 422.281C450.57 419.188 452.164 417.219 454.336 417.219ZM454.336 419.016C453.242 419.016 452.508 420.172 452.508 422.281C452.508 424.406 453.242 425.547 454.336 425.547C455.445 425.547 456.164 424.406 456.18 422.281C456.164 420.172 455.445 419.016 454.336 419.016ZM461.727 416.219V421.578H463.82V423.234H461.727V430.438H459.727V416.219H461.727ZM456.992 434.953C460.055 434.953 462.336 436.5 462.352 438.844C462.336 440.984 460.531 442.43 457.977 442.719V445.141H463.523V446.781H450.508V445.141H455.992V442.703C453.445 442.43 451.648 440.977 451.648 438.844C451.648 436.5 453.93 434.953 456.992 434.953ZM456.992 436.547C455.008 436.547 453.617 437.422 453.617 438.844C453.617 440.344 455.008 441.188 456.992 441.188C458.992 441.188 460.367 440.344 460.383 438.844C460.367 437.422 458.992 436.547 456.992 436.547ZM463.523 463.172V464.781H450.508V463.172H463.523ZM462.383 454.203V455.812H458.039C458.195 457.523 459.828 459.273 463.055 459.703L462.289 461.297C459.766 460.906 457.945 459.773 456.992 458.219C456.047 459.773 454.234 460.906 451.711 461.297L450.961 459.703C454.172 459.273 455.805 457.523 455.977 455.812H451.633V454.203H456.008V452.438H457.992V454.203H462.383ZM457.93 471.578C457.914 475.969 456.852 479.625 451.539 482.281L450.445 480.781C452.82 479.602 454.234 478.281 455.039 476.703L450.836 477.094L450.586 475.391L455.648 475.078C455.789 474.484 455.891 473.844 455.945 473.172H451.336V471.578H457.93ZM461.727 470.219V475.672H463.742V477.312H461.727V484.406H459.727V470.219H461.727Z" fill="white"/>
<path d="M482.805 398.219V412.438H480.914V405.297H479.539V411.75H477.711V398.453H479.539V403.703H480.914V398.219H482.805ZM476.211 399.859V401.469H472.914V407.531C474.289 407.523 475.508 407.453 476.883 407.203L477.023 408.828C475.289 409.156 473.773 409.203 471.898 409.219H470.914V399.859H476.211ZM483.523 427.266V428.859H470.508V427.266H473.742V424.562H471.586V422.953H473.492V418.953H471.523V417.359H482.43V418.953H480.43V422.953H482.367V424.562H480.227V427.266H483.523ZM475.492 422.953H478.461V418.953H475.492V422.953ZM475.742 427.266H478.227V424.562H475.742V427.266ZM482.414 434.219V448.469H480.398V434.219H482.414ZM474.695 435.219C476.836 435.219 478.43 437.188 478.43 440.281C478.43 443.406 476.836 445.359 474.695 445.359C472.508 445.359 470.914 443.406 470.93 440.281C470.914 437.188 472.508 435.219 474.695 435.219ZM474.695 437.016C473.586 437.016 472.852 438.172 472.852 440.281C472.852 442.406 473.586 443.547 474.695 443.547C475.773 443.547 476.508 442.406 476.508 440.281C476.508 438.172 475.773 437.016 474.695 437.016ZM475.742 455.438C475.727 457.984 476.82 460.562 479.102 461.656L477.898 463.25C476.375 462.5 475.352 461.094 474.758 459.375C474.141 461.219 473.039 462.727 471.43 463.516L470.195 461.906C472.602 460.797 473.742 458.078 473.742 455.438V453.312H475.742V455.438ZM481.727 452.219V457.703H483.82V459.391H481.727V466.438H479.727V452.219H481.727Z" fill="white"/>
<rect x="516" y="368" width="74" height="182" rx="8" fill="#2F75FF"/>
<path d="M549.477 404.953V406.547H536.508V404.953H539.43V403.25C538.391 402.789 537.805 402.086 537.805 401.172C537.805 399.453 539.82 398.422 542.992 398.422C546.133 398.422 548.148 399.453 548.164 401.172C548.156 402.094 547.547 402.812 546.492 403.266V404.953H549.477ZM542.977 407.297C546.055 407.297 547.914 408.203 547.93 409.844C547.914 411.516 546.055 412.422 542.977 412.422C539.852 412.422 537.992 411.516 537.992 409.844C537.992 408.203 539.852 407.297 542.977 407.297ZM542.977 408.797C541.008 408.797 540.008 409.141 540.023 409.844C540.008 410.578 541.008 410.938 542.977 410.938C544.898 410.938 545.914 410.578 545.93 409.844C545.914 409.141 544.898 408.797 542.977 408.797ZM542.992 399.953C540.977 399.953 539.867 400.375 539.883 401.172C539.867 401.953 540.977 402.344 542.992 402.344C544.977 402.344 546.102 401.953 546.102 401.172C546.102 400.375 544.977 399.953 542.992 399.953ZM541.445 404.953H544.508V403.766C544.039 403.82 543.531 403.844 542.992 403.844C542.438 403.844 541.922 403.82 541.445 403.75V404.953ZM543.789 417.562V426.969H536.961V417.562H543.789ZM538.93 419.125V425.391H541.805V419.125H538.93ZM547.727 416.219V421.578H549.82V423.234H547.727V430.438H545.727V416.219H547.727ZM549.523 445.219V446.859H536.508V445.219H541.992V443.078H538.008V438.297H546.055V436.734H537.992V435.141H548.023V439.859H540.008V441.453H548.352V443.078H543.977V445.219H549.523ZM542.023 456.094C542.023 458.391 543.195 460.844 545.586 461.844L544.508 463.406C542.828 462.695 541.672 461.281 541.039 459.547C540.391 461.43 539.211 462.992 537.539 463.766L536.398 462.188C538.758 461.141 539.977 458.5 539.977 456.094V455.219H536.961V453.594H544.992V455.219H542.023V456.094ZM548.414 452.219V466.438H546.398V452.219H548.414ZM543.992 472.094C543.992 474.172 545.836 476.406 549.055 476.953L548.18 478.609C545.703 478.117 543.859 476.727 542.945 474.891C542 476.711 540.156 478.109 537.695 478.609L536.836 476.953C539.992 476.391 541.852 474.156 541.867 472.094V471.062H543.992V472.094ZM549.523 481.047V482.688H536.508V481.047H549.523Z" fill="white"/>
<path d="M568.805 398.219V412.438H566.914V405.297H565.539V411.75H563.711V398.453H565.539V403.703H566.914V398.219H568.805ZM562.211 399.859V401.469H558.914V407.531C560.289 407.523 561.508 407.453 562.883 407.203L563.023 408.828C561.289 409.156 559.773 409.203 557.898 409.219H556.914V399.859H562.211ZM569.523 427.266V428.859H556.508V427.266H559.742V424.562H557.586V422.953H559.492V418.953H557.523V417.359H568.43V418.953H566.43V422.953H568.367V424.562H566.227V427.266H569.523ZM561.492 422.953H564.461V418.953H561.492V422.953ZM561.742 427.266H564.227V424.562H561.742V427.266ZM568.414 434.219V448.469H566.398V434.219H568.414ZM560.695 435.219C562.836 435.219 564.43 437.188 564.43 440.281C564.43 443.406 562.836 445.359 560.695 445.359C558.508 445.359 556.914 443.406 556.93 440.281C556.914 437.188 558.508 435.219 560.695 435.219ZM560.695 437.016C559.586 437.016 558.852 438.172 558.852 440.281C558.852 442.406 559.586 443.547 560.695 443.547C561.773 443.547 562.508 442.406 562.508 440.281C562.508 438.172 561.773 437.016 560.695 437.016ZM561.742 455.438C561.727 457.984 562.82 460.562 565.102 461.656L563.898 463.25C562.375 462.5 561.352 461.094 560.758 459.375C560.141 461.219 559.039 462.727 557.43 463.516L556.195 461.906C558.602 460.797 559.742 458.078 559.742 455.438V453.312H561.742V455.438ZM567.727 452.219V457.703H569.82V459.391H567.727V466.438H565.727V452.219H567.727Z" fill="white"/>
<rect x="602" y="368" width="74" height="182" rx="8" fill="#2F75FF"/>
<path d="M630.055 399.328C630.055 401 631.758 402.859 635.023 403.266L634.242 404.875C631.758 404.516 629.938 403.367 629.008 401.828C628.07 403.367 626.266 404.516 623.805 404.875L623.008 403.266C626.242 402.859 627.961 401 627.961 399.328V398.641H630.055V399.328ZM635.477 405.953V407.578H629.945V412.438H627.977V407.578H622.508V405.953H635.477ZM627.836 418.438C627.82 420.203 628.82 421.922 631.07 422.641L630.008 424.219C628.477 423.703 627.438 422.68 626.836 421.391C626.203 422.797 625.102 423.898 623.492 424.469L622.414 422.875C624.789 422.109 625.805 420.25 625.82 418.312V416.953H627.836V418.438ZM634.492 425.328V430.438H632.508V426.906H624.727V425.328H634.492ZM634.492 416.219V424.688H632.508V420.5H629.836V418.859H632.508V416.219H634.492Z" fill="white"/>
<path d="M654.805 398.219V412.438H652.914V405.297H651.539V411.75H649.711V398.453H651.539V403.703H652.914V398.219H654.805ZM648.211 399.859V401.469H644.914V407.531C646.289 407.523 647.508 407.453 648.883 407.203L649.023 408.828C647.289 409.156 645.773 409.203 643.898 409.219H642.914V399.859H648.211ZM655.523 427.266V428.859H642.508V427.266H645.742V424.562H643.586V422.953H645.492V418.953H643.523V417.359H654.43V418.953H652.43V422.953H654.367V424.562H652.227V427.266H655.523ZM647.492 422.953H650.461V418.953H647.492V422.953ZM647.742 427.266H650.227V424.562H647.742V427.266ZM654.414 434.219V448.469H652.398V434.219H654.414ZM646.695 435.219C648.836 435.219 650.43 437.188 650.43 440.281C650.43 443.406 648.836 445.359 646.695 445.359C644.508 445.359 642.914 443.406 642.93 440.281C642.914 437.188 644.508 435.219 646.695 435.219ZM646.695 437.016C645.586 437.016 644.852 438.172 644.852 440.281C644.852 442.406 645.586 443.547 646.695 443.547C647.773 443.547 648.508 442.406 648.508 440.281C648.508 438.172 647.773 437.016 646.695 437.016ZM647.742 455.438C647.727 457.984 648.82 460.562 651.102 461.656L649.898 463.25C648.375 462.5 647.352 461.094 646.758 459.375C646.141 461.219 645.039 462.727 643.43 463.516L642.195 461.906C644.602 460.797 645.742 458.078 645.742 455.438V453.312H647.742V455.438ZM653.727 452.219V457.703H655.82V459.391H653.727V466.438H651.727V452.219H653.727Z" fill="white"/>
<rect x="688" y="368" width="74" height="182" rx="8" fill="#2F75FF"/>
<path d="M719.789 398.234V402.594H721.711V404.219H719.789V408.844H717.789V398.234H719.789ZM716.945 399.719V401.297H708.508V399.719H711.742V398.203H713.727V399.719H716.945ZM712.727 401.797C714.789 401.797 716.227 402.906 716.227 404.547C716.227 406.188 714.789 407.266 712.727 407.266C710.648 407.266 709.195 406.188 709.195 404.547C709.195 402.906 710.648 401.797 712.727 401.797ZM712.727 403.312C711.773 403.328 711.133 403.766 711.148 404.547C711.133 405.328 711.773 405.75 712.727 405.75C713.68 405.75 714.336 405.328 714.336 404.547C714.336 403.766 713.68 403.328 712.727 403.312ZM720.305 410.594V412.188H710.57V408.031H712.555V410.594H720.305ZM719.977 416.844V417.953C719.977 419 719.977 420.203 719.695 421.734H721.523V423.328H715.992V425.375H719.992V430.438H717.992V426.938H709.82V425.375H713.992V423.328H708.508V421.734H717.68C717.945 420.406 717.984 419.359 717.992 418.422H710.102V416.844H719.977ZM720.414 434.234V444.609H718.414V434.234H720.414ZM720.789 446.594V448.188H710.883V443.609H712.898V446.594H720.789ZM713.961 436.391C713.945 438.266 714.945 440.109 717.289 440.859L716.273 442.422C714.672 441.891 713.562 440.828 712.93 439.469C712.297 440.93 711.156 442.102 709.492 442.672L708.461 441.094C710.852 440.297 711.883 438.312 711.883 436.391V435.016H713.961V436.391ZM721.508 458.938V460.5H708.508V458.938H714.039V457.719H710.086V452.844H719.945V454.391H712.07V456.156H720.023V457.719H715.992V458.938H721.508ZM714.977 461.219C718.055 461.219 719.914 462.156 719.93 463.844C719.914 465.5 718.055 466.453 714.977 466.453C711.867 466.453 709.992 465.5 709.992 463.844C709.992 462.156 711.867 461.219 714.977 461.219ZM714.977 462.734C713.008 462.734 712.008 463.109 712.023 463.844C712.008 464.594 713.008 464.938 714.977 464.938C716.898 464.938 717.914 464.594 717.93 463.844C717.914 463.109 716.898 462.734 714.977 462.734ZM714.914 479.078C718.023 479.078 719.977 480.062 719.992 481.766C719.977 483.438 718.023 484.438 714.914 484.438C711.836 484.438 709.852 483.438 709.852 481.766C709.852 480.062 711.836 479.078 714.914 479.078ZM714.914 480.562C712.961 480.562 711.836 480.969 711.836 481.766C711.836 482.531 712.961 482.922 714.914 482.922C716.867 482.922 718.008 482.531 718.008 481.766C718.008 480.969 716.867 480.562 714.914 480.562ZM719.914 470.859V472.016C719.914 473.141 719.914 474.359 719.508 475.828L717.555 475.641C717.867 474.352 717.906 473.391 717.93 472.422H709.992V470.859H719.914ZM721.445 476.562V478.172H708.539V476.562H713.383V474.078H715.352V476.562H721.445ZM712.477 488.828C714.297 488.812 715.742 489.852 716.133 491.375H718.508V488.219H720.492V495.859H718.508V492.969H716.148C715.773 494.531 714.312 495.594 712.477 495.594C710.289 495.594 708.68 494.172 708.695 492.188C708.68 490.234 710.289 488.812 712.477 488.828ZM712.477 490.484C711.367 490.469 710.57 491.125 710.586 492.188C710.57 493.25 711.367 493.922 712.477 493.922C713.555 493.922 714.336 493.25 714.336 492.188C714.336 491.125 713.555 490.469 712.477 490.484ZM712.977 496.484V497.859H718.508V496.484H720.492V502.281H711.008V496.484H712.977ZM712.977 500.672H718.508V499.391H712.977V500.672Z" fill="white"/>
<path d="M740.805 398.219V412.438H738.914V405.297H737.539V411.75H735.711V398.453H737.539V403.703H738.914V398.219H740.805ZM734.211 399.859V401.469H730.914V407.531C732.289 407.523 733.508 407.453 734.883 407.203L735.023 408.828C733.289 409.156 731.773 409.203 729.898 409.219H728.914V399.859H734.211ZM741.523 427.266V428.859H728.508V427.266H731.742V424.562H729.586V422.953H731.492V418.953H729.523V417.359H740.43V418.953H738.43V422.953H740.367V424.562H738.227V427.266H741.523ZM733.492 422.953H736.461V418.953H733.492V422.953ZM733.742 427.266H736.227V424.562H733.742V427.266ZM740.414 434.219V448.469H738.398V434.219H740.414ZM732.695 435.219C734.836 435.219 736.43 437.188 736.43 440.281C736.43 443.406 734.836 445.359 732.695 445.359C730.508 445.359 728.914 443.406 728.93 440.281C728.914 437.188 730.508 435.219 732.695 435.219ZM732.695 437.016C731.586 437.016 730.852 438.172 730.852 440.281C730.852 442.406 731.586 443.547 732.695 443.547C733.773 443.547 734.508 442.406 734.508 440.281C734.508 438.172 733.773 437.016 732.695 437.016ZM733.742 455.438C733.727 457.984 734.82 460.562 737.102 461.656L735.898 463.25C734.375 462.5 733.352 461.094 732.758 459.375C732.141 461.219 731.039 462.727 729.43 463.516L728.195 461.906C730.602 460.797 731.742 458.078 731.742 455.438V453.312H733.742V455.438ZM739.727 452.219V457.703H741.82V459.391H739.727V466.438H737.727V452.219H739.727Z" fill="white"/>
<rect x="774" y="368" width="74" height="182" rx="8" fill="#2F75FF"/>
<path d="M807.508 404.938V406.5H794.508V404.938H800.039V403.719H796.086V398.844H805.945V400.391H798.07V402.156H806.023V403.719H801.992V404.938H807.508ZM800.977 407.219C804.055 407.219 805.914 408.156 805.93 409.844C805.914 411.5 804.055 412.453 800.977 412.453C797.867 412.453 795.992 411.5 795.992 409.844C795.992 408.156 797.867 407.219 800.977 407.219ZM800.977 408.734C799.008 408.734 798.008 409.109 798.023 409.844C798.008 410.594 799.008 410.938 800.977 410.938C802.898 410.938 803.914 410.594 803.93 409.844C803.914 409.109 802.898 408.734 800.977 408.734ZM799.742 419.562C799.742 421.156 800.789 422.797 803.102 423.5L802.148 425.047C800.555 424.594 799.43 423.617 798.789 422.375C798.156 423.719 797.023 424.773 795.383 425.281L794.414 423.719C796.727 423.031 797.758 421.297 797.758 419.562V419.453H794.898V417.891H797.758V416.312H799.773V417.891H802.617V419.453H799.742V419.562ZM806.492 416.234V426.781H804.508V421.984H802.148V420.375H804.508V416.234H806.492ZM806.836 428.594V430.188H797.055V425.875H799.055V428.594H806.836ZM802.055 435.328C802.055 437 803.758 438.859 807.023 439.266L806.242 440.875C803.758 440.516 801.938 439.367 801.008 437.828C800.07 439.367 798.266 440.516 795.805 440.875L795.008 439.266C798.242 438.859 799.961 437 799.961 435.328V434.641H802.055V435.328ZM807.477 441.953V443.578H801.945V448.438H799.977V443.578H794.508V441.953H807.477Z" fill="white"/>
<path d="M826.805 398.219V412.438H824.914V405.297H823.539V411.75H821.711V398.453H823.539V403.703H824.914V398.219H826.805ZM820.211 399.859V401.469H816.914V407.531C818.289 407.523 819.508 407.453 820.883 407.203L821.023 408.828C819.289 409.156 817.773 409.203 815.898 409.219H814.914V399.859H820.211ZM827.523 427.266V428.859H814.508V427.266H817.742V424.562H815.586V422.953H817.492V418.953H815.523V417.359H826.43V418.953H824.43V422.953H826.367V424.562H824.227V427.266H827.523ZM819.492 422.953H822.461V418.953H819.492V422.953ZM819.742 427.266H822.227V424.562H819.742V427.266ZM826.414 434.219V448.469H824.398V434.219H826.414ZM818.695 435.219C820.836 435.219 822.43 437.188 822.43 440.281C822.43 443.406 820.836 445.359 818.695 445.359C816.508 445.359 814.914 443.406 814.93 440.281C814.914 437.188 816.508 435.219 818.695 435.219ZM818.695 437.016C817.586 437.016 816.852 438.172 816.852 440.281C816.852 442.406 817.586 443.547 818.695 443.547C819.773 443.547 820.508 442.406 820.508 440.281C820.508 438.172 819.773 437.016 818.695 437.016ZM819.742 455.438C819.727 457.984 820.82 460.562 823.102 461.656L821.898 463.25C820.375 462.5 819.352 461.094 818.758 459.375C818.141 461.219 817.039 462.727 815.43 463.516L814.195 461.906C816.602 460.797 817.742 458.078 817.742 455.438V453.312H819.742V455.438ZM825.727 452.219V457.703H827.82V459.391H825.727V466.438H823.727V452.219H825.727Z" fill="white"/>
<rect x="860" y="368" width="74" height="182" rx="8" fill="#2F75FF"/>
<path d="M884.336 399.219C886.508 399.219 888.07 401.188 888.086 404.281C888.07 407.406 886.508 409.359 884.336 409.359C882.164 409.359 880.57 407.406 880.586 404.281C880.57 401.188 882.164 399.219 884.336 399.219ZM884.336 401.016C883.242 401.016 882.508 402.172 882.508 404.281C882.508 406.406 883.242 407.547 884.336 407.547C885.445 407.547 886.164 406.406 886.18 404.281C886.164 402.172 885.445 401.016 884.336 401.016ZM891.727 398.219V403.578H893.82V405.234H891.727V412.438H889.727V398.219H891.727ZM892.727 416.219V426.969H890.836V416.219H892.727ZM889.836 416.438V426.516H887.961V421.75H886.68V424.5H881.008V417.312H882.898V419.484H884.836V417.312H886.68V420.156H887.961V416.438H889.836ZM882.898 422.891H884.836V421H882.898V422.891ZM893.086 428.594V430.188H883.086V425.547H885.086V428.594H893.086ZM887.961 439.312V441.016H893.477V442.625H880.508V441.016H885.992V439.312H887.961ZM886.977 443.406C890.07 443.406 891.914 444.297 891.93 445.922C891.914 447.547 890.07 448.438 886.977 448.438C883.852 448.438 881.992 447.547 881.992 445.922C881.992 444.297 883.852 443.406 886.977 443.406ZM886.977 444.922C884.992 444.922 884.008 445.25 884.023 445.922C884.008 446.625 884.992 446.953 886.977 446.953C888.914 446.953 889.914 446.625 889.93 445.922C889.914 445.25 888.914 444.922 886.977 444.922ZM892.305 434.828V436.391H888.445C888.797 437.367 890.25 438.32 892.914 438.562L892.211 440.125C889.531 439.859 887.734 438.867 886.977 437.484C886.219 438.859 884.445 439.859 881.773 440.125L881.07 438.562C883.719 438.32 885.18 437.383 885.539 436.391H881.695V434.828H892.305ZM891.789 452.219V455.641H893.711V457.297H891.789V460.547H889.789V452.219H891.789ZM884.461 461.094V462.172H889.789V461.094H891.789V466.281H882.477V461.094H884.461ZM884.461 464.719H889.789V463.703H884.461V464.719ZM888.945 453.469V455.031H880.508V453.469H883.742V452.125H885.727V453.469H888.945ZM884.727 455.438C886.789 455.438 888.227 456.438 888.227 457.953C888.227 459.469 886.789 460.469 884.727 460.469C882.633 460.469 881.195 459.469 881.195 457.953C881.195 456.438 882.633 455.438 884.727 455.438ZM884.727 456.906C883.773 456.891 883.133 457.281 883.148 457.953C883.133 458.641 883.773 459.016 884.727 459.016C885.68 459.016 886.336 458.641 886.336 457.953C886.336 457.281 885.68 456.891 884.727 456.906ZM892.492 470.234V480.625H890.508V475.984H887.961V474.344H890.508V470.234H892.492ZM888.086 471.281C888.086 475.094 885.664 477.906 881.508 479.203L880.695 477.625C883.641 476.703 885.539 475.008 885.914 472.906H881.43V471.281H888.086ZM892.852 482.594V484.188H883.117V479.578H885.148V482.594H892.852ZM892.492 488.219V495.453H890.508V491.922H887.836V490.344H890.508V488.219H892.492ZM892.492 496.047V499.844H885.023V500.719H892.898V502.281H883.055V498.391H890.523V497.578H883.039V496.047H892.492ZM885.836 489.719C885.82 491.422 886.82 493.062 889.086 493.734L888.039 495.266C886.516 494.773 885.453 493.82 884.836 492.594C884.219 493.961 883.094 495.039 881.43 495.562L880.398 493.984C882.758 493.297 883.805 491.562 883.82 489.719V488.688H885.836V489.719Z" fill="white"/>
<path d="M912.805 398.219V412.438H910.914V405.297H909.539V411.75H907.711V398.453H909.539V403.703H910.914V398.219H912.805ZM906.211 399.859V401.469H902.914V407.531C904.289 407.523 905.508 407.453 906.883 407.203L907.023 408.828C905.289 409.156 903.773 409.203 901.898 409.219H900.914V399.859H906.211ZM913.523 427.266V428.859H900.508V427.266H903.742V424.562H901.586V422.953H903.492V418.953H901.523V417.359H912.43V418.953H910.43V422.953H912.367V424.562H910.227V427.266H913.523ZM905.492 422.953H908.461V418.953H905.492V422.953ZM905.742 427.266H908.227V424.562H905.742V427.266ZM912.414 434.219V448.469H910.398V434.219H912.414ZM904.695 435.219C906.836 435.219 908.43 437.188 908.43 440.281C908.43 443.406 906.836 445.359 904.695 445.359C902.508 445.359 900.914 443.406 900.93 440.281C900.914 437.188 902.508 435.219 904.695 435.219ZM904.695 437.016C903.586 437.016 902.852 438.172 902.852 440.281C902.852 442.406 903.586 443.547 904.695 443.547C905.773 443.547 906.508 442.406 906.508 440.281C906.508 438.172 905.773 437.016 904.695 437.016ZM905.742 455.438C905.727 457.984 906.82 460.562 909.102 461.656L907.898 463.25C906.375 462.5 905.352 461.094 904.758 459.375C904.141 461.219 903.039 462.727 901.43 463.516L900.195 461.906C902.602 460.797 903.742 458.078 903.742 455.438V453.312H905.742V455.438ZM911.727 452.219V457.703H913.82V459.391H911.727V466.438H909.727V452.219H911.727Z" fill="white"/>
<rect x="946" y="368" width="74" height="182" rx="8" fill="#2F75FF"/>
<path d="M972.328 411H968.344V399.688H972.375C975.781 399.688 977.859 401.812 977.859 405.328C977.859 408.875 975.781 411 972.328 411ZM970.688 408.984H972.234C974.391 408.984 975.516 407.859 975.516 405.328C975.516 402.812 974.391 401.703 972.25 401.703H970.688V408.984ZM970.102 429H967.57L971.492 417.688H974.508L978.414 429H975.898L975.055 426.391H970.961L970.102 429ZM971.555 424.562H974.461L973.039 420.234H972.961L971.555 424.562ZM978.414 434.234V444.453H976.414V434.234H978.414ZM978.789 446.594V448.188H968.883V443.422H970.898V446.594H978.789ZM970.617 435.141C972.805 435.141 974.508 436.641 974.508 438.719C974.508 440.844 972.805 442.328 970.617 442.328C968.43 442.328 966.727 440.844 966.727 438.719C966.727 436.641 968.43 435.141 970.617 435.141ZM970.617 436.875C969.508 436.859 968.664 437.562 968.68 438.719C968.664 439.906 969.508 440.594 970.617 440.594C971.695 440.594 972.539 439.906 972.539 438.719C972.539 437.562 971.695 436.859 970.617 436.875ZM979.523 463.188V464.859H966.508V463.188H971.977V460.625H967.586V459.062H969.492V455H967.523V453.406H978.43V455H976.43V459.062H978.367V460.625H973.961V463.188H979.523ZM971.492 459.062H974.461V455H971.492V459.062ZM972.57 471.688V475.391H973.992V470.422H975.867V483.781H973.992V476.984H972.57V480.859H966.914V471.688H972.57ZM968.773 473.266V479.297H970.711V473.266H968.773ZM978.836 470.219V484.438H976.93V470.219H978.836ZM978.414 488.219V502.469H976.398V488.219H978.414ZM970.695 489.219C972.836 489.219 974.43 491.188 974.43 494.281C974.43 497.406 972.836 499.359 970.695 499.359C968.508 499.359 966.914 497.406 966.93 494.281C966.914 491.188 968.508 489.219 970.695 489.219ZM970.695 491.016C969.586 491.016 968.852 492.172 968.852 494.281C968.852 496.406 969.586 497.547 970.695 497.547C971.773 497.547 972.508 496.406 972.508 494.281C972.508 492.172 971.773 491.016 970.695 491.016ZM971.836 508.672C971.836 510.641 972.805 512.594 975.055 513.422L973.945 514.969C972.453 514.383 971.43 513.266 970.852 511.859C970.227 513.359 969.125 514.531 967.508 515.141L966.445 513.578C968.773 512.75 969.82 510.75 969.82 508.672V507.031H971.836V508.672ZM978.492 506.234V516.781H976.508V512.438H974.07V510.828H976.508V509.688H974.07V508.078H976.508V506.234H978.492ZM978.789 518.594V520.188H969.023V515.766H971.039V518.594H978.789Z" fill="white"/>
<path d="M998.805 398.219V412.438H996.914V405.297H995.539V411.75H993.711V398.453H995.539V403.703H996.914V398.219H998.805ZM992.211 399.859V401.469H988.914V407.531C990.289 407.523 991.508 407.453 992.883 407.203L993.023 408.828C991.289 409.156 989.773 409.203 987.898 409.219H986.914V399.859H992.211ZM999.523 427.266V428.859H986.508V427.266H989.742V424.562H987.586V422.953H989.492V418.953H987.523V417.359H998.43V418.953H996.43V422.953H998.367V424.562H996.227V427.266H999.523ZM991.492 422.953H994.461V418.953H991.492V422.953ZM991.742 427.266H994.227V424.562H991.742V427.266ZM998.414 434.219V448.469H996.398V434.219H998.414ZM990.695 435.219C992.836 435.219 994.43 437.188 994.43 440.281C994.43 443.406 992.836 445.359 990.695 445.359C988.508 445.359 986.914 443.406 986.93 440.281C986.914 437.188 988.508 435.219 990.695 435.219ZM990.695 437.016C989.586 437.016 988.852 438.172 988.852 440.281C988.852 442.406 989.586 443.547 990.695 443.547C991.773 443.547 992.508 442.406 992.508 440.281C992.508 438.172 991.773 437.016 990.695 437.016ZM991.742 455.438C991.727 457.984 992.82 460.562 995.102 461.656L993.898 463.25C992.375 462.5 991.352 461.094 990.758 459.375C990.141 461.219 989.039 462.727 987.43 463.516L986.195 461.906C988.602 460.797 989.742 458.078 989.742 455.438V453.312H991.742V455.438ZM997.727 452.219V457.703H999.82V459.391H997.727V466.438H995.727V452.219H997.727Z" fill="white"/>
<circle cx="37" cy="368" r="4.5" fill="white" stroke="#000081" stroke-width="3"/>
<circle cx="123" cy="368" r="4.5" fill="white" stroke="#000081" stroke-width="3"/>
<circle cx="209" cy="368" r="4.5" fill="white" stroke="#000081" stroke-width="3"/>
<circle cx="295" cy="368" r="4.5" fill="white" stroke="#000081" stroke-width="3"/>
<circle cx="381" cy="368" r="4.5" fill="white" stroke="#000081" stroke-width="3"/>
<circle cx="467" cy="368" r="4.5" fill="white" stroke="#000081" stroke-width="3"/>
<circle cx="553" cy="368" r="4.5" fill="white" stroke="#000081" stroke-width="3"/>
<circle cx="639" cy="368" r="4.5" fill="white" stroke="#000081" stroke-width="3"/>
<circle cx="725" cy="368" r="4.5" fill="white" stroke="#000081" stroke-width="3"/>
<circle cx="811" cy="368" r="4.5" fill="white" stroke="#000081" stroke-width="3"/>
<circle cx="897" cy="368" r="4.5" fill="white" stroke="#000081" stroke-width="3"/>
<circle cx="983" cy="368" r="4.5" fill="white" stroke="#000081" stroke-width="3"/>
</svg>
