<svg width="1226" height="315" viewBox="0 0 1226 315" fill="none" xmlns="http://www.w3.org/2000/svg">
<path d="M180 91L1121 91.0001" stroke="#DBDBDB"/>
<path d="M205 241L205 91" stroke="#DBDBDB"/>
<circle cx="92" cy="88" r="88" fill="#000081"/>
<path d="M49.4844 97.1406V98.3281H36.7031V97.1406H42.375V95.6562H38.2969V90.9688H47.9062V92.1406H39.7656V94.4688H48V95.6562H43.8125V97.1406H49.4844ZM43.0781 99.2344C46.0938 99.2344 47.9062 100.156 47.9062 101.781C47.9062 103.406 46.0938 104.312 43.0781 104.328C40.0469 104.312 38.2188 103.406 38.2188 101.781C38.2188 100.156 40.0469 99.2344 43.0781 99.2344ZM43.0781 100.391C40.9375 100.391 39.7188 100.891 39.7188 101.781C39.7188 102.672 40.9375 103.172 43.0781 103.156C45.1875 103.172 46.4219 102.672 46.4219 101.781C46.4219 100.891 45.1875 100.391 43.0781 100.391ZM54.2812 91.375C56.375 91.375 57.8594 93.2812 57.875 96.2812C57.8594 99.2969 56.375 101.203 54.2812 101.203C52.1875 101.203 50.6875 99.2969 50.7031 96.2812C50.6875 93.2812 52.1875 91.375 54.2812 91.375ZM54.2812 92.7031C53 92.7031 52.125 94.0781 52.125 96.2812C52.125 98.5 53 99.875 54.2812 99.875C55.5781 99.875 56.4531 98.5 56.4531 96.2812C56.4531 94.0781 55.5781 92.7031 54.2812 92.7031ZM61.4375 90.3281V95.8125H63.6875V97.0625H61.4375V104.328H59.9531V90.3281H61.4375ZM68.6875 92.9688C68.6719 94.1406 69.3281 95.625 70.7344 96.5156C72.1328 95.6406 72.7812 94.1875 72.7812 92.9688V91.3594H74.2812V92.9688C74.2656 94.5938 75.2344 96.2188 77.0781 96.9062L76.3125 98.0312C74.9297 97.4688 73.9922 96.4297 73.5 95.1562C73.0312 96.375 72.1406 97.4688 70.7344 98.0156C69.3203 97.4531 68.4141 96.3438 67.9375 95.125C67.4531 96.3828 66.5391 97.4688 65.1875 98.0312L64.3906 96.9062C66.2188 96.1875 67.2031 94.4844 67.2188 92.9688V91.3594H68.6875V92.9688ZM77.1562 101.344V102.578H64.3594V101.344H70V98.5312H71.4688V101.344H77.1562ZM83.3281 93.8906C83.3125 96.4531 84.8594 99.0156 87.0312 99.9844L86.1406 101.156C84.5312 100.391 83.2578 98.8203 82.6094 96.9062C81.9531 98.9531 80.6641 100.648 78.9844 101.469L78.0781 100.219C80.2812 99.2344 81.8281 96.5625 81.8281 93.8906V91.5H83.3281V93.8906ZM89.7812 90.3281V104.359H88.2969V90.3281H89.7812ZM98.3906 91.1719C101.391 91.1875 103.562 92.6562 103.562 94.8906C103.562 96.9922 101.742 98.375 99.125 98.5938V101.344H104.828V102.578H92.0156V101.344H97.6562V98.5938C95.0547 98.375 93.2344 96.9922 93.2344 94.8906C93.2344 92.6562 95.4062 91.1875 98.3906 91.1719ZM98.3906 92.3906C96.2344 92.375 94.6719 93.375 94.6719 94.8906C94.6719 96.4688 96.2344 97.4375 98.3906 97.4531C100.562 97.4375 102.125 96.4688 102.125 94.8906C102.125 93.375 100.562 92.375 98.3906 92.3906ZM117.891 91.25V92.3281H106.5V91.25H111.484V90.125H112.969V91.25H117.891ZM112.219 92.8281C115.219 92.8281 116.812 93.4062 116.812 94.625C116.812 95.7344 115.484 96.3203 112.969 96.4062V97.2812H118.609V98.3594H105.844V97.2812H111.484V96.4062C108.945 96.3203 107.609 95.7422 107.625 94.625C107.609 93.4062 109.203 92.8281 112.219 92.8281ZM112.219 93.8125C110.172 93.8125 109.203 94.0781 109.203 94.625C109.203 95.1719 110.172 95.4531 112.219 95.4531C114.25 95.4531 115.25 95.1719 115.266 94.625C115.25 94.0781 114.25 93.8125 112.219 93.8125ZM117 99.1719V102.125H108.891V103.109H117.391V104.188H107.391V101.109H115.484V100.219H107.375V99.1719H117ZM131.281 90.3281V98.8594H129.797V90.3281H131.281ZM127.172 91.4062V92.6094H121.984V96.4531C124.883 96.4453 126.562 96.3438 128.484 95.9688L128.625 97.1875C126.594 97.5781 124.828 97.6562 121.688 97.6562H120.516V91.4062H127.172ZM126.578 98.9219C129.5 98.9062 131.328 99.9219 131.328 101.625C131.328 103.328 129.5 104.312 126.578 104.328C123.625 104.312 121.812 103.328 121.812 101.625C121.812 99.9219 123.625 98.9062 126.578 98.9219ZM126.578 100.094C124.516 100.094 123.312 100.641 123.312 101.625C123.312 102.578 124.516 103.141 126.578 103.141C128.641 103.141 129.859 102.578 129.859 101.625C129.859 100.641 128.641 100.094 126.578 100.094ZM140.609 92.3125C140.609 94.5938 143.047 96.75 145.734 97.2344L145.047 98.4688C142.812 97.9844 140.75 96.5156 139.844 94.5469C138.922 96.5 136.867 97.9688 134.625 98.4688L133.969 97.2344C136.625 96.7344 139.047 94.5938 139.047 92.3125V91.25H140.609V92.3125ZM146.312 101.25V102.484H133.5V101.25H146.312ZM76.375 114.328V128.328H74.9531V121.094H73.1406V127.609H71.7812V114.609H73.1406V119.875H74.9531V114.328H76.375ZM70.0781 116.016V117.219H66.3125V123.703C68.0312 123.688 69.3281 123.609 70.8281 123.328L70.9375 124.547C69.25 124.891 67.8125 124.953 65.7656 124.969H64.8281V116.016H70.0781ZM91 125.453V126.672H78.1875V125.453H81.625V122.344H79.3125V121.141H81.4062V116.781H79.2812V115.562H89.8281V116.781H87.6875V121.141H89.7812V122.344H87.4844V125.453H91ZM82.875 121.141H86.2344V116.781H82.875V121.141ZM83.1094 125.453H86V122.344H83.1094V125.453ZM103.609 114.328V128.359H102.125V114.328H103.609ZM96.125 115.375C98.2031 115.375 99.7344 117.281 99.7344 120.281C99.7344 123.297 98.2031 125.203 96.125 125.203C94.0156 125.203 92.5 123.297 92.5 120.281C92.5 117.281 94.0156 115.375 96.125 115.375ZM96.125 116.703C94.8281 116.703 93.9375 118.078 93.9375 120.281C93.9375 122.5 94.8281 123.875 96.125 123.875C97.4062 123.875 98.2969 122.5 98.2969 120.281C98.2969 118.078 97.4062 116.703 96.125 116.703ZM110.703 117.891C110.688 120.375 112.125 122.906 114.219 123.922L113.297 125.109C111.773 124.32 110.594 122.75 109.984 120.875C109.352 122.875 108.125 124.547 106.531 125.375L105.609 124.172C107.766 123.141 109.219 120.453 109.219 117.891V115.5H110.703V117.891ZM116.75 114.328V119.906H119V121.172H116.75V128.328H115.266V114.328H116.75Z" fill="white"/>
<path d="M86.441 74.7733C86.441 74.7733 86.5587 68.6356 85.7901 66.3522C85.0058 64.0687 84.1431 60.3845 78.363 56.5464C76.3474 55.2023 75.6808 55.3237 75.4769 55.4452C75.2652 55.5666 74.9514 56.1253 75.0063 58.595C75.0691 61.0728 74.8887 67.8663 77.7042 70.8623C80.5198 73.8583 82.7001 74.5709 86.441 74.7733Z" fill="white"/>
<path d="M91.0226 58.5768C95.5478 51.1031 102.355 48.4715 103.1 48.2367C103.743 48.0423 104.065 47.8237 104.12 47.2731C104.183 46.7468 103.351 45.6132 100.951 44.4391C97.6732 42.8277 91.0226 43.0058 91.0226 43.0058C91.0226 43.0058 84.3798 42.8277 81.1015 44.4391C78.7017 45.6132 77.8625 46.7468 77.9252 47.2731C77.988 47.8237 78.2939 48.0342 78.9448 48.2367C79.682 48.4715 86.5052 51.1031 91.0226 58.5768Z" fill="white"/>
<path d="M91.0014 75.0012C92.1935 75.0012 93.2836 74.9446 94.2875 74.8798C94.2875 74.8798 94.4051 69.3575 94.0757 67.3089C93.715 65.0254 92.9542 61.4222 91.0014 58.6367C89.0642 61.4141 88.2956 65.0254 87.9349 67.3089C87.6133 69.3575 87.731 74.8798 87.731 74.8798C88.727 74.9527 89.825 75.0012 91.0014 75.0012Z" fill="white"/>
<path d="M95.5573 74.7733C95.5573 74.7733 95.4396 68.6356 96.2161 66.3522C97.0003 64.0687 97.8709 60.3845 103.643 56.5464C105.659 55.2023 106.325 55.3237 106.529 55.4452C106.741 55.5666 107.055 56.1253 106.992 58.595C106.937 61.0728 107.117 67.8663 104.302 70.8623C101.486 73.8583 99.3061 74.5709 95.5573 74.7733Z" fill="white"/>
<path d="M77.0012 50.0681C76.5933 49.9872 76.3188 49.5661 76.3188 49.1127C76.3188 48.562 76.7502 48.1167 77.2757 48.1167C77.3619 48.1167 77.5345 48.141 77.66 48.2058C77.66 48.2058 81.997 50.2382 84.7341 53.9548L84.6635 54.0682C81.0088 51.1127 77.0012 50.0681 77.0012 50.0681Z" fill="white"/>
<path d="M76.0485 52.3854C75.6407 52.2801 75.3348 51.9076 75.3192 51.4542C75.3035 50.9036 75.7113 50.4177 76.2446 50.4177C76.3701 50.4177 76.5426 50.442 76.676 50.5068C76.676 50.5068 81.0443 52.3368 83.7815 55.7862L83.703 55.8834C79.8836 53.0898 76.0485 52.3854 76.0485 52.3854Z" fill="white"/>
<path d="M75.8318 54.8665C75.4319 54.7693 75.1417 54.4049 75.126 53.9758C75.1025 53.4414 75.5024 52.9636 76.0279 52.9636C76.0593 52.9636 76.2318 52.9636 76.3965 53.0284C76.3965 53.0284 80.608 54.8017 82.804 57.5467L82.7334 57.6681C79.0709 55.2551 75.8318 54.8746 75.8318 54.8746V54.8665Z" fill="white"/>
<path d="M104.998 50.0681C105.414 49.9872 105.688 49.5661 105.688 49.1127C105.688 48.562 105.249 48.1167 104.716 48.1167C104.637 48.1167 104.465 48.141 104.331 48.2058C104.331 48.2058 99.9865 50.2382 97.2572 53.9548L97.3278 54.0682C100.99 51.1127 104.99 50.0681 104.99 50.0681H104.998Z" fill="white"/>
<path d="M105.984 52.3854C106.384 52.2801 106.69 51.9076 106.705 51.4542C106.729 50.9036 106.306 50.4177 105.78 50.4177C105.662 50.4177 105.482 50.442 105.349 50.5068C105.349 50.5068 100.98 52.3368 98.2354 55.7862L98.3138 55.8834C102.133 53.0898 105.976 52.3773 105.976 52.3773L105.984 52.3854Z" fill="white"/>
<path d="M106.172 54.8665C106.564 54.7693 106.862 54.4049 106.87 53.9758C106.901 53.4414 106.501 52.9636 105.983 52.9636C105.936 52.9636 105.772 52.9636 105.607 53.0284C105.607 53.0284 101.388 54.8017 99.1917 57.5467L99.2622 57.6681C102.909 55.2551 106.164 54.8746 106.164 54.8746L106.172 54.8665Z" fill="white"/>
<rect y="315" width="94" height="411" rx="8" transform="rotate(-90 0 315)" fill="#F3F7FA"/>
<path d="M33.3027 251.035C33.2979 251.851 33.4126 252.642 33.647 253.408C33.8813 254.17 34.2354 254.854 34.709 255.459C35.1826 256.064 35.7637 256.533 36.4521 256.865L35.3242 258.359C34.6309 258.018 34.0376 257.537 33.5444 256.917C33.0562 256.296 32.668 255.569 32.3799 254.734C32.082 255.623 31.6694 256.401 31.1421 257.07C30.6196 257.734 29.9922 258.247 29.2598 258.608L28.1025 257.1C28.8301 256.768 29.4429 256.287 29.9409 255.657C30.439 255.022 30.8101 254.307 31.0542 253.511C31.3032 252.71 31.4277 251.885 31.4277 251.035V249.043H33.3027V251.035ZM38.9131 253.159H40.876V254.741H38.9131V261.348H37.0381V248.018H38.9131V253.159ZM52.5654 261.348H50.7051V248.018H52.5654V261.348ZM42.1064 257.583L44.8164 257.546V256.418C44.3281 256.331 43.9009 256.174 43.5347 255.95C43.1733 255.725 42.895 255.447 42.6997 255.115C42.5044 254.778 42.4092 254.404 42.4141 253.994C42.4092 253.501 42.5459 253.066 42.8242 252.69C43.1025 252.31 43.4932 252.014 43.9961 251.804C44.499 251.594 45.0752 251.489 45.7246 251.489C46.3789 251.489 46.96 251.594 47.4678 251.804C47.9756 252.014 48.3711 252.31 48.6543 252.69C48.9375 253.066 49.0791 253.501 49.0791 253.994C49.0791 254.404 48.979 254.778 48.7788 255.115C48.5835 255.447 48.3027 255.725 47.9365 255.95C47.5752 256.174 47.1504 256.331 46.6621 256.418V257.488C47.9121 257.424 49.0156 257.329 49.9727 257.202L50.1045 258.579C48.8105 258.799 47.4824 258.943 46.1201 259.011C44.7627 259.075 43.2783 259.106 41.667 259.106L41.418 257.583H42.1064ZM49.7822 250.962H41.6816V249.497H44.8164V248.076H46.6768V249.497H49.7822V250.962ZM45.7246 252.91C45.2607 252.91 44.8872 253.008 44.604 253.203C44.3208 253.394 44.1816 253.657 44.1865 253.994C44.1816 254.336 44.3184 254.602 44.5967 254.792C44.8799 254.983 45.2559 255.078 45.7246 255.078C46.2031 255.078 46.584 254.985 46.8672 254.8C47.1504 254.609 47.292 254.341 47.292 253.994C47.292 253.652 47.1479 253.386 46.8599 253.196C46.5767 253.005 46.1982 252.91 45.7246 252.91ZM58.5273 251.064C58.5273 251.519 58.6152 251.956 58.791 252.375C58.9717 252.791 59.2451 253.164 59.6113 253.496C59.9775 253.823 60.4316 254.077 60.9736 254.258L60.1387 255.664C59.5674 255.459 59.0742 255.176 58.6592 254.814C58.249 254.448 57.9219 254.019 57.6777 253.525C57.4336 254.067 57.104 254.539 56.689 254.939C56.2739 255.339 55.7686 255.649 55.1729 255.869L54.3232 254.492C54.8604 254.287 55.3096 254.009 55.6709 253.657C56.0371 253.306 56.3081 252.908 56.4839 252.463C56.6646 252.019 56.7549 251.553 56.7549 251.064V250.991H54.6895V249.526H56.7549V248.149H58.5273V249.526H60.5781V250.991H58.5273V251.064ZM65.7783 256.177H64.0059V252.881H62.9365V256.147H61.1787V248.237H62.9365V251.372H64.0059V248.032H65.7783V256.177ZM65.7783 261.348H63.918V258.257H56.5645V256.748H65.7783V261.348ZM78.4492 255.562H76.5742V248.032H78.4492V255.562ZM78.4492 261.201H69.5137V256.162H78.4492V261.201ZM71.3594 259.707H76.6182V257.642H71.3594V259.707ZM71.1396 248.633C71.8281 248.633 72.4482 248.77 73 249.043C73.5566 249.316 73.9937 249.697 74.311 250.186C74.6284 250.674 74.7871 251.23 74.7871 251.855C74.7871 252.456 74.6284 252.998 74.311 253.481C73.9937 253.965 73.5566 254.346 73 254.624C72.4434 254.897 71.8232 255.034 71.1396 255.034C70.4561 255.034 69.8359 254.897 69.2793 254.624C68.7227 254.346 68.2856 253.965 67.9683 253.481C67.6509 252.998 67.4922 252.456 67.4922 251.855C67.4922 251.23 67.6509 250.674 67.9683 250.186C68.2856 249.697 68.7202 249.316 69.272 249.043C69.8286 248.77 70.4512 248.633 71.1396 248.633ZM71.1396 250.2C70.7832 250.2 70.4658 250.266 70.1875 250.398C69.9141 250.53 69.6992 250.72 69.543 250.969C69.3916 251.218 69.3184 251.514 69.3232 251.855C69.3184 252.183 69.3916 252.468 69.543 252.712C69.6992 252.952 69.9141 253.137 70.1875 253.269C70.4658 253.401 70.7832 253.467 71.1396 253.467C71.4863 253.467 71.7964 253.401 72.0698 253.269C72.3433 253.137 72.5557 252.952 72.707 252.712C72.8633 252.468 72.9414 252.183 72.9414 251.855C72.9414 251.514 72.8633 251.218 72.707 250.969C72.5557 250.72 72.3433 250.53 72.0698 250.398C71.7964 250.266 71.4863 250.2 71.1396 250.2ZM91.457 261.348H89.5674V248.018H91.457V261.348ZM87.458 249.409C87.458 250.835 87.2651 252.131 86.8794 253.298C86.4985 254.465 85.854 255.537 84.9458 256.514C84.0376 257.485 82.8145 258.335 81.2764 259.062L80.2949 257.568C81.4326 257.031 82.3701 256.433 83.1074 255.774C83.8496 255.115 84.416 254.385 84.8066 253.584C85.2021 252.778 85.4512 251.875 85.5537 250.874H81.0127V249.409H87.458ZM101.579 250.361H93.6689V248.999H96.6865V247.93H98.5469V248.999H101.579V250.361ZM97.624 250.669C98.2783 250.669 98.8569 250.752 99.3599 250.918C99.8628 251.079 100.253 251.313 100.532 251.621C100.815 251.924 100.959 252.28 100.964 252.69C100.959 253.193 100.739 253.613 100.305 253.95C99.875 254.287 99.2891 254.507 98.5469 254.609V255.247C99.7139 255.193 100.764 255.107 101.696 254.99L101.828 256.235C100.563 256.455 99.25 256.602 97.8877 256.675C96.5254 256.743 95.0703 256.777 93.5225 256.777L93.2734 255.356C94.5381 255.356 95.6758 255.344 96.6865 255.32V254.609C95.9346 254.507 95.3438 254.287 94.9141 253.95C94.4893 253.613 94.2793 253.193 94.2842 252.69C94.2793 252.28 94.4136 251.924 94.687 251.621C94.9653 251.313 95.356 251.079 95.8589 250.918C96.3667 250.752 96.9551 250.669 97.624 250.669ZM97.624 251.914C97.1357 251.914 96.7573 251.98 96.4888 252.112C96.2202 252.239 96.0859 252.432 96.0859 252.69C96.0859 252.93 96.2202 253.113 96.4888 253.24C96.7622 253.362 97.1406 253.423 97.624 253.423C98.0928 253.423 98.4663 253.359 98.7446 253.232C99.0229 253.105 99.1621 252.925 99.1621 252.69C99.1621 252.437 99.0229 252.244 98.7446 252.112C98.4712 251.98 98.0977 251.914 97.624 251.914ZM104.421 257.041H102.517V248.047H104.421V257.041ZM104.421 261.348H102.517V259.004H95.1484V257.568H104.421V261.348ZM116.931 249.644C116.931 250.322 116.916 250.925 116.887 251.453C116.857 251.975 116.782 252.554 116.66 253.188H118.381V254.683H113.195V256.602H116.945V261.348H115.07V258.066H107.409V256.602H111.32V254.683H106.179V253.188H114.777C114.89 252.627 114.965 252.104 115.004 251.621C115.043 251.133 115.065 250.62 115.07 250.083H107.673V248.604H116.931V249.644ZM124.328 258.711C124.104 258.711 123.896 258.655 123.706 258.542C123.515 258.43 123.364 258.281 123.251 258.096C123.144 257.905 123.093 257.7 123.098 257.48C123.093 257.261 123.144 257.058 123.251 256.873C123.364 256.687 123.515 256.541 123.706 256.433C123.896 256.321 124.104 256.265 124.328 256.265C124.538 256.265 124.736 256.321 124.921 256.433C125.112 256.541 125.263 256.687 125.375 256.873C125.488 257.058 125.544 257.261 125.544 257.48C125.544 257.7 125.488 257.905 125.375 258.096C125.263 258.281 125.112 258.43 124.921 258.542C124.736 258.655 124.538 258.711 124.328 258.711ZM124.328 253.13C124.104 253.13 123.896 253.074 123.706 252.961C123.515 252.849 123.364 252.7 123.251 252.515C123.144 252.324 123.093 252.119 123.098 251.899C123.093 251.68 123.144 251.477 123.251 251.292C123.364 251.106 123.515 250.959 123.706 250.852C123.896 250.74 124.104 250.684 124.328 250.684C124.538 250.684 124.736 250.74 124.921 250.852C125.112 250.959 125.263 251.106 125.375 251.292C125.488 251.477 125.544 251.68 125.544 251.899C125.544 252.119 125.488 252.324 125.375 252.515C125.263 252.7 125.112 252.849 124.921 252.961C124.736 253.074 124.538 253.13 124.328 253.13Z" fill="#222222"/>
<path d="M136.333 255.957C136.348 253.188 137.095 250.889 138.442 248.94H139.556C138.56 250.391 137.637 253.35 137.637 255.957C137.637 258.564 138.56 261.538 139.556 262.988H138.442C137.095 261.025 136.348 258.726 136.333 255.957ZM152.52 254.609V255.532H140.64V254.609H146.016V253.086H142.148V248.779H151.04V249.702H143.276V252.148H151.128V253.086H147.129V254.609H152.52ZM146.572 256.484C149.37 256.484 151.04 257.334 151.055 258.828C151.04 260.337 149.37 261.172 146.572 261.187C143.76 261.172 142.075 260.337 142.075 258.828C142.075 257.334 143.76 256.484 146.572 256.484ZM146.572 257.393C144.478 257.393 143.232 257.935 143.247 258.828C143.232 259.736 144.478 260.264 146.572 260.264C148.638 260.264 149.897 259.736 149.897 258.828C149.897 257.935 148.638 257.393 146.572 257.393ZM157.09 249.175C159.009 249.189 160.371 250.947 160.386 253.716C160.371 256.484 159.009 258.242 157.09 258.242C155.156 258.242 153.809 256.484 153.809 253.716C153.809 250.947 155.156 249.189 157.09 249.175ZM157.09 250.2C155.801 250.215 154.893 251.592 154.893 253.716C154.893 255.84 155.801 257.217 157.09 257.217C158.394 257.217 159.272 255.84 159.272 253.716C159.272 251.592 158.394 250.215 157.09 250.2ZM163.682 248.164V253.364H165.864V254.36H163.682V261.187H162.539V248.164H163.682ZM170.479 250.713C170.479 251.79 171.16 253.247 172.5 254.053C173.826 253.262 174.507 251.855 174.507 250.713V249.16H175.664V250.713C175.649 252.222 176.631 253.745 178.33 254.39L177.729 255.269C176.418 254.727 175.518 253.723 175.078 252.515C174.646 253.657 173.804 254.712 172.5 255.254C171.189 254.705 170.332 253.613 169.907 252.456C169.46 253.65 168.567 254.712 167.3 255.269L166.655 254.39C168.325 253.716 169.336 252.09 169.351 250.713V249.16H170.479V250.713ZM178.477 258.55V259.517H166.567V258.55H171.929V255.752H173.057V258.55H178.477ZM184.16 251.665C184.146 254.038 185.771 256.44 187.69 257.305L186.987 258.213C185.508 257.488 184.226 255.957 183.604 254.097C182.996 256.067 181.714 257.708 180.19 258.477L179.458 257.51C181.392 256.616 183.003 254.141 183.018 251.665V249.292H184.16V251.665ZM190.269 248.164V261.216H189.111V248.164H190.269ZM198.428 249.014C201.196 249.028 203.188 250.376 203.188 252.427C203.188 254.368 201.46 255.657 198.984 255.811V258.55H204.419V259.517H192.495V258.55H197.856V255.811C195.388 255.649 193.667 254.36 193.667 252.427C193.667 250.376 195.659 249.028 198.428 249.014ZM198.428 249.966C196.318 249.966 194.78 250.962 194.78 252.427C194.78 253.936 196.318 254.902 198.428 254.917C200.537 254.902 202.075 253.936 202.075 252.427C202.075 250.962 200.537 249.966 198.428 249.966ZM216.636 249.087V249.937H206.074V249.087H210.82V247.959H211.963V249.087H216.636ZM211.392 250.479C214.131 250.479 215.61 251.035 215.61 252.163C215.61 253.21 214.336 253.767 211.963 253.848V254.756H217.324V255.62H205.459V254.756H210.82V253.848C208.425 253.767 207.158 253.21 207.158 252.163C207.158 251.035 208.623 250.479 211.392 250.479ZM211.392 251.27C209.414 251.27 208.374 251.577 208.389 252.163C208.374 252.764 209.414 253.086 211.392 253.086C213.354 253.086 214.395 252.764 214.409 252.163C214.395 251.577 213.354 251.27 211.392 251.27ZM215.801 256.47V259.092H208.096V260.19H216.196V261.04H206.924V258.286H214.644V257.305H206.895V256.47H215.801ZM229.175 248.164V256.191H228.032V248.164H229.175ZM225.396 249.189V250.142H220.371V253.95C223.169 253.95 224.795 253.862 226.685 253.481L226.816 254.448C224.854 254.814 223.184 254.888 220.298 254.902H219.229V249.189H225.396ZM224.824 256.191C227.534 256.191 229.204 257.114 229.219 258.682C229.204 260.264 227.534 261.172 224.824 261.187C222.085 261.172 220.43 260.264 220.43 258.682C220.43 257.114 222.085 256.191 224.824 256.191ZM224.824 257.114C222.803 257.114 221.587 257.7 221.587 258.682C221.587 259.663 222.803 260.249 224.824 260.249C226.831 260.249 228.076 259.663 228.076 258.682C228.076 257.7 226.831 257.114 224.824 257.114ZM237.876 250.083C237.876 252.31 240.425 254.302 242.695 254.727L242.168 255.693C240.205 255.239 238.132 253.84 237.29 251.914C236.448 253.833 234.382 255.232 232.412 255.693L231.885 254.727C234.141 254.287 236.675 252.324 236.675 250.083V249.087H237.876V250.083ZM243.311 258.462V259.414H231.387V258.462H243.311ZM258.911 248.164V255.928H257.754V252.515H255.132V251.562H257.754V248.164H258.911ZM254.59 256.338C257.3 256.338 258.955 257.217 258.955 258.755C258.955 260.293 257.3 261.172 254.59 261.187C251.88 261.172 250.225 260.293 250.225 258.755C250.225 257.217 251.88 256.338 254.59 256.338ZM254.59 257.231C252.598 257.231 251.353 257.803 251.367 258.755C251.353 259.692 252.598 260.264 254.59 260.264C256.582 260.264 257.812 259.692 257.812 258.755C257.812 257.803 256.582 257.231 254.59 257.231ZM252.642 250.552C252.642 252.251 253.945 253.862 255.85 254.521L255.249 255.444C253.784 254.917 252.649 253.826 252.1 252.471C251.528 254.001 250.32 255.225 248.774 255.811L248.174 254.888C250.107 254.185 251.484 252.427 251.484 250.566V250.083H248.54V249.116H255.557V250.083H252.642V250.552ZM271.597 254.272V255.21H267.568V258.579H273.003V259.546H261.079V258.579H266.44V255.21H262.603V249.233H271.465V250.171H263.76V254.272H271.597ZM284.839 248.179V256.001H283.682V254.243H280.225V253.291H283.682V251.533H280.356C279.5 253.628 277.485 255.144 274.702 255.972L274.219 255.063C277.368 254.126 279.324 252.368 279.565 250.112H274.878V249.146H280.811C280.811 249.658 280.752 250.149 280.649 250.61H283.682V248.179H284.839ZM280.576 256.133C283.213 256.133 284.912 257.07 284.912 258.623C284.912 260.19 283.213 261.128 280.576 261.128C277.91 261.128 276.226 260.19 276.226 258.623C276.226 257.07 277.91 256.133 280.576 256.133ZM280.576 257.056C278.613 257.041 277.354 257.642 277.354 258.623C277.354 259.604 278.613 260.19 280.576 260.19C282.51 260.19 283.755 259.604 283.77 258.623C283.755 257.642 282.51 257.041 280.576 257.056ZM290.596 248.955C291.694 248.948 292.632 249.358 293.232 250.054H296.646V248.164H297.803V255.884H296.646V254.023H293.247C292.632 254.719 291.694 255.129 290.596 255.122C288.647 255.137 287.212 253.862 287.212 252.046C287.212 250.215 288.647 248.94 290.596 248.955ZM290.596 249.951C289.263 249.937 288.311 250.815 288.311 252.046C288.311 253.262 289.263 254.141 290.596 254.141C291.885 254.141 292.852 253.262 292.852 252.046C292.852 250.815 291.885 249.937 290.596 249.951ZM293.481 256.191C296.177 256.191 297.847 257.1 297.847 258.667C297.847 260.249 296.177 261.157 293.481 261.157C290.771 261.157 289.116 260.249 289.116 258.667C289.116 257.1 290.771 256.191 293.481 256.191ZM293.481 257.085C291.489 257.085 290.244 257.686 290.244 258.667C290.244 259.648 291.489 260.234 293.481 260.234C295.488 260.234 296.719 259.648 296.719 258.667C296.719 257.686 295.488 257.085 293.481 257.085ZM293.789 250.991C293.899 251.313 293.965 251.665 293.965 252.046C293.965 252.412 293.899 252.756 293.789 253.071H296.646V250.991H293.789ZM306.973 248.97V249.922H301.89V251.548H306.606V252.471H301.89V254.199C304.666 254.214 306.204 254.148 308.042 253.833L308.159 254.771C306.255 255.107 304.658 255.137 301.787 255.137H300.732V248.97H306.973ZM310.723 248.179V255.942H309.58V248.179H310.723ZM310.723 256.587V261.011H302.256V256.587H310.723ZM303.384 257.51V260.073H309.595V257.51H303.384ZM315.073 259.019L313.931 263.003H312.847L313.652 259.019H315.073ZM321.182 260V249.395H322.5V254.111H328.11V249.395H329.443V260H328.11V255.269H322.5V260H321.182ZM331.772 260V249.395H335.376C337.866 249.395 338.994 250.771 338.994 252.661C338.994 254.06 338.364 255.166 337.017 255.635L339.404 260H337.866L335.654 255.869C335.566 255.884 335.479 255.884 335.391 255.884H333.091V260H331.772ZM333.091 254.683H335.332C337.017 254.683 337.69 253.921 337.69 252.661C337.69 251.387 337.017 250.566 335.317 250.566H333.091V254.683ZM351.05 248.179V257.729H349.893V252.734H347.212V251.782H349.893V248.179H351.05ZM351.416 259.941V260.908H342.686V256.865H343.843V259.941H351.416ZM344.78 250.859C344.78 252.544 346.084 254.185 347.988 254.829L347.388 255.752C345.916 255.225 344.78 254.126 344.224 252.778C343.66 254.28 342.458 255.481 340.913 256.06L340.312 255.122C342.231 254.448 343.623 252.734 343.623 250.859V250.186H340.679V249.233H347.695V250.186H344.78V250.859ZM365.361 250.259V251.211H363.398V252.983H365.361V253.95H363.398V256.089H362.256V248.179H363.398V250.259H365.361ZM359.678 248.955V252.544H354.932V254.434C357.246 254.434 358.923 254.353 360.952 254.009L361.069 254.961C358.975 255.312 357.231 255.386 354.814 255.386H353.804V251.636H358.55V249.893H353.774V248.955H359.678ZM363.398 256.777V261.187H362.256V257.715H354.873V256.777H363.398ZM373.184 248.97V249.922H368.101V251.548H372.817V252.471H368.101V254.199C370.876 254.214 372.415 254.148 374.253 253.833L374.37 254.771C372.466 255.107 370.869 255.137 367.998 255.137H366.943V248.97H373.184ZM376.934 248.179V255.942H375.791V248.179H376.934ZM376.934 256.587V261.011H368.467V256.587H376.934ZM369.595 257.51V260.073H375.806V257.51H369.595ZM381.284 259.019L380.142 263.003H379.058L379.863 259.019H381.284ZM146.294 275.164V288.187H145.137V275.164H146.294ZM142.441 276.585C142.427 280.335 140.684 283.646 136.318 285.74L135.688 284.803C139.211 283.133 141.006 280.635 141.27 277.522H136.289V276.585H142.441ZM152.08 275.779C153.831 275.765 155.156 276.783 155.405 278.284H158.13V275.164H159.287V282.151H158.13V279.236H155.42C155.186 280.774 153.845 281.8 152.08 281.8C150.103 281.8 148.696 280.569 148.696 278.782C148.696 277.01 150.103 275.765 152.08 275.779ZM152.08 276.761C150.747 276.746 149.795 277.581 149.795 278.782C149.795 279.969 150.747 280.833 152.08 280.833C153.398 280.833 154.336 279.969 154.336 278.782C154.336 277.581 153.398 276.746 152.08 276.761ZM152.051 282.811V284.466H158.13V282.811H159.287V288.011H150.894V282.811H152.051ZM152.051 287.073H158.13V285.389H152.051V287.073ZM173.364 281.829V282.781H168.062V285.447H166.919V282.781H161.44V281.829H173.364ZM171.812 275.809V280.335H162.993V275.809H171.812ZM164.121 276.717V279.412H170.669V276.717H164.121ZM172.031 286.941V287.908H162.964V284.158H164.121V286.941H172.031ZM184.526 275.164V280.716H186.606V281.683H184.526V288.187H183.369V275.164H184.526ZM174.258 284.715C175.32 284.715 176.558 284.715 177.847 284.671V283.221C176.331 283.052 175.342 282.166 175.356 280.877C175.342 279.412 176.587 278.46 178.433 278.46C180.249 278.46 181.509 279.412 181.523 280.877C181.509 282.166 180.505 283.052 179.004 283.235V284.627C180.22 284.568 181.443 284.473 182.578 284.305L182.651 285.184C179.81 285.667 176.733 285.696 174.448 285.696L174.258 284.715ZM182.344 276.761V277.698H174.492V276.761H177.847V275.193H179.004V276.761H182.344ZM178.433 279.354C177.231 279.354 176.426 279.969 176.426 280.877C176.426 281.785 177.231 282.371 178.433 282.356C179.619 282.371 180.425 281.785 180.425 280.877C180.425 279.969 179.619 279.354 178.433 279.354ZM194.766 276.512V277.464H187.397V276.512H190.562V275.062H191.704V276.512H194.766ZM191.118 278.182C192.847 278.196 194.092 279.163 194.092 280.613C194.092 282.063 192.847 283.045 191.118 283.06C189.39 283.045 188.159 282.063 188.174 280.613C188.159 279.163 189.39 278.196 191.118 278.182ZM191.118 279.075C190.005 279.09 189.243 279.705 189.243 280.613C189.243 281.521 190.005 282.137 191.118 282.137C192.231 282.137 193.008 281.521 193.022 280.613C193.008 279.705 192.231 279.09 191.118 279.075ZM198.179 275.164V283.426H197.021V281.785H194.751V280.818H197.021V279.31H194.766V278.387H197.021V275.164H198.179ZM198.179 284.188V288.187H197.021V285.125H189.419V284.188H198.179ZM211.099 275.179V284.729H209.956V275.179H211.099ZM211.509 286.941V287.908H202.69V283.851H203.833V286.941H211.509ZM204.961 277.215C204.946 279.192 206.309 280.979 208.242 281.683L207.642 282.605C206.133 282.027 204.961 280.855 204.39 279.354C203.811 280.95 202.625 282.232 201.108 282.84L200.479 281.946C202.456 281.185 203.789 279.266 203.789 277.215V275.911H204.961V277.215ZM220.312 275.97V276.922H215.229V278.548H219.946V279.471H215.229V281.199C218.005 281.214 219.543 281.148 221.382 280.833L221.499 281.771C219.595 282.107 217.998 282.137 215.127 282.137H214.072V275.97H220.312ZM224.062 275.179V282.942H222.92V275.179H224.062ZM224.062 283.587V288.011H215.596V283.587H224.062ZM216.724 284.51V287.073H222.935V284.51H216.724ZM228.413 286.019L227.271 290.003H226.187L226.992 286.019H228.413ZM245.757 281.609V282.532H233.877V281.609H239.253V280.086H235.386V275.779H244.277V276.702H236.514V279.148H244.365V280.086H240.366V281.609H245.757ZM239.81 283.484C242.607 283.484 244.277 284.334 244.292 285.828C244.277 287.337 242.607 288.172 239.81 288.187C236.997 288.172 235.312 287.337 235.312 285.828C235.312 284.334 236.997 283.484 239.81 283.484ZM239.81 284.393C237.715 284.393 236.47 284.935 236.484 285.828C236.47 286.736 237.715 287.264 239.81 287.264C241.875 287.264 243.135 286.736 243.135 285.828C243.135 284.935 241.875 284.393 239.81 284.393ZM250.327 276.175C252.246 276.189 253.608 277.947 253.623 280.716C253.608 283.484 252.246 285.242 250.327 285.242C248.394 285.242 247.046 283.484 247.046 280.716C247.046 277.947 248.394 276.189 250.327 276.175ZM250.327 277.2C249.038 277.215 248.13 278.592 248.13 280.716C248.13 282.84 249.038 284.217 250.327 284.217C251.631 284.217 252.51 282.84 252.51 280.716C252.51 278.592 251.631 277.215 250.327 277.2ZM256.919 275.164V280.364H259.102V281.36H256.919V288.187H255.776V275.164H256.919ZM270.938 275.164V288.187H269.839V275.164H270.938ZM268.301 275.486V287.513H267.217V280.804H265.02V279.866H267.217V275.486H268.301ZM263.628 278.885C263.628 281.141 264.639 283.382 266.44 284.422L265.737 285.271C264.456 284.502 263.547 283.096 263.101 281.434C262.625 283.228 261.68 284.759 260.376 285.579L259.644 284.715C261.46 283.631 262.515 281.258 262.515 278.885V277.654H260.01V276.702H266.016V277.654H263.628V278.885ZM284.883 277.186V278.123H282.949V279.954H284.883V280.936H282.949V282.913H281.807V275.164H282.949V277.186H284.883ZM282.949 283.514V288.187H281.807V284.466H274.424V283.514H282.949ZM276.431 275.955C278.408 275.94 279.844 277.215 279.858 279.017C279.844 280.848 278.408 282.107 276.431 282.107C274.453 282.107 273.003 280.848 273.018 279.017C273.003 277.215 274.453 275.94 276.431 275.955ZM276.431 276.937C275.112 276.937 274.131 277.786 274.146 279.017C274.131 280.262 275.112 281.126 276.431 281.111C277.764 281.126 278.73 280.262 278.73 279.017C278.73 277.786 277.764 276.937 276.431 276.937ZM297.378 279.734C297.07 278.27 295.811 277.479 294.419 277.479C292.5 277.479 291.006 278.958 291.006 281.697C291.006 284.437 292.5 285.916 294.419 285.916C295.811 285.916 297.056 285.125 297.378 283.675H298.696C298.315 285.843 296.572 287.146 294.419 287.146C291.694 287.146 289.731 285.052 289.731 281.697C289.731 278.343 291.694 276.248 294.419 276.248C296.558 276.248 298.301 277.537 298.696 279.734H297.378ZM306.328 279.061C306.211 278.021 305.259 277.42 303.984 277.42C302.578 277.42 301.655 278.152 301.655 279.163C301.655 280.276 302.9 280.687 303.706 280.892L304.761 281.185C305.903 281.478 307.764 282.137 307.764 284.114C307.764 285.843 306.372 287.19 303.911 287.19C301.626 287.19 300.205 286.004 300.088 284.246H301.436C301.553 285.433 302.651 285.989 303.911 285.989C305.376 285.989 306.475 285.242 306.475 284.085C306.475 283.06 305.493 282.664 304.38 282.342L303.076 281.99C301.406 281.507 300.381 280.657 300.381 279.222C300.381 277.435 301.978 276.248 304.028 276.248C306.079 276.248 307.559 277.449 307.617 279.061H306.328ZM309.653 287V276.395H313.257C315.747 276.395 316.875 277.771 316.875 279.661C316.875 281.06 316.245 282.166 314.897 282.635L317.285 287H315.747L313.535 282.869C313.447 282.884 313.359 282.884 313.271 282.884H310.972V287H309.653ZM310.972 281.683H313.213C314.897 281.683 315.571 280.921 315.571 279.661C315.571 278.387 314.897 277.566 313.198 277.566H310.972V281.683ZM325.137 275.97V276.922H320.054V278.548H324.771V279.471H320.054V281.199C322.83 281.214 324.368 281.148 326.206 280.833L326.323 281.771C324.419 282.107 322.822 282.137 319.951 282.137H318.896V275.97H325.137ZM328.887 275.179V282.942H327.744V275.179H328.887ZM328.887 283.587V288.011H320.42V283.587H328.887ZM321.548 284.51V287.073H327.759V284.51H321.548ZM334.351 282.957C334.336 285.726 333.589 288.025 332.241 289.988H331.128C332.124 288.538 333.047 285.564 333.047 282.957C333.047 280.35 332.124 277.391 331.128 275.94H332.241C333.589 277.889 334.336 280.188 334.351 282.957Z" fill="#666666"/>
<rect x="230" width="72" height="176" rx="8" fill="#2F75FF"/>
<path d="M262.601 33.3164V34.7812H250.414V33.3164H255.599V32.1738H251.893V27.6035H261.136V29.0537H253.753V30.709H261.209V32.1738H257.43V33.3164H262.601ZM256.478 35.4551C259.364 35.4551 261.107 36.334 261.122 37.916C261.107 39.4688 259.364 40.3623 256.478 40.3623C253.563 40.3623 251.805 39.4688 251.805 37.916C251.805 36.334 253.563 35.4551 256.478 35.4551ZM256.478 36.876C254.632 36.876 253.695 37.2275 253.709 37.916C253.695 38.6191 254.632 38.9414 256.478 38.9414C258.28 38.9414 259.232 38.6191 259.247 37.916C259.232 37.2275 258.28 36.876 256.478 36.876ZM254.002 45.9551C256.039 45.9551 257.503 47.8008 257.518 50.7012C257.503 53.6309 256.039 55.4619 254.002 55.4619C251.966 55.4619 250.472 53.6309 250.487 50.7012C250.472 47.8008 251.966 45.9551 254.002 45.9551ZM254.002 47.6396C252.977 47.6396 252.289 48.7236 252.289 50.7012C252.289 52.6934 252.977 53.7627 254.002 53.7627C255.042 53.7627 255.716 52.6934 255.731 50.7012C255.716 48.7236 255.042 47.6396 254.002 47.6396ZM260.931 45.0176V50.042H262.894V51.5947H260.931V58.3477H259.056V45.0176H260.931ZM258.426 67.4268C258.338 66.5918 257.665 66.0938 256.595 66.0938C255.482 66.0938 254.867 66.6064 254.852 67.3096C254.837 68.0713 255.643 68.4229 256.551 68.6279L257.503 68.8623C259.32 69.2725 260.682 70.1953 260.682 71.9678C260.682 73.916 259.159 75.1465 256.581 75.1465C254.017 75.1465 252.376 73.96 252.318 71.6895H254.457C254.53 72.7588 255.379 73.3008 256.551 73.3008C257.708 73.3008 258.456 72.7588 258.456 71.9678C258.456 71.25 257.796 70.9131 256.639 70.6201L255.482 70.3418C253.695 69.9023 252.596 69.0088 252.596 67.4561C252.596 65.5225 254.295 64.248 256.61 64.248C258.954 64.248 260.506 65.5518 260.536 67.4268H258.426ZM252.164 84.2109V82.3945H260.851V84.2109H257.599V93H255.416V84.2109H252.164Z" fill="white"/>
<path d="M280.942 27.0176V40.3477H279.169V33.6533H277.88V39.7031H276.167V27.2373H277.88V32.1592H279.169V27.0176H280.942ZM274.76 28.5557V30.0645H271.669V35.748C272.958 35.7407 274.101 35.6748 275.39 35.4404L275.522 36.9639C273.896 37.2715 272.475 37.3154 270.717 37.3301H269.794V28.5557H274.76ZM281.616 55.374V56.8682H269.414V55.374H272.446V52.8398H270.424V51.3311H272.211V47.5811H270.366V46.0869H280.59V47.5811H278.715V51.3311H280.532V52.8398H278.525V55.374H281.616ZM274.086 51.3311H276.87V47.5811H274.086V51.3311ZM274.321 55.374H276.65V52.8398H274.321V55.374ZM280.576 63.0176V76.377H278.686V63.0176H280.576ZM273.339 63.9551C275.346 63.9551 276.84 65.8008 276.84 68.7012C276.84 71.6309 275.346 73.4619 273.339 73.4619C271.289 73.4619 269.794 71.6309 269.809 68.7012C269.794 65.8008 271.289 63.9551 273.339 63.9551ZM273.339 65.6396C272.299 65.6396 271.611 66.7236 271.611 68.7012C271.611 70.6934 272.299 71.7627 273.339 71.7627C274.35 71.7627 275.039 70.6934 275.039 68.7012C275.039 66.7236 274.35 65.6396 273.339 65.6396ZM274.321 84.0352C274.306 86.4229 275.332 88.8398 277.47 89.8652L276.342 91.3594C274.914 90.6562 273.955 89.3379 273.398 87.7266C272.819 89.4551 271.787 90.8687 270.278 91.6084L269.121 90.0996C271.376 89.0596 272.446 86.5107 272.446 84.0352V82.043H274.321V84.0352ZM279.931 81.0176V86.1592H281.894V87.7412H279.931V94.3477H278.056V81.0176H279.931Z" fill="white"/>
<rect x="314" width="72" height="176" rx="8" fill="#2F75FF"/>
<path d="M346.601 33.3164V34.7812H334.414V33.3164H339.599V32.1738H335.893V27.6035H345.136V29.0537H337.753V30.709H345.209V32.1738H341.43V33.3164H346.601ZM340.478 35.4551C343.364 35.4551 345.107 36.334 345.122 37.916C345.107 39.4688 343.364 40.3623 340.478 40.3623C337.563 40.3623 335.805 39.4688 335.805 37.916C335.805 36.334 337.563 35.4551 340.478 35.4551ZM340.478 36.876C338.632 36.876 337.695 37.2275 337.709 37.916C337.695 38.6191 338.632 38.9414 340.478 38.9414C342.28 38.9414 343.232 38.6191 343.247 37.916C343.232 37.2275 342.28 36.876 340.478 36.876ZM338.002 45.9551C340.039 45.9551 341.503 47.8008 341.518 50.7012C341.503 53.6309 340.039 55.4619 338.002 55.4619C335.966 55.4619 334.472 53.6309 334.487 50.7012C334.472 47.8008 335.966 45.9551 338.002 45.9551ZM338.002 47.6396C336.977 47.6396 336.289 48.7236 336.289 50.7012C336.289 52.6934 336.977 53.7627 338.002 53.7627C339.042 53.7627 339.716 52.6934 339.731 50.7012C339.716 48.7236 339.042 47.6396 338.002 47.6396ZM344.931 45.0176V50.042H346.894V51.5947H344.931V58.3477H343.056V45.0176H344.931ZM345.942 63.0176V76.3477H344.169V63.0176H345.942ZM343.217 63.2373V75.7324H341.459V69.0967H339.702V67.5879H341.459V63.2373H343.217ZM338.632 66.5918C338.632 68.8037 339.321 71.0449 341.269 72.1582L340.17 73.5352C338.984 72.832 338.2 71.6382 337.753 70.21C337.292 71.7627 336.486 73.0811 335.263 73.8281L334.135 72.4512C336.098 71.25 336.831 68.8477 336.831 66.5918V65.874H334.648V64.3799H340.654V65.874H338.632V66.5918ZM346.718 82.7754V84.2842H344.99V85.6465H346.718V87.1992H344.99V88.8838H343.115V81.0176H344.99V82.7754H346.718ZM344.99 89.4111V94.3477H343.115V90.9199H336.01V89.4111H344.99ZM338.164 81.75C340.229 81.7354 341.796 83.1123 341.796 84.9873C341.796 86.9062 340.229 88.2539 338.164 88.2539C336.083 88.2539 334.501 86.9062 334.501 84.9873C334.501 83.1123 336.083 81.7354 338.164 81.75ZM338.164 83.3467C337.109 83.3467 336.333 83.9473 336.347 84.9873C336.333 86.0566 337.109 86.6719 338.164 86.6719C339.189 86.6719 339.965 86.0566 339.98 84.9873C339.965 83.9473 339.189 83.3467 338.164 83.3467Z" fill="white"/>
<path d="M364.942 27.0176V40.3477H363.169V33.6533H361.88V39.7031H360.167V27.2373H361.88V32.1592H363.169V27.0176H364.942ZM358.76 28.5557V30.0645H355.669V35.748C356.958 35.7407 358.101 35.6748 359.39 35.4404L359.522 36.9639C357.896 37.2715 356.475 37.3154 354.717 37.3301H353.794V28.5557H358.76ZM365.616 55.374V56.8682H353.414V55.374H356.446V52.8398H354.424V51.3311H356.211V47.5811H354.366V46.0869H364.59V47.5811H362.715V51.3311H364.532V52.8398H362.525V55.374H365.616ZM358.086 51.3311H360.87V47.5811H358.086V51.3311ZM358.321 55.374H360.65V52.8398H358.321V55.374ZM364.576 63.0176V76.377H362.686V63.0176H364.576ZM357.339 63.9551C359.346 63.9551 360.84 65.8008 360.84 68.7012C360.84 71.6309 359.346 73.4619 357.339 73.4619C355.289 73.4619 353.794 71.6309 353.809 68.7012C353.794 65.8008 355.289 63.9551 357.339 63.9551ZM357.339 65.6396C356.299 65.6396 355.611 66.7236 355.611 68.7012C355.611 70.6934 356.299 71.7627 357.339 71.7627C358.35 71.7627 359.039 70.6934 359.039 68.7012C359.039 66.7236 358.35 65.6396 357.339 65.6396ZM358.321 84.0352C358.306 86.4229 359.332 88.8398 361.47 89.8652L360.342 91.3594C358.914 90.6562 357.955 89.3379 357.398 87.7266C356.819 89.4551 355.787 90.8687 354.278 91.6084L353.121 90.0996C355.376 89.0596 356.446 86.5107 356.446 84.0352V82.043H358.321V84.0352ZM363.931 81.0176V86.1592H365.894V87.7412H363.931V94.3477H362.056V81.0176H363.931Z" fill="white"/>
<rect x="398" width="72" height="176" rx="8" fill="#2F75FF"/>
<path d="M429.971 40.3477H428.184V27.0176H429.971V40.3477ZM427.188 39.7324H425.43V33.4336H424.354C424.3 34.3027 424.144 35.0522 423.885 35.6821C423.631 36.312 423.294 36.7954 422.874 37.1323C422.454 37.4692 421.973 37.6377 421.431 37.6377C420.85 37.6377 420.34 37.4424 419.9 37.0518C419.466 36.6611 419.129 36.1021 418.89 35.3745C418.65 34.6421 418.531 33.7803 418.531 32.7891C418.531 31.8027 418.65 30.9482 418.89 30.2256C419.129 29.498 419.466 28.9414 419.9 28.5557C420.34 28.165 420.85 27.9697 421.431 27.9697C421.963 27.9697 422.435 28.1284 422.845 28.4458C423.26 28.7632 423.594 29.2222 423.848 29.8228C424.107 30.4185 424.271 31.1289 424.339 31.9541H425.43V27.208H427.188V39.7324ZM421.431 29.7275C421.05 29.7275 420.757 29.9863 420.552 30.5039C420.352 31.0215 420.254 31.7832 420.259 32.7891C420.254 33.7998 420.352 34.564 420.552 35.0815C420.757 35.5942 421.05 35.8457 421.431 35.8359C421.817 35.8457 422.115 35.5942 422.325 35.0815C422.54 34.564 422.647 33.7998 422.647 32.7891C422.647 31.7832 422.54 31.0215 422.325 30.5039C422.115 29.9863 421.817 29.7275 421.431 29.7275ZM425.43 46.7754C425.43 47.4395 425.618 48.0889 425.994 48.7236C426.375 49.3584 426.924 49.9102 427.642 50.3789C428.365 50.8477 429.209 51.165 430.176 51.3311L429.356 52.8838C428.213 52.6592 427.217 52.2417 426.368 51.6313C425.523 51.021 424.881 50.2788 424.441 49.4048C423.992 50.2739 423.343 51.0137 422.493 51.624C421.648 52.2344 420.66 52.6543 419.527 52.8838L418.721 51.3311C419.673 51.1602 420.506 50.8403 421.219 50.3716C421.932 49.9028 422.479 49.3511 422.859 48.7163C423.24 48.0767 423.433 47.4297 423.438 46.7754V45.8086H425.43V46.7754ZM430.616 56.707H418.414V55.1689H430.616V56.707ZM425.928 65.6396H420.992V67.8369H425.372V69.3018H420.992V71.8213C422.105 71.8115 423.086 71.7798 423.936 71.7261C424.786 71.6724 425.65 71.5771 426.529 71.4404L426.705 72.9492C425.723 73.0908 424.739 73.1885 423.753 73.2422C422.771 73.291 421.617 73.3154 420.289 73.3154H419.146V64.1162H425.928V65.6396ZM429.62 76.3477H427.73V63.0176H429.62V76.3477ZM425.884 83.4053H424.8V86.6353C425.337 86.5913 425.855 86.54 426.353 86.4814L426.485 87.873C425.318 88.0732 424.1 88.2051 422.83 88.2686C421.561 88.3271 420.132 88.3613 418.545 88.3711L418.34 86.833L419.791 86.8257V83.4053H418.692V81.9111H425.884V83.4053ZM428.99 94.2012H420.274V89.2939H428.99V94.2012ZM422.12 92.707H427.144V90.7588H422.12V92.707ZM428.99 84.0352H430.792V85.5586H428.99V88.7373H427.115V81.0176H428.99V84.0352ZM422.999 86.7451V83.4053H421.592V86.7964L422.999 86.7451Z" fill="white"/>
<path d="M448.942 40.3477H447.169V33.6533H445.88V39.7031H444.167V27.2373H445.88V32.1592H447.169V27.0176H448.942V40.3477ZM442.76 30.0645H439.669V35.7554C440.373 35.7456 441.017 35.7188 441.603 35.6748C442.189 35.6309 442.785 35.5527 443.39 35.4404L443.522 36.9639C442.775 37.1055 442.042 37.2007 441.325 37.2495C440.607 37.2935 439.738 37.3203 438.717 37.3301H437.794V28.5557H442.76V30.0645ZM449.616 56.8682H437.414V55.374H440.446V52.8398H438.424V51.3311H440.211V47.5811H438.366V46.0869H448.59V47.5811H446.715V51.3311H448.532V52.8398H446.525V55.374H449.616V56.8682ZM444.87 51.3311V47.5811H442.086V51.3311H444.87ZM444.65 55.374V52.8398H442.321V55.374H444.65ZM448.576 76.377H446.686V63.0176H448.576V76.377ZM441.339 63.9551C442.008 63.9551 442.606 64.1504 443.134 64.541C443.666 64.9316 444.083 65.4858 444.386 66.2036C444.689 66.9214 444.84 67.7539 444.84 68.7012C444.84 69.6582 444.689 70.498 444.386 71.2207C444.083 71.9385 443.666 72.4927 443.134 72.8833C442.606 73.269 442.008 73.4619 441.339 73.4619C440.656 73.4619 440.045 73.269 439.508 72.8833C438.971 72.4927 438.551 71.9385 438.249 71.2207C437.951 70.498 437.804 69.6582 437.809 68.7012C437.804 67.7539 437.951 66.9214 438.249 66.2036C438.551 65.4858 438.971 64.9316 439.508 64.541C440.045 64.1504 440.656 63.9551 441.339 63.9551ZM441.339 65.6396C440.993 65.6396 440.688 65.7593 440.424 65.9985C440.165 66.2329 439.965 66.5796 439.823 67.0386C439.682 67.4976 439.611 68.0518 439.611 68.7012C439.611 69.3555 439.682 69.9121 439.823 70.3711C439.965 70.8301 440.165 71.1768 440.424 71.4111C440.688 71.6455 440.993 71.7627 441.339 71.7627C441.681 71.7627 441.979 71.6455 442.233 71.4111C442.487 71.1719 442.685 70.8228 442.826 70.3638C442.968 69.9048 443.039 69.3506 443.039 68.7012C443.039 68.0566 442.968 67.5049 442.826 67.0459C442.685 66.582 442.484 66.2329 442.226 65.9985C441.972 65.7593 441.676 65.6396 441.339 65.6396ZM442.321 84.0352C442.316 84.8506 442.431 85.6416 442.665 86.4082C442.899 87.1699 443.253 87.8535 443.727 88.459C444.201 89.0645 444.782 89.5332 445.47 89.8652L444.342 91.3594C443.649 91.0176 443.056 90.5366 442.562 89.9165C442.074 89.2964 441.686 88.5688 441.398 87.7339C441.1 88.6226 440.688 89.4014 440.16 90.0703C439.638 90.7344 439.01 91.2471 438.278 91.6084L437.121 90.0996C437.848 89.7676 438.461 89.2866 438.959 88.6567C439.457 88.022 439.828 87.3066 440.072 86.5107C440.321 85.71 440.446 84.8848 440.446 84.0352V82.043H442.321V84.0352ZM447.931 86.1592H449.894V87.7412H447.931V94.3477H446.056V81.0176H447.931V86.1592Z" fill="white"/>
<rect x="482" width="72" height="176" rx="8" fill="#2F75FF"/>
<path d="M513.971 40.3477H512.184V27.0176H513.971V40.3477ZM511.188 39.7324H509.43V33.4336H508.354C508.3 34.3027 508.144 35.0522 507.885 35.6821C507.631 36.312 507.294 36.7954 506.874 37.1323C506.454 37.4692 505.973 37.6377 505.431 37.6377C504.85 37.6377 504.34 37.4424 503.9 37.0518C503.466 36.6611 503.129 36.1021 502.89 35.3745C502.65 34.6421 502.531 33.7803 502.531 32.7891C502.531 31.8027 502.65 30.9482 502.89 30.2256C503.129 29.498 503.466 28.9414 503.9 28.5557C504.34 28.165 504.85 27.9697 505.431 27.9697C505.963 27.9697 506.435 28.1284 506.845 28.4458C507.26 28.7632 507.594 29.2222 507.848 29.8228C508.107 30.4185 508.271 31.1289 508.339 31.9541H509.43V27.208H511.188V39.7324ZM505.431 29.7275C505.05 29.7275 504.757 29.9863 504.552 30.5039C504.352 31.0215 504.254 31.7832 504.259 32.7891C504.254 33.7998 504.352 34.564 504.552 35.0815C504.757 35.5942 505.05 35.8457 505.431 35.8359C505.817 35.8457 506.115 35.5942 506.325 35.0815C506.54 34.564 506.647 33.7998 506.647 32.7891C506.647 31.7832 506.54 31.0215 506.325 30.5039C506.115 29.9863 505.817 29.7275 505.431 29.7275ZM509.43 46.7754C509.43 47.4395 509.618 48.0889 509.994 48.7236C510.375 49.3584 510.924 49.9102 511.642 50.3789C512.365 50.8477 513.209 51.165 514.176 51.3311L513.356 52.8838C512.213 52.6592 511.217 52.2417 510.368 51.6313C509.523 51.021 508.881 50.2788 508.441 49.4048C507.992 50.2739 507.343 51.0137 506.493 51.624C505.648 52.2344 504.66 52.6543 503.527 52.8838L502.721 51.3311C503.673 51.1602 504.506 50.8403 505.219 50.3716C505.932 49.9028 506.479 49.3511 506.859 48.7163C507.24 48.0767 507.433 47.4297 507.438 46.7754V45.8086H509.43V46.7754ZM514.616 56.707H502.414V55.1689H514.616V56.707ZM509.928 65.6396H504.992V67.8369H509.372V69.3018H504.992V71.8213C506.105 71.8115 507.086 71.7798 507.936 71.7261C508.786 71.6724 509.65 71.5771 510.529 71.4404L510.705 72.9492C509.723 73.0908 508.739 73.1885 507.753 73.2422C506.771 73.291 505.617 73.3154 504.289 73.3154H503.146V64.1162H509.928V65.6396ZM513.62 76.3477H511.73V63.0176H513.62V76.3477ZM513.869 90.9492H512.096V81.0322H513.869V90.9492ZM511.217 90.6562H509.445V86.0713H507.965V84.5771H509.445V81.2812H511.217V90.6562ZM514.206 94.1133H504.831V89.8506H506.706V92.6191H514.206V94.1133ZM506.618 84.1377C506.618 84.8994 506.815 85.5903 507.211 86.2104C507.611 86.8306 508.219 87.2969 509.035 87.6094L508.097 89.0742C507.545 88.8594 507.072 88.564 506.676 88.188C506.286 87.8071 505.971 87.3652 505.731 86.8623C505.482 87.4189 505.146 87.9072 504.721 88.3271C504.301 88.7422 503.795 89.0645 503.205 89.2939L502.223 87.873C503.092 87.5264 503.739 87.0186 504.164 86.3496C504.589 85.6758 504.801 84.9336 504.801 84.123V83.6689H502.677V82.1602H508.61V83.6689H506.618V84.1377ZM512.931 103.998H514.894V105.565H512.931V112.348H511.056V99.0176H512.931V103.998ZM504.699 103.324H507.467V100.072H509.328V109.257H502.838V100.072H504.699V103.324ZM507.467 107.748V104.774H504.699V107.748H507.467ZM513.576 130.377H511.686V117.018H513.576V130.377ZM506.339 117.955C507.008 117.955 507.606 118.15 508.134 118.541C508.666 118.932 509.083 119.486 509.386 120.204C509.689 120.921 509.84 121.754 509.84 122.701C509.84 123.658 509.689 124.498 509.386 125.221C509.083 125.938 508.666 126.493 508.134 126.883C507.606 127.269 507.008 127.462 506.339 127.462C505.656 127.462 505.045 127.269 504.508 126.883C503.971 126.493 503.551 125.938 503.249 125.221C502.951 124.498 502.804 123.658 502.809 122.701C502.804 121.754 502.951 120.921 503.249 120.204C503.551 119.486 503.971 118.932 504.508 118.541C505.045 118.15 505.656 117.955 506.339 117.955ZM506.339 119.64C505.993 119.64 505.688 119.759 505.424 119.999C505.165 120.233 504.965 120.58 504.823 121.039C504.682 121.498 504.611 122.052 504.611 122.701C504.611 123.355 504.682 123.912 504.823 124.371C504.965 124.83 505.165 125.177 505.424 125.411C505.688 125.646 505.993 125.763 506.339 125.763C506.681 125.763 506.979 125.646 507.233 125.411C507.487 125.172 507.685 124.823 507.826 124.364C507.968 123.905 508.039 123.351 508.039 122.701C508.039 122.057 507.968 121.505 507.826 121.046C507.685 120.582 507.484 120.233 507.226 119.999C506.972 119.759 506.676 119.64 506.339 119.64ZM508.493 135.706C509.445 135.706 510.302 135.857 511.063 136.16C511.825 136.463 512.423 136.893 512.858 137.449C513.292 138.001 513.512 138.636 513.517 139.354C513.512 140.008 513.336 140.594 512.99 141.111C512.643 141.629 512.16 142.049 511.54 142.371C510.924 142.688 510.216 142.894 509.416 142.986V145.257H514.616V146.795H502.414V145.257H507.555V142.979C506.759 142.891 506.054 142.686 505.438 142.364C504.823 142.042 504.342 141.624 503.996 141.111C503.654 140.594 503.483 140.008 503.483 139.354C503.483 138.636 503.698 138.001 504.127 137.449C504.562 136.893 505.16 136.463 505.922 136.16C506.684 135.857 507.541 135.706 508.493 135.706ZM508.493 137.2C507.873 137.2 507.323 137.288 506.845 137.464C506.366 137.635 505.993 137.884 505.724 138.211C505.46 138.538 505.329 138.919 505.329 139.354C505.329 139.812 505.46 140.208 505.724 140.54C505.993 140.867 506.364 141.119 506.837 141.294C507.316 141.465 507.868 141.551 508.493 141.551C509.123 141.551 509.674 141.465 510.148 141.294C510.626 141.124 510.998 140.872 511.261 140.54C511.53 140.208 511.667 139.812 511.671 139.354C511.667 138.914 511.53 138.533 511.261 138.211C510.998 137.884 510.626 137.635 510.148 137.464C509.669 137.288 509.118 137.2 508.493 137.2Z" fill="white"/>
<path d="M532.942 27.0176V40.3477H531.169V33.6533H529.88V39.7031H528.167V27.2373H529.88V32.1592H531.169V27.0176H532.942ZM526.76 28.5557V30.0645H523.669V35.748C524.958 35.7407 526.101 35.6748 527.39 35.4404L527.522 36.9639C525.896 37.2715 524.475 37.3154 522.717 37.3301H521.794V28.5557H526.76ZM533.616 55.374V56.8682H521.414V55.374H524.446V52.8398H522.424V51.3311H524.211V47.5811H522.366V46.0869H532.59V47.5811H530.715V51.3311H532.532V52.8398H530.525V55.374H533.616ZM526.086 51.3311H528.87V47.5811H526.086V51.3311ZM526.321 55.374H528.65V52.8398H526.321V55.374ZM532.576 63.0176V76.377H530.686V63.0176H532.576ZM525.339 63.9551C527.346 63.9551 528.84 65.8008 528.84 68.7012C528.84 71.6309 527.346 73.4619 525.339 73.4619C523.289 73.4619 521.794 71.6309 521.809 68.7012C521.794 65.8008 523.289 63.9551 525.339 63.9551ZM525.339 65.6396C524.299 65.6396 523.611 66.7236 523.611 68.7012C523.611 70.6934 524.299 71.7627 525.339 71.7627C526.35 71.7627 527.039 70.6934 527.039 68.7012C527.039 66.7236 526.35 65.6396 525.339 65.6396ZM526.321 84.0352C526.306 86.4229 527.332 88.8398 529.47 89.8652L528.342 91.3594C526.914 90.6562 525.955 89.3379 525.398 87.7266C524.819 89.4551 523.787 90.8687 522.278 91.6084L521.121 90.0996C523.376 89.0596 524.446 86.5107 524.446 84.0352V82.043H526.321V84.0352ZM531.931 81.0176V86.1592H533.894V87.7412H531.931V94.3477H530.056V81.0176H531.931Z" fill="white"/>
<rect x="566" width="72" height="176" rx="8" fill="#2F75FF"/>
<path d="M598.601 33.3164V34.7812H586.414V33.3164H591.599V32.1738H587.893V27.6035H597.136V29.0537H589.753V30.709H597.209V32.1738H593.43V33.3164H598.601ZM592.478 35.4551C595.364 35.4551 597.107 36.334 597.122 37.916C597.107 39.4688 595.364 40.3623 592.478 40.3623C589.563 40.3623 587.805 39.4688 587.805 37.916C587.805 36.334 589.563 35.4551 592.478 35.4551ZM592.478 36.876C590.632 36.876 589.695 37.2275 589.709 37.916C589.695 38.6191 590.632 38.9414 592.478 38.9414C594.28 38.9414 595.232 38.6191 595.247 37.916C595.232 37.2275 594.28 36.876 592.478 36.876ZM590.002 45.9551C592.039 45.9551 593.503 47.8008 593.518 50.7012C593.503 53.6309 592.039 55.4619 590.002 55.4619C587.966 55.4619 586.472 53.6309 586.487 50.7012C586.472 47.8008 587.966 45.9551 590.002 45.9551ZM590.002 47.6396C588.977 47.6396 588.289 48.7236 588.289 50.7012C588.289 52.6934 588.977 53.7627 590.002 53.7627C591.042 53.7627 591.716 52.6934 591.731 50.7012C591.716 48.7236 591.042 47.6396 590.002 47.6396ZM596.931 45.0176V50.042H598.894V51.5947H596.931V58.3477H595.056V45.0176H596.931ZM594.016 64.3506V65.8154H591.321C591.357 67.1558 592.324 68.5034 594.441 69.0674L593.591 70.5029C592.075 70.1074 591.021 69.2725 590.413 68.1885C589.827 69.3823 588.765 70.3125 587.19 70.7373L586.311 69.3018C588.428 68.7231 589.431 67.2876 589.46 65.8154H586.78V64.3506H589.46V62.959H591.35V64.3506H594.016ZM596.99 63.0176V66.1523H598.792V67.6758H596.99V70.8252H595.115V63.0176H596.99ZM596.99 71.3818V76.2012H588.274V71.3818H596.99ZM590.12 72.8613V74.707H595.144V72.8613H590.12ZM592.097 82.3945V85.8662H593.43V81.208H595.188V93.7324H593.43V87.3604H592.097V90.9932H586.794V82.3945H592.097ZM588.538 83.874V89.5283H590.354V83.874H588.538ZM597.971 81.0176V94.3477H596.184V81.0176H597.971ZM597.283 105.185V106.679H587.849V100.131H597.18V101.64H589.695V105.185H597.283ZM598.616 109.184V110.722H586.414V109.184H598.616Z" fill="white"/>
<path d="M616.942 40.3477H615.169V33.6533H613.88V39.7031H612.167V27.2373H613.88V32.1592H615.169V27.0176H616.942V40.3477ZM610.76 30.0645H607.669V35.7554C608.373 35.7456 609.017 35.7188 609.603 35.6748C610.189 35.6309 610.785 35.5527 611.39 35.4404L611.522 36.9639C610.775 37.1055 610.042 37.2007 609.325 37.2495C608.607 37.2935 607.738 37.3203 606.717 37.3301H605.794V28.5557H610.76V30.0645ZM617.616 56.8682H605.414V55.374H608.446V52.8398H606.424V51.3311H608.211V47.5811H606.366V46.0869H616.59V47.5811H614.715V51.3311H616.532V52.8398H614.525V55.374H617.616V56.8682ZM612.87 51.3311V47.5811H610.086V51.3311H612.87ZM612.65 55.374V52.8398H610.321V55.374H612.65ZM616.576 76.377H614.686V63.0176H616.576V76.377ZM609.339 63.9551C610.008 63.9551 610.606 64.1504 611.134 64.541C611.666 64.9316 612.083 65.4858 612.386 66.2036C612.689 66.9214 612.84 67.7539 612.84 68.7012C612.84 69.6582 612.689 70.498 612.386 71.2207C612.083 71.9385 611.666 72.4927 611.134 72.8833C610.606 73.269 610.008 73.4619 609.339 73.4619C608.656 73.4619 608.045 73.269 607.508 72.8833C606.971 72.4927 606.551 71.9385 606.249 71.2207C605.951 70.498 605.804 69.6582 605.809 68.7012C605.804 67.7539 605.951 66.9214 606.249 66.2036C606.551 65.4858 606.971 64.9316 607.508 64.541C608.045 64.1504 608.656 63.9551 609.339 63.9551ZM609.339 65.6396C608.993 65.6396 608.688 65.7593 608.424 65.9985C608.165 66.2329 607.965 66.5796 607.823 67.0386C607.682 67.4976 607.611 68.0518 607.611 68.7012C607.611 69.3555 607.682 69.9121 607.823 70.3711C607.965 70.8301 608.165 71.1768 608.424 71.4111C608.688 71.6455 608.993 71.7627 609.339 71.7627C609.681 71.7627 609.979 71.6455 610.233 71.4111C610.487 71.1719 610.685 70.8228 610.826 70.3638C610.968 69.9048 611.039 69.3506 611.039 68.7012C611.039 68.0566 610.968 67.5049 610.826 67.0459C610.685 66.582 610.484 66.2329 610.226 65.9985C609.972 65.7593 609.676 65.6396 609.339 65.6396ZM610.321 84.0352C610.316 84.8506 610.431 85.6416 610.665 86.4082C610.899 87.1699 611.253 87.8535 611.727 88.459C612.201 89.0645 612.782 89.5332 613.47 89.8652L612.342 91.3594C611.649 91.0176 611.056 90.5366 610.562 89.9165C610.074 89.2964 609.686 88.5688 609.398 87.7339C609.1 88.6226 608.688 89.4014 608.16 90.0703C607.638 90.7344 607.01 91.2471 606.278 91.6084L605.121 90.0996C605.848 89.7676 606.461 89.2866 606.959 88.6567C607.457 88.022 607.828 87.3066 608.072 86.5107C608.321 85.71 608.446 84.8848 608.446 84.0352V82.043H610.321V84.0352ZM615.931 86.1592H617.894V87.7412H615.931V94.3477H614.056V81.0176H615.931V86.1592Z" fill="white"/>
<rect x="650" width="72" height="176" rx="8" fill="#2F75FF"/>
<path d="M682.601 34.7812H670.414V33.3164H675.599V32.1738H671.893V27.6035H681.136V29.0537H673.753V30.709H681.209V32.1738H677.43V33.3164H682.601V34.7812ZM676.478 35.4551C677.44 35.4551 678.268 35.5503 678.961 35.7407C679.654 35.9312 680.187 36.2119 680.558 36.583C680.929 36.9492 681.117 37.3936 681.122 37.916C681.117 38.4287 680.929 38.8682 680.558 39.2344C680.187 39.6006 679.652 39.8789 678.954 40.0693C678.26 40.2646 677.435 40.3623 676.478 40.3623C675.511 40.3623 674.676 40.2646 673.973 40.0693C673.275 39.8789 672.738 39.6006 672.362 39.2344C671.991 38.8682 671.805 38.4287 671.805 37.916C671.805 37.3936 671.991 36.9492 672.362 36.583C672.733 36.2119 673.268 35.9312 673.966 35.7407C674.669 35.5503 675.506 35.4551 676.478 35.4551ZM676.478 36.876C675.555 36.876 674.862 36.9639 674.398 37.1396C673.934 37.3154 673.705 37.5742 673.709 37.916C673.705 38.2627 673.932 38.5215 674.391 38.6924C674.85 38.8584 675.545 38.9414 676.478 38.9414C677.391 38.9414 678.08 38.8584 678.543 38.6924C679.007 38.5215 679.242 38.2627 679.247 37.916C679.242 37.5742 679.005 37.3154 678.536 37.1396C678.067 36.9639 677.381 36.876 676.478 36.876ZM674.002 45.9551C674.676 45.9551 675.279 46.1504 675.812 46.541C676.344 46.9268 676.759 47.4785 677.057 48.1963C677.359 48.9141 677.513 49.749 677.518 50.7012C677.513 51.6582 677.359 52.498 677.057 53.2207C676.759 53.9385 676.344 54.4927 675.812 54.8833C675.284 55.269 674.681 55.4619 674.002 55.4619C673.324 55.4619 672.716 55.269 672.179 54.8833C671.646 54.4927 671.229 53.9385 670.926 53.2207C670.628 52.498 670.482 51.6582 670.487 50.7012C670.482 49.7539 670.628 48.9214 670.926 48.2036C671.229 47.4858 671.646 46.9316 672.179 46.541C672.716 46.1504 673.324 45.9551 674.002 45.9551ZM674.002 47.6396C673.661 47.6396 673.36 47.7593 673.102 47.9985C672.843 48.2329 672.643 48.5796 672.501 49.0386C672.359 49.4976 672.289 50.0518 672.289 50.7012C672.289 51.3506 672.359 51.9072 672.501 52.3711C672.643 52.8301 672.843 53.1768 673.102 53.4111C673.36 53.6455 673.661 53.7627 674.002 53.7627C674.349 53.7627 674.652 53.6455 674.911 53.4111C675.169 53.1768 675.37 52.8301 675.511 52.3711C675.653 51.9121 675.726 51.3555 675.731 50.7012C675.726 50.0518 675.653 49.4976 675.511 49.0386C675.37 48.5796 675.169 48.2329 674.911 47.9985C674.652 47.7593 674.349 47.6396 674.002 47.6396ZM680.931 50.042H682.894V51.5947H680.931V58.3477H679.056V45.0176H680.931V50.042ZM676.493 63.7061C677.445 63.7061 678.302 63.8574 679.063 64.1602C679.825 64.4629 680.423 64.8926 680.858 65.4492C681.292 66.001 681.512 66.6357 681.517 67.3535C681.512 68.0078 681.336 68.5938 680.99 69.1113C680.643 69.6289 680.16 70.0488 679.54 70.3711C678.924 70.6885 678.216 70.8936 677.416 70.9863V73.2568H682.616V74.7949H670.414V73.2568H675.555V70.979C674.759 70.8911 674.054 70.686 673.438 70.3638C672.823 70.0415 672.342 69.624 671.996 69.1113C671.654 68.5938 671.483 68.0078 671.483 67.3535C671.483 66.6357 671.698 66.001 672.127 65.4492C672.562 64.8926 673.16 64.4629 673.922 64.1602C674.684 63.8574 675.541 63.7061 676.493 63.7061ZM676.493 65.2002C675.873 65.2002 675.323 65.2881 674.845 65.4639C674.366 65.6348 673.993 65.8838 673.724 66.2109C673.46 66.5381 673.329 66.9189 673.329 67.3535C673.329 67.8125 673.46 68.208 673.724 68.54C673.993 68.8672 674.364 69.1187 674.837 69.2944C675.316 69.4653 675.868 69.5508 676.493 69.5508C677.123 69.5508 677.674 69.4653 678.148 69.2944C678.626 69.1235 678.998 68.8721 679.261 68.54C679.53 68.208 679.667 67.8125 679.671 67.3535C679.667 66.9141 679.53 66.5332 679.261 66.2109C678.998 65.8838 678.626 65.6348 678.148 65.4639C677.669 65.2881 677.118 65.2002 676.493 65.2002ZM682.616 92.7949H670.414V91.2861H682.616V92.7949ZM681.546 84.3867H677.474C677.523 84.9434 677.73 85.4756 678.097 85.9834C678.468 86.4863 678.998 86.9233 679.686 87.2944C680.379 87.6606 681.209 87.9072 682.176 88.0342L681.458 89.5283C680.296 89.3477 679.291 89.0083 678.441 88.5103C677.596 88.0073 676.947 87.3872 676.493 86.6499C676.039 87.3872 675.389 88.0073 674.544 88.5103C673.705 89.0083 672.704 89.3477 671.542 89.5283L670.838 88.0342C671.8 87.9072 672.625 87.6606 673.314 87.2944C674.002 86.9233 674.532 86.4863 674.903 85.9834C675.274 85.4756 675.487 84.9434 675.541 84.3867H671.468V82.8779H675.57V81.2227H677.43V82.8779H681.546V84.3867ZM677.372 100.292C677.367 101.801 677.201 103.144 676.874 104.32C676.551 105.497 675.953 106.593 675.079 107.609C674.205 108.625 672.972 109.53 671.38 110.326L670.355 108.92C671.449 108.378 672.342 107.794 673.036 107.169C673.734 106.54 674.276 105.849 674.662 105.097L670.721 105.463L670.487 103.866L675.226 103.581C675.367 103.004 675.46 102.406 675.504 101.786H671.19V100.292H677.372ZM680.931 104.13H682.821V105.668H680.931V112.318H679.056V99.0176H680.931V104.13Z" fill="white"/>
<path d="M700.942 40.3477H699.169V33.6533H697.88V39.7031H696.167V27.2373H697.88V32.1592H699.169V27.0176H700.942V40.3477ZM694.76 30.0645H691.669V35.7554C692.373 35.7456 693.017 35.7188 693.603 35.6748C694.189 35.6309 694.785 35.5527 695.39 35.4404L695.522 36.9639C694.775 37.1055 694.042 37.2007 693.325 37.2495C692.607 37.2935 691.738 37.3203 690.717 37.3301H689.794V28.5557H694.76V30.0645ZM701.616 56.8682H689.414V55.374H692.446V52.8398H690.424V51.3311H692.211V47.5811H690.366V46.0869H700.59V47.5811H698.715V51.3311H700.532V52.8398H698.525V55.374H701.616V56.8682ZM696.87 51.3311V47.5811H694.086V51.3311H696.87ZM696.65 55.374V52.8398H694.321V55.374H696.65ZM700.576 76.377H698.686V63.0176H700.576V76.377ZM693.339 63.9551C694.008 63.9551 694.606 64.1504 695.134 64.541C695.666 64.9316 696.083 65.4858 696.386 66.2036C696.689 66.9214 696.84 67.7539 696.84 68.7012C696.84 69.6582 696.689 70.498 696.386 71.2207C696.083 71.9385 695.666 72.4927 695.134 72.8833C694.606 73.269 694.008 73.4619 693.339 73.4619C692.656 73.4619 692.045 73.269 691.508 72.8833C690.971 72.4927 690.551 71.9385 690.249 71.2207C689.951 70.498 689.804 69.6582 689.809 68.7012C689.804 67.7539 689.951 66.9214 690.249 66.2036C690.551 65.4858 690.971 64.9316 691.508 64.541C692.045 64.1504 692.656 63.9551 693.339 63.9551ZM693.339 65.6396C692.993 65.6396 692.688 65.7593 692.424 65.9985C692.165 66.2329 691.965 66.5796 691.823 67.0386C691.682 67.4976 691.611 68.0518 691.611 68.7012C691.611 69.3555 691.682 69.9121 691.823 70.3711C691.965 70.8301 692.165 71.1768 692.424 71.4111C692.688 71.6455 692.993 71.7627 693.339 71.7627C693.681 71.7627 693.979 71.6455 694.233 71.4111C694.487 71.1719 694.685 70.8228 694.826 70.3638C694.968 69.9048 695.039 69.3506 695.039 68.7012C695.039 68.0566 694.968 67.5049 694.826 67.0459C694.685 66.582 694.484 66.2329 694.226 65.9985C693.972 65.7593 693.676 65.6396 693.339 65.6396ZM694.321 84.0352C694.316 84.8506 694.431 85.6416 694.665 86.4082C694.899 87.1699 695.253 87.8535 695.727 88.459C696.201 89.0645 696.782 89.5332 697.47 89.8652L696.342 91.3594C695.649 91.0176 695.056 90.5366 694.562 89.9165C694.074 89.2964 693.686 88.5688 693.398 87.7339C693.1 88.6226 692.688 89.4014 692.16 90.0703C691.638 90.7344 691.01 91.2471 690.278 91.6084L689.121 90.0996C689.848 89.7676 690.461 89.2866 690.959 88.6567C691.457 88.022 691.828 87.3066 692.072 86.5107C692.321 85.71 692.446 84.8848 692.446 84.0352V82.043H694.321V84.0352ZM699.931 86.1592H701.894V87.7412H699.931V94.3477H698.056V81.0176H699.931V86.1592Z" fill="white"/>
<rect x="734" width="72" height="176" rx="8" fill="#2F75FF"/>
<path d="M766.572 34.8252H754.414V33.3311H757.153V31.7344C756.66 31.5146 756.281 31.2412 756.018 30.9141C755.759 30.5869 755.629 30.2109 755.629 29.7861C755.629 29.2539 755.827 28.7949 756.223 28.4092C756.618 28.0186 757.182 27.7207 757.915 27.5156C758.647 27.3105 759.506 27.208 760.493 27.208C761.469 27.208 762.321 27.3105 763.049 27.5156C763.776 27.7207 764.338 28.0186 764.733 28.4092C765.134 28.7949 765.336 29.2539 765.341 29.7861C765.336 30.2109 765.2 30.5918 764.931 30.9287C764.663 31.2607 764.277 31.5342 763.774 31.749V33.3311H766.572V34.8252ZM760.478 35.5283C761.44 35.5283 762.268 35.6211 762.961 35.8066C763.654 35.9922 764.187 36.2632 764.558 36.6196C764.929 36.9761 765.117 37.4082 765.122 37.916C765.117 38.4336 764.929 38.873 764.558 39.2344C764.187 39.5957 763.654 39.8691 762.961 40.0547C762.268 40.2402 761.44 40.333 760.478 40.333C759.501 40.333 758.664 40.2402 757.966 40.0547C757.268 39.8691 756.733 39.5957 756.362 39.2344C755.991 38.873 755.805 38.4336 755.805 37.916C755.805 37.4082 755.991 36.9761 756.362 36.6196C756.733 36.2632 757.268 35.9922 757.966 35.8066C758.664 35.6211 759.501 35.5283 760.478 35.5283ZM760.478 36.9346C758.618 36.9346 757.695 37.2617 757.709 37.916C757.695 38.5996 758.618 38.9414 760.478 38.9414C762.309 38.9414 763.232 38.5996 763.247 37.916C763.232 37.2617 762.309 36.9346 760.478 36.9346ZM760.493 28.6436C759.545 28.6436 758.82 28.7412 758.317 28.9365C757.819 29.1318 757.573 29.415 757.578 29.7861C757.573 30.1475 757.819 30.4209 758.317 30.6064C758.815 30.792 759.541 30.8848 760.493 30.8848C761.435 30.8848 762.155 30.792 762.653 30.6064C763.156 30.4209 763.408 30.1475 763.408 29.7861C763.408 29.415 763.156 29.1318 762.653 28.9365C762.15 28.7412 761.43 28.6436 760.493 28.6436ZM761.914 33.3311V32.2178C761.494 32.2666 761.02 32.291 760.493 32.291C759.936 32.291 759.453 32.2642 759.042 32.2104V33.3311H761.914ZM761.24 55.0957H754.838V46.2773H761.24V55.0957ZM756.684 53.6162H759.379V47.7422H756.684V53.6162ZM764.931 50.042H766.894V51.5947H764.931V58.3477H763.056V45.0176H764.931V50.042ZM766.616 74.8682H754.414V73.3301H759.555V71.3232H755.82V66.8408H763.364V65.376H755.805V63.8818H765.209V68.3057H757.695V69.7998H765.517V71.3232H761.416V73.3301H766.616V74.8682ZM759.584 84.6504C759.584 85.3877 759.709 86.1128 759.958 86.8257C760.212 87.5337 760.59 88.1709 761.093 88.7373C761.596 89.3037 762.207 89.7383 762.924 90.041L761.914 91.5059C761.147 91.1836 760.49 90.71 759.943 90.085C759.396 89.46 758.967 88.73 758.654 87.895C758.347 88.8032 757.915 89.6016 757.358 90.29C756.801 90.9736 756.142 91.4912 755.38 91.8428L754.311 90.3633C755.024 90.0459 755.632 89.5845 756.135 88.979C756.643 88.3735 757.023 87.6948 757.277 86.9429C757.536 86.186 757.666 85.4219 757.666 84.6504V83.8301H754.838V82.3066H762.368V83.8301H759.584V84.6504ZM765.576 94.3477H763.686V81.0176H765.576V94.3477ZM761.43 100.775C761.43 101.439 761.618 102.089 761.994 102.724C762.375 103.358 762.924 103.91 763.642 104.379C764.365 104.848 765.209 105.165 766.176 105.331L765.356 106.884C764.213 106.659 763.217 106.242 762.368 105.631C761.523 105.021 760.881 104.279 760.441 103.405C759.992 104.274 759.343 105.014 758.493 105.624C757.648 106.234 756.66 106.654 755.527 106.884L754.721 105.331C755.673 105.16 756.506 104.84 757.219 104.372C757.932 103.903 758.479 103.351 758.859 102.716C759.24 102.077 759.433 101.43 759.438 100.775V99.8086H761.43V100.775ZM766.616 110.707H754.414V109.169H766.616V110.707Z" fill="white"/>
<path d="M784.942 40.3477H783.169V33.6533H781.88V39.7031H780.167V27.2373H781.88V32.1592H783.169V27.0176H784.942V40.3477ZM778.76 30.0645H775.669V35.7554C776.373 35.7456 777.017 35.7188 777.603 35.6748C778.189 35.6309 778.785 35.5527 779.39 35.4404L779.522 36.9639C778.775 37.1055 778.042 37.2007 777.325 37.2495C776.607 37.2935 775.738 37.3203 774.717 37.3301H773.794V28.5557H778.76V30.0645ZM785.616 56.8682H773.414V55.374H776.446V52.8398H774.424V51.3311H776.211V47.5811H774.366V46.0869H784.59V47.5811H782.715V51.3311H784.532V52.8398H782.525V55.374H785.616V56.8682ZM780.87 51.3311V47.5811H778.086V51.3311H780.87ZM780.65 55.374V52.8398H778.321V55.374H780.65ZM784.576 76.377H782.686V63.0176H784.576V76.377ZM777.339 63.9551C778.008 63.9551 778.606 64.1504 779.134 64.541C779.666 64.9316 780.083 65.4858 780.386 66.2036C780.689 66.9214 780.84 67.7539 780.84 68.7012C780.84 69.6582 780.689 70.498 780.386 71.2207C780.083 71.9385 779.666 72.4927 779.134 72.8833C778.606 73.269 778.008 73.4619 777.339 73.4619C776.656 73.4619 776.045 73.269 775.508 72.8833C774.971 72.4927 774.551 71.9385 774.249 71.2207C773.951 70.498 773.804 69.6582 773.809 68.7012C773.804 67.7539 773.951 66.9214 774.249 66.2036C774.551 65.4858 774.971 64.9316 775.508 64.541C776.045 64.1504 776.656 63.9551 777.339 63.9551ZM777.339 65.6396C776.993 65.6396 776.688 65.7593 776.424 65.9985C776.165 66.2329 775.965 66.5796 775.823 67.0386C775.682 67.4976 775.611 68.0518 775.611 68.7012C775.611 69.3555 775.682 69.9121 775.823 70.3711C775.965 70.8301 776.165 71.1768 776.424 71.4111C776.688 71.6455 776.993 71.7627 777.339 71.7627C777.681 71.7627 777.979 71.6455 778.233 71.4111C778.487 71.1719 778.685 70.8228 778.826 70.3638C778.968 69.9048 779.039 69.3506 779.039 68.7012C779.039 68.0566 778.968 67.5049 778.826 67.0459C778.685 66.582 778.484 66.2329 778.226 65.9985C777.972 65.7593 777.676 65.6396 777.339 65.6396ZM778.321 84.0352C778.316 84.8506 778.431 85.6416 778.665 86.4082C778.899 87.1699 779.253 87.8535 779.727 88.459C780.201 89.0645 780.782 89.5332 781.47 89.8652L780.342 91.3594C779.649 91.0176 779.056 90.5366 778.562 89.9165C778.074 89.2964 777.686 88.5688 777.398 87.7339C777.1 88.6226 776.688 89.4014 776.16 90.0703C775.638 90.7344 775.01 91.2471 774.278 91.6084L773.121 90.0996C773.848 89.7676 774.461 89.2866 774.959 88.6567C775.457 88.022 775.828 87.3066 776.072 86.5107C776.321 85.71 776.446 84.8848 776.446 84.0352V82.043H778.321V84.0352ZM783.931 86.1592H785.894V87.7412H783.931V94.3477H782.056V81.0176H783.931V86.1592Z" fill="white"/>
<rect x="818" width="72" height="176" rx="8" fill="#2F75FF"/>
<path d="M845.489 28.0576C845.489 29.625 847.085 31.3682 850.147 31.749L849.415 33.2578C847.085 32.9209 845.379 31.8442 844.507 30.4014C843.628 31.8442 841.937 32.9209 839.629 33.2578L838.882 31.749C841.915 31.3682 843.526 29.625 843.526 28.0576V27.4131H845.489V28.0576ZM850.572 34.2686V35.792H845.386V40.3477H843.541V35.792H838.414V34.2686H850.572ZM843.409 47.0977C843.394 48.7529 844.332 50.3643 846.441 51.0381L845.445 52.5176C844.009 52.0342 843.035 51.0747 842.471 49.8662C841.878 51.1846 840.845 52.2173 839.336 52.752L838.326 51.2578C840.552 50.54 841.504 48.7969 841.519 46.9805V45.7061H843.409V47.0977ZM849.649 53.5576V58.3477H847.789V55.0371H840.494V53.5576H849.649ZM849.649 45.0176V52.957H847.789V49.0312H845.284V47.4932H847.789V45.0176H849.649Z" fill="white"/>
<path d="M868.942 27.0176V40.3477H867.169V33.6533H865.88V39.7031H864.167V27.2373H865.88V32.1592H867.169V27.0176H868.942ZM862.76 28.5557V30.0645H859.669V35.748C860.958 35.7407 862.101 35.6748 863.39 35.4404L863.522 36.9639C861.896 37.2715 860.475 37.3154 858.717 37.3301H857.794V28.5557H862.76ZM869.616 55.374V56.8682H857.414V55.374H860.446V52.8398H858.424V51.3311H860.211V47.5811H858.366V46.0869H868.59V47.5811H866.715V51.3311H868.532V52.8398H866.525V55.374H869.616ZM862.086 51.3311H864.87V47.5811H862.086V51.3311ZM862.321 55.374H864.65V52.8398H862.321V55.374ZM868.576 63.0176V76.377H866.686V63.0176H868.576ZM861.339 63.9551C863.346 63.9551 864.84 65.8008 864.84 68.7012C864.84 71.6309 863.346 73.4619 861.339 73.4619C859.289 73.4619 857.794 71.6309 857.809 68.7012C857.794 65.8008 859.289 63.9551 861.339 63.9551ZM861.339 65.6396C860.299 65.6396 859.611 66.7236 859.611 68.7012C859.611 70.6934 860.299 71.7627 861.339 71.7627C862.35 71.7627 863.039 70.6934 863.039 68.7012C863.039 66.7236 862.35 65.6396 861.339 65.6396ZM862.321 84.0352C862.306 86.4229 863.332 88.8398 865.47 89.8652L864.342 91.3594C862.914 90.6562 861.955 89.3379 861.398 87.7266C860.819 89.4551 859.787 90.8687 858.278 91.6084L857.121 90.0996C859.376 89.0596 860.446 86.5107 860.446 84.0352V82.043H862.321V84.0352ZM867.931 81.0176V86.1592H869.894V87.7412H867.931V94.3477H866.056V81.0176H867.931Z" fill="white"/>
<rect x="902" width="72" height="176" rx="8" fill="#2F75FF"/>
<path d="M932.99 31.1191H934.792V32.6426H932.99V36.9785H931.115V27.0322H932.99V31.1191ZM930.324 29.9033H922.414V28.4238H925.446V27.0029H927.306V28.4238H930.324V29.9033ZM926.369 30.3721C927.008 30.3721 927.575 30.4795 928.068 30.6943C928.566 30.9092 928.954 31.2119 929.232 31.6025C929.511 31.9932 929.65 32.4424 929.65 32.9502C929.65 33.458 929.511 33.9048 929.232 34.2905C928.959 34.6714 928.573 34.9692 928.075 35.1841C927.577 35.394 927.008 35.499 926.369 35.499C925.724 35.499 925.15 35.394 924.647 35.1841C924.149 34.9692 923.759 34.6714 923.476 34.2905C923.197 33.9048 923.058 33.458 923.058 32.9502C923.058 32.4424 923.197 31.9932 923.476 31.6025C923.759 31.2119 924.149 30.9092 924.647 30.6943C925.15 30.4795 925.724 30.3721 926.369 30.3721ZM926.369 31.793C925.915 31.8027 925.553 31.9077 925.285 32.1079C925.016 32.3081 924.884 32.5889 924.889 32.9502C924.884 33.3115 925.014 33.5898 925.277 33.7852C925.546 33.9805 925.91 34.0781 926.369 34.0781C926.828 34.0781 927.194 33.9805 927.467 33.7852C927.741 33.585 927.877 33.3066 927.877 32.9502C927.877 32.5889 927.741 32.3081 927.467 32.1079C927.194 31.9077 926.828 31.8027 926.369 31.793ZM933.473 40.1133H924.347V36.2168H926.208V38.6191H933.473V40.1133ZM933.166 46.6436C933.166 47.3223 933.151 47.9253 933.122 48.4526C933.092 48.9751 933.017 49.5537 932.895 50.1885H934.616V51.6826H929.43V53.6016H933.18V58.3477H931.305V55.0664H923.644V53.6016H927.555V51.6826H922.414V50.1885H931.012C931.125 49.627 931.2 49.1045 931.239 48.6211C931.278 48.1328 931.3 47.6201 931.305 47.083H923.908V45.6035H933.166V46.6436ZM933.576 72.7588H931.701V63.0322H933.576V72.7588ZM933.927 76.1133H924.64V71.8213H926.53V74.6191H933.927V76.1133ZM927.526 65.0537C927.521 65.6592 927.628 66.2378 927.848 66.7896C928.073 67.3413 928.417 67.832 928.881 68.2617C929.35 68.6914 929.938 69.0186 930.646 69.2432L929.694 70.708C928.961 70.4639 928.332 70.105 927.804 69.6313C927.277 69.1577 926.862 68.5962 926.559 67.9468C926.251 68.6499 925.827 69.2603 925.285 69.7778C924.743 70.2954 924.093 70.6836 923.336 70.9424L922.37 69.4629C923.087 69.2236 923.686 68.8745 924.164 68.4155C924.647 67.9565 925.004 67.439 925.233 66.8628C925.463 66.2817 925.578 65.6787 925.578 65.0537V63.7646H927.526V65.0537ZM934.601 88.7812H922.414V87.3164H927.599V86.1738H923.893V81.6035H933.136V83.0537H925.753V84.709H933.209V86.1738H929.43V87.3164H934.601V88.7812ZM928.478 89.4551C929.44 89.4551 930.268 89.5503 930.961 89.7407C931.654 89.9312 932.187 90.2119 932.558 90.583C932.929 90.9492 933.117 91.3936 933.122 91.916C933.117 92.4287 932.929 92.8682 932.558 93.2344C932.187 93.6006 931.652 93.8789 930.954 94.0693C930.26 94.2646 929.435 94.3623 928.478 94.3623C927.511 94.3623 926.676 94.2646 925.973 94.0693C925.275 93.8789 924.738 93.6006 924.362 93.2344C923.991 92.8682 923.805 92.4287 923.805 91.916C923.805 91.3936 923.991 90.9492 924.362 90.583C924.733 90.2119 925.268 89.9312 925.966 89.7407C926.669 89.5503 927.506 89.4551 928.478 89.4551ZM928.478 90.876C927.555 90.876 926.862 90.9639 926.398 91.1396C925.934 91.3154 925.705 91.5742 925.709 91.916C925.705 92.2627 925.932 92.5215 926.391 92.6924C926.85 92.8584 927.545 92.9414 928.478 92.9414C929.391 92.9414 930.08 92.8584 930.543 92.6924C931.007 92.5215 931.242 92.2627 931.247 91.916C931.242 91.5742 931.005 91.3154 930.536 91.1396C930.067 90.9639 929.381 90.876 928.478 90.876ZM928.419 107.323C929.391 107.323 930.233 107.423 930.946 107.624C931.659 107.819 932.208 108.107 932.594 108.488C932.98 108.864 933.175 109.315 933.18 109.843C933.175 110.36 932.98 110.807 932.594 111.183C932.208 111.559 931.657 111.847 930.939 112.047C930.226 112.248 929.386 112.348 928.419 112.348C927.462 112.348 926.625 112.248 925.907 112.047C925.194 111.847 924.643 111.559 924.252 111.183C923.866 110.807 923.673 110.36 923.673 109.843C923.673 109.315 923.866 108.864 924.252 108.488C924.643 108.107 925.194 107.819 925.907 107.624C926.62 107.423 927.458 107.323 928.419 107.323ZM928.419 108.715C927.492 108.715 926.779 108.81 926.281 109C925.783 109.191 925.534 109.472 925.534 109.843C925.534 110.199 925.783 110.47 926.281 110.656C926.779 110.836 927.492 110.927 928.419 110.927C929.347 110.927 930.062 110.836 930.565 110.656C931.068 110.47 931.32 110.199 931.32 109.843C931.32 109.472 931.068 109.191 930.565 109C930.062 108.81 929.347 108.715 928.419 108.715ZM933.107 100.702C933.107 101.42 933.085 102.042 933.041 102.57C933.002 103.097 932.897 103.666 932.726 104.276L930.895 104.101C931.027 103.554 931.115 103.053 931.159 102.599C931.203 102.145 931.229 101.64 931.239 101.083H923.805V99.6182H933.107V100.702ZM934.542 106.474H922.443V104.965H926.984V102.636H928.83V104.965H934.542V106.474ZM926.134 117.589C926.696 117.584 927.213 117.682 927.687 117.882C928.166 118.082 928.566 118.363 928.888 118.724C929.215 119.085 929.438 119.503 929.555 119.977H931.789V117.018H933.649V124.181H931.789V121.471H929.569C929.457 121.954 929.237 122.384 928.91 122.76C928.588 123.131 928.185 123.419 927.702 123.624C927.223 123.829 926.701 123.932 926.134 123.932C925.46 123.932 924.853 123.795 924.311 123.521C923.769 123.248 923.344 122.87 923.036 122.386C922.733 121.898 922.584 121.349 922.589 120.738C922.584 120.138 922.733 119.598 923.036 119.12C923.344 118.636 923.769 118.26 924.311 117.992C924.853 117.718 925.46 117.584 926.134 117.589ZM926.134 119.142C925.788 119.137 925.478 119.2 925.204 119.332C924.936 119.459 924.726 119.645 924.574 119.889C924.428 120.128 924.357 120.411 924.362 120.738C924.357 121.065 924.428 121.351 924.574 121.595C924.726 121.839 924.936 122.03 925.204 122.167C925.478 122.298 925.788 122.364 926.134 122.364C926.471 122.364 926.771 122.298 927.035 122.167C927.299 122.03 927.504 121.839 927.65 121.595C927.802 121.351 927.877 121.065 927.877 120.738C927.877 120.411 927.802 120.128 927.65 119.889C927.504 119.645 927.299 119.459 927.035 119.332C926.771 119.2 926.471 119.137 926.134 119.142ZM926.603 126.056H931.789V124.767H933.649V130.201H924.757V124.767H926.603V126.056ZM931.789 128.692V127.491H926.603V128.692H931.789Z" fill="white"/>
<path d="M952.942 40.3477H951.169V33.6533H949.88V39.7031H948.167V27.2373H949.88V32.1592H951.169V27.0176H952.942V40.3477ZM946.76 30.0645H943.669V35.7554C944.373 35.7456 945.017 35.7188 945.603 35.6748C946.189 35.6309 946.785 35.5527 947.39 35.4404L947.522 36.9639C946.775 37.1055 946.042 37.2007 945.325 37.2495C944.607 37.2935 943.738 37.3203 942.717 37.3301H941.794V28.5557H946.76V30.0645ZM953.616 56.8682H941.414V55.374H944.446V52.8398H942.424V51.3311H944.211V47.5811H942.366V46.0869H952.59V47.5811H950.715V51.3311H952.532V52.8398H950.525V55.374H953.616V56.8682ZM948.87 51.3311V47.5811H946.086V51.3311H948.87ZM948.65 55.374V52.8398H946.321V55.374H948.65ZM952.576 76.377H950.686V63.0176H952.576V76.377ZM945.339 63.9551C946.008 63.9551 946.606 64.1504 947.134 64.541C947.666 64.9316 948.083 65.4858 948.386 66.2036C948.689 66.9214 948.84 67.7539 948.84 68.7012C948.84 69.6582 948.689 70.498 948.386 71.2207C948.083 71.9385 947.666 72.4927 947.134 72.8833C946.606 73.269 946.008 73.4619 945.339 73.4619C944.656 73.4619 944.045 73.269 943.508 72.8833C942.971 72.4927 942.551 71.9385 942.249 71.2207C941.951 70.498 941.804 69.6582 941.809 68.7012C941.804 67.7539 941.951 66.9214 942.249 66.2036C942.551 65.4858 942.971 64.9316 943.508 64.541C944.045 64.1504 944.656 63.9551 945.339 63.9551ZM945.339 65.6396C944.993 65.6396 944.688 65.7593 944.424 65.9985C944.165 66.2329 943.965 66.5796 943.823 67.0386C943.682 67.4976 943.611 68.0518 943.611 68.7012C943.611 69.3555 943.682 69.9121 943.823 70.3711C943.965 70.8301 944.165 71.1768 944.424 71.4111C944.688 71.6455 944.993 71.7627 945.339 71.7627C945.681 71.7627 945.979 71.6455 946.233 71.4111C946.487 71.1719 946.685 70.8228 946.826 70.3638C946.968 69.9048 947.039 69.3506 947.039 68.7012C947.039 68.0566 946.968 67.5049 946.826 67.0459C946.685 66.582 946.484 66.2329 946.226 65.9985C945.972 65.7593 945.676 65.6396 945.339 65.6396ZM946.321 84.0352C946.316 84.8506 946.431 85.6416 946.665 86.4082C946.899 87.1699 947.253 87.8535 947.727 88.459C948.201 89.0645 948.782 89.5332 949.47 89.8652L948.342 91.3594C947.649 91.0176 947.056 90.5366 946.562 89.9165C946.074 89.2964 945.686 88.5688 945.398 87.7339C945.1 88.6226 944.688 89.4014 944.16 90.0703C943.638 90.7344 943.01 91.2471 942.278 91.6084L941.121 90.0996C941.848 89.7676 942.461 89.2866 942.959 88.6567C943.457 88.022 943.828 87.3066 944.072 86.5107C944.321 85.71 944.446 84.8848 944.446 84.0352V82.043H946.321V84.0352ZM951.931 86.1592H953.894V87.7412H951.931V94.3477H950.056V81.0176H951.931V86.1592Z" fill="white"/>
<rect x="986" width="72" height="176" rx="8" fill="#2F75FF"/>
<path d="M1018.6 34.7812H1006.41V33.3164H1011.6V32.1738H1007.89V27.6035H1017.14V29.0537H1009.75V30.709H1017.21V32.1738H1013.43V33.3164H1018.6V34.7812ZM1012.48 35.4551C1013.44 35.4551 1014.27 35.5503 1014.96 35.7407C1015.65 35.9312 1016.19 36.2119 1016.56 36.583C1016.93 36.9492 1017.12 37.3936 1017.12 37.916C1017.12 38.4287 1016.93 38.8682 1016.56 39.2344C1016.19 39.6006 1015.65 39.8789 1014.95 40.0693C1014.26 40.2646 1013.44 40.3623 1012.48 40.3623C1011.51 40.3623 1010.68 40.2646 1009.97 40.0693C1009.27 39.8789 1008.74 39.6006 1008.36 39.2344C1007.99 38.8682 1007.81 38.4287 1007.81 37.916C1007.81 37.3936 1007.99 36.9492 1008.36 36.583C1008.73 36.2119 1009.27 35.9312 1009.97 35.7407C1010.67 35.5503 1011.51 35.4551 1012.48 35.4551ZM1012.48 36.876C1011.56 36.876 1010.86 36.9639 1010.4 37.1396C1009.93 37.3154 1009.7 37.5742 1009.71 37.916C1009.7 38.2627 1009.93 38.5215 1010.39 38.6924C1010.85 38.8584 1011.55 38.9414 1012.48 38.9414C1013.39 38.9414 1014.08 38.8584 1014.54 38.6924C1015.01 38.5215 1015.24 38.2627 1015.25 37.916C1015.24 37.5742 1015 37.3154 1014.54 37.1396C1014.07 36.9639 1013.38 36.876 1012.48 36.876ZM1011.32 48.1523C1011.32 48.665 1011.44 49.1631 1011.67 49.6465C1011.89 50.1299 1012.24 50.5645 1012.71 50.9502C1013.19 51.3359 1013.77 51.6338 1014.47 51.8438L1013.58 53.2939C1012.85 53.0889 1012.22 52.7715 1011.69 52.3418C1011.15 51.9072 1010.73 51.3921 1010.42 50.7964C1010.12 51.4409 1009.7 51.9976 1009.16 52.4663C1008.63 52.9302 1007.99 53.2793 1007.23 53.5137L1006.33 52.0488C1007.02 51.8438 1007.61 51.541 1008.08 51.1406C1008.54 50.7354 1008.89 50.2764 1009.12 49.7637C1009.35 49.251 1009.46 48.7139 1009.46 48.1523V48.0498H1006.78V46.585H1009.46V45.1055H1011.35V46.585H1014.02V48.0498H1011.32V48.1523ZM1017.65 54.9199H1015.79V50.4229H1013.58V48.9141H1015.79V45.0322H1017.65V54.9199ZM1017.97 58.1133H1008.8V54.0703H1010.68V56.6191H1017.97V58.1133ZM1013.49 64.0576C1013.49 64.5947 1013.67 65.1245 1014.03 65.647C1014.39 66.1646 1014.92 66.6138 1015.63 66.9946C1016.33 67.3755 1017.17 67.627 1018.15 67.749L1017.41 69.2578C1016.27 69.0918 1015.28 68.7598 1014.43 68.2617C1013.59 67.7588 1012.95 67.1387 1012.5 66.4014C1012.06 67.1387 1011.42 67.7588 1010.58 68.2617C1009.75 68.7598 1008.76 69.0918 1007.63 69.2578L1006.88 67.749C1007.85 67.627 1008.68 67.3755 1009.39 66.9946C1010.09 66.6138 1010.62 66.1646 1010.98 65.647C1011.35 65.1245 1011.53 64.5947 1011.53 64.0576V63.4131H1013.49V64.0576ZM1018.57 71.792H1013.39V76.3477H1011.54V71.792H1006.41V70.2686H1018.57V71.792Z" fill="white"/>
<path d="M1036.94 27.0176V40.3477H1035.17V33.6533H1033.88V39.7031H1032.17V27.2373H1033.88V32.1592H1035.17V27.0176H1036.94ZM1030.76 28.5557V30.0645H1027.67V35.748C1028.96 35.7407 1030.1 35.6748 1031.39 35.4404L1031.52 36.9639C1029.9 37.2715 1028.48 37.3154 1026.72 37.3301H1025.79V28.5557H1030.76ZM1037.62 55.374V56.8682H1025.41V55.374H1028.45V52.8398H1026.42V51.3311H1028.21V47.5811H1026.37V46.0869H1036.59V47.5811H1034.72V51.3311H1036.53V52.8398H1034.52V55.374H1037.62ZM1030.09 51.3311H1032.87V47.5811H1030.09V51.3311ZM1030.32 55.374H1032.65V52.8398H1030.32V55.374ZM1036.58 63.0176V76.377H1034.69V63.0176H1036.58ZM1029.34 63.9551C1031.35 63.9551 1032.84 65.8008 1032.84 68.7012C1032.84 71.6309 1031.35 73.4619 1029.34 73.4619C1027.29 73.4619 1025.79 71.6309 1025.81 68.7012C1025.79 65.8008 1027.29 63.9551 1029.34 63.9551ZM1029.34 65.6396C1028.3 65.6396 1027.61 66.7236 1027.61 68.7012C1027.61 70.6934 1028.3 71.7627 1029.34 71.7627C1030.35 71.7627 1031.04 70.6934 1031.04 68.7012C1031.04 66.7236 1030.35 65.6396 1029.34 65.6396ZM1030.32 84.0352C1030.31 86.4229 1031.33 88.8398 1033.47 89.8652L1032.34 91.3594C1030.91 90.6562 1029.95 89.3379 1029.4 87.7266C1028.82 89.4551 1027.79 90.8687 1026.28 91.6084L1025.12 90.0996C1027.38 89.0596 1028.45 86.5107 1028.45 84.0352V82.043H1030.32V84.0352ZM1035.93 81.0176V86.1592H1037.89V87.7412H1035.93V94.3477H1034.06V81.0176H1035.93Z" fill="white"/>
<rect x="1070" width="72" height="176" rx="8" fill="#2F75FF"/>
<path d="M1094 27.9551C1096.04 27.9551 1097.5 29.8008 1097.52 32.7012C1097.5 35.6309 1096.04 37.4619 1094 37.4619C1091.97 37.4619 1090.47 35.6309 1090.49 32.7012C1090.47 29.8008 1091.97 27.9551 1094 27.9551ZM1094 29.6396C1092.98 29.6396 1092.29 30.7236 1092.29 32.7012C1092.29 34.6934 1092.98 35.7627 1094 35.7627C1095.04 35.7627 1095.72 34.6934 1095.73 32.7012C1095.72 30.7236 1095.04 29.6396 1094 29.6396ZM1100.93 27.0176V32.042H1102.89V33.5947H1100.93V40.3477H1099.06V27.0176H1100.93ZM1101.87 45.0176V55.0957H1100.1V45.0176H1101.87ZM1099.16 45.2227V54.6709H1097.4V50.2031H1096.2V52.7812H1090.88V46.043H1092.65V48.0791H1094.47V46.043H1096.2V48.709H1097.4V45.2227H1099.16ZM1092.65 51.2725H1094.47V49.5H1092.65V51.2725ZM1102.21 56.6191V58.1133H1092.83V53.7627H1094.71V56.6191H1102.21ZM1097.4 67.793V69.3896H1102.57V70.8984H1090.41V69.3896H1095.56V67.793H1097.4ZM1096.48 71.6309C1099.38 71.6309 1101.11 72.4658 1101.12 73.9893C1101.11 75.5127 1099.38 76.3477 1096.48 76.3477C1093.55 76.3477 1091.81 75.5127 1091.81 73.9893C1091.81 72.4658 1093.55 71.6309 1096.48 71.6309ZM1096.48 73.0518C1094.62 73.0518 1093.69 73.3594 1093.71 73.9893C1093.69 74.6484 1094.62 74.9561 1096.48 74.9561C1098.29 74.9561 1099.23 74.6484 1099.25 73.9893C1099.23 73.3594 1098.29 73.0518 1096.48 73.0518ZM1101.47 63.5889V65.0537H1097.85C1098.18 65.9692 1099.55 66.8628 1102.04 67.0898L1101.39 68.5547C1098.87 68.3057 1097.19 67.3755 1096.48 66.0791C1095.77 67.3682 1094.1 68.3057 1091.6 68.5547L1090.94 67.0898C1093.42 66.8628 1094.79 65.9839 1095.13 65.0537H1091.53V63.5889H1101.47ZM1100.99 81.0176V84.2256H1102.79V85.7783H1100.99V88.8252H1099.11V81.0176H1100.99ZM1094.12 89.3379V90.3486H1099.11V89.3379H1100.99V94.2012H1092.26V89.3379H1094.12ZM1094.12 92.7363H1099.11V91.7842H1094.12V92.7363ZM1098.32 82.1895V83.6543H1090.41V82.1895H1093.45V80.9297H1095.31V82.1895H1098.32ZM1094.37 84.0352C1096.3 84.0352 1097.65 84.9727 1097.65 86.3936C1097.65 87.8145 1096.3 88.752 1094.37 88.752C1092.41 88.752 1091.06 87.8145 1091.06 86.3936C1091.06 84.9727 1092.41 84.0352 1094.37 84.0352ZM1094.37 85.4121C1093.48 85.3975 1092.87 85.7637 1092.89 86.3936C1092.87 87.0381 1093.48 87.3896 1094.37 87.3896C1095.26 87.3896 1095.88 87.0381 1095.88 86.3936C1095.88 85.7637 1095.26 85.3975 1094.37 85.4121ZM1101.65 99.0322V108.773H1099.79V104.423H1097.4V102.885H1099.79V99.0322H1101.65ZM1097.52 100.014C1097.52 103.588 1095.25 106.225 1091.35 107.44L1090.59 105.961C1093.35 105.097 1095.13 103.507 1095.48 101.537H1091.28V100.014H1097.52ZM1101.99 110.619V112.113H1092.86V107.792H1094.76V110.619H1101.99ZM1101.65 117.018V123.8H1099.79V120.489H1097.28V119.01H1099.79V117.018H1101.65ZM1101.65 124.356V127.916H1094.65V128.736H1102.03V130.201H1092.8V126.554H1099.8V125.792H1092.79V124.356H1101.65ZM1095.41 118.424C1095.39 120.021 1096.33 121.559 1098.46 122.188L1097.47 123.624C1096.05 123.163 1095.05 122.269 1094.47 121.119C1093.89 122.401 1092.84 123.412 1091.28 123.902L1090.31 122.423C1092.52 121.778 1093.5 120.152 1093.52 118.424V117.457H1095.41V118.424Z" fill="white"/>
<path d="M1120.94 27.0176V40.3477H1119.17V33.6533H1117.88V39.7031H1116.17V27.2373H1117.88V32.1592H1119.17V27.0176H1120.94ZM1114.76 28.5557V30.0645H1111.67V35.748C1112.96 35.7407 1114.1 35.6748 1115.39 35.4404L1115.52 36.9639C1113.9 37.2715 1112.48 37.3154 1110.72 37.3301H1109.79V28.5557H1114.76ZM1121.62 55.374V56.8682H1109.41V55.374H1112.45V52.8398H1110.42V51.3311H1112.21V47.5811H1110.37V46.0869H1120.59V47.5811H1118.72V51.3311H1120.53V52.8398H1118.52V55.374H1121.62ZM1114.09 51.3311H1116.87V47.5811H1114.09V51.3311ZM1114.32 55.374H1116.65V52.8398H1114.32V55.374ZM1120.58 63.0176V76.377H1118.69V63.0176H1120.58ZM1113.34 63.9551C1115.35 63.9551 1116.84 65.8008 1116.84 68.7012C1116.84 71.6309 1115.35 73.4619 1113.34 73.4619C1111.29 73.4619 1109.79 71.6309 1109.81 68.7012C1109.79 65.8008 1111.29 63.9551 1113.34 63.9551ZM1113.34 65.6396C1112.3 65.6396 1111.61 66.7236 1111.61 68.7012C1111.61 70.6934 1112.3 71.7627 1113.34 71.7627C1114.35 71.7627 1115.04 70.6934 1115.04 68.7012C1115.04 66.7236 1114.35 65.6396 1113.34 65.6396ZM1114.32 84.0352C1114.31 86.4229 1115.33 88.8398 1117.47 89.8652L1116.34 91.3594C1114.91 90.6562 1113.95 89.3379 1113.4 87.7266C1112.82 89.4551 1111.79 90.8687 1110.28 91.6084L1109.12 90.0996C1111.38 89.0596 1112.45 86.5107 1112.45 84.0352V82.043H1114.32V84.0352ZM1119.93 81.0176V86.1592H1121.89V87.7412H1119.93V94.3477H1118.06V81.0176H1119.93Z" fill="white"/>
<rect x="1154" width="72" height="176" rx="8" fill="#2F75FF"/>
<path d="M1179.87 39H1176.13V28.3945H1179.91C1183.11 28.3945 1185.06 30.3867 1185.06 33.6826C1185.06 37.0078 1183.11 39 1179.87 39ZM1178.33 37.1104H1179.78C1181.8 37.1104 1182.86 36.0557 1182.86 33.6826C1182.86 31.3242 1181.8 30.2842 1179.8 30.2842H1178.33V37.1104ZM1177.78 57H1175.41L1179.09 46.3945H1181.91L1185.58 57H1183.22L1182.43 54.5537H1178.59L1177.78 57ZM1179.15 52.8398H1181.87L1180.54 48.7822H1180.46L1179.15 52.8398ZM1185.58 63.0322V72.6123H1183.7V63.0322H1185.58ZM1185.93 74.6191V76.1133H1176.64V71.6455H1178.53V74.6191H1185.93ZM1178.27 63.8818C1180.32 63.8818 1181.91 65.2881 1181.91 67.2363C1181.91 69.2285 1180.32 70.6201 1178.27 70.6201C1176.22 70.6201 1174.62 69.2285 1174.62 67.2363C1174.62 65.2881 1176.22 63.8818 1178.27 63.8818ZM1178.27 65.5078C1177.23 65.4932 1176.44 66.1523 1176.45 67.2363C1176.44 68.3496 1177.23 68.9941 1178.27 68.9941C1179.28 68.9941 1180.07 68.3496 1180.07 67.2363C1180.07 66.1523 1179.28 65.4932 1178.27 65.5078ZM1186.62 91.3008V92.8682H1174.41V91.3008H1179.54V88.8984H1175.42V87.4336H1177.21V83.625H1175.37V82.1309H1185.59V83.625H1183.72V87.4336H1185.53V88.8984H1181.4V91.3008H1186.62ZM1179.09 87.4336H1181.87V83.625H1179.09V87.4336ZM1180.1 100.395V103.866H1181.43V99.208H1183.19V111.732H1181.43V105.36H1180.1V108.993H1174.79V100.395H1180.1ZM1176.54 101.874V107.528H1178.35V101.874H1176.54ZM1185.97 99.0176V112.348H1184.18V99.0176H1185.97ZM1185.58 117.018V130.377H1183.69V117.018H1185.58ZM1178.34 117.955C1180.35 117.955 1181.84 119.801 1181.84 122.701C1181.84 125.631 1180.35 127.462 1178.34 127.462C1176.29 127.462 1174.79 125.631 1174.81 122.701C1174.79 119.801 1176.29 117.955 1178.34 117.955ZM1178.34 119.64C1177.3 119.64 1176.61 120.724 1176.61 122.701C1176.61 124.693 1177.3 125.763 1178.34 125.763C1179.35 125.763 1180.04 124.693 1180.04 122.701C1180.04 120.724 1179.35 119.64 1178.34 119.64ZM1179.41 137.317C1179.41 139.163 1180.32 140.994 1182.43 141.771L1181.39 143.221C1179.99 142.671 1179.03 141.624 1178.49 140.306C1177.9 141.712 1176.87 142.811 1175.35 143.382L1174.35 141.917C1176.54 141.141 1177.52 139.266 1177.52 137.317V135.779H1179.41V137.317ZM1185.65 135.032V144.92H1183.79V140.848H1181.5V139.339H1183.79V138.27H1181.5V136.761H1183.79V135.032H1185.65ZM1185.93 146.619V148.113H1176.77V143.968H1178.66V146.619H1185.93Z" fill="white"/>
<path d="M1204.94 40.3477H1203.17V33.6533H1201.88V39.7031H1200.17V27.2373H1201.88V32.1592H1203.17V27.0176H1204.94V40.3477ZM1198.76 30.0645H1195.67V35.7554C1196.37 35.7456 1197.02 35.7188 1197.6 35.6748C1198.19 35.6309 1198.78 35.5527 1199.39 35.4404L1199.52 36.9639C1198.77 37.1055 1198.04 37.2007 1197.32 37.2495C1196.61 37.2935 1195.74 37.3203 1194.72 37.3301H1193.79V28.5557H1198.76V30.0645ZM1205.62 56.8682H1193.41V55.374H1196.45V52.8398H1194.42V51.3311H1196.21V47.5811H1194.37V46.0869H1204.59V47.5811H1202.72V51.3311H1204.53V52.8398H1202.52V55.374H1205.62V56.8682ZM1200.87 51.3311V47.5811H1198.09V51.3311H1200.87ZM1200.65 55.374V52.8398H1198.32V55.374H1200.65ZM1204.58 76.377H1202.69V63.0176H1204.58V76.377ZM1197.34 63.9551C1198.01 63.9551 1198.61 64.1504 1199.13 64.541C1199.67 64.9316 1200.08 65.4858 1200.39 66.2036C1200.69 66.9214 1200.84 67.7539 1200.84 68.7012C1200.84 69.6582 1200.69 70.498 1200.39 71.2207C1200.08 71.9385 1199.67 72.4927 1199.13 72.8833C1198.61 73.269 1198.01 73.4619 1197.34 73.4619C1196.66 73.4619 1196.05 73.269 1195.51 72.8833C1194.97 72.4927 1194.55 71.9385 1194.25 71.2207C1193.95 70.498 1193.8 69.6582 1193.81 68.7012C1193.8 67.7539 1193.95 66.9214 1194.25 66.2036C1194.55 65.4858 1194.97 64.9316 1195.51 64.541C1196.05 64.1504 1196.66 63.9551 1197.34 63.9551ZM1197.34 65.6396C1196.99 65.6396 1196.69 65.7593 1196.42 65.9985C1196.17 66.2329 1195.96 66.5796 1195.82 67.0386C1195.68 67.4976 1195.61 68.0518 1195.61 68.7012C1195.61 69.3555 1195.68 69.9121 1195.82 70.3711C1195.96 70.8301 1196.17 71.1768 1196.42 71.4111C1196.69 71.6455 1196.99 71.7627 1197.34 71.7627C1197.68 71.7627 1197.98 71.6455 1198.23 71.4111C1198.49 71.1719 1198.68 70.8228 1198.83 70.3638C1198.97 69.9048 1199.04 69.3506 1199.04 68.7012C1199.04 68.0566 1198.97 67.5049 1198.83 67.0459C1198.68 66.582 1198.48 66.2329 1198.23 65.9985C1197.97 65.7593 1197.68 65.6396 1197.34 65.6396ZM1198.32 84.0352C1198.32 84.8506 1198.43 85.6416 1198.67 86.4082C1198.9 87.1699 1199.25 87.8535 1199.73 88.459C1200.2 89.0645 1200.78 89.5332 1201.47 89.8652L1200.34 91.3594C1199.65 91.0176 1199.06 90.5366 1198.56 89.9165C1198.07 89.2964 1197.69 88.5688 1197.4 87.7339C1197.1 88.6226 1196.69 89.4014 1196.16 90.0703C1195.64 90.7344 1195.01 91.2471 1194.28 91.6084L1193.12 90.0996C1193.85 89.7676 1194.46 89.2866 1194.96 88.6567C1195.46 88.022 1195.83 87.3066 1196.07 86.5107C1196.32 85.71 1196.45 84.8848 1196.45 84.0352V82.043H1198.32V84.0352ZM1203.93 86.1592H1205.89V87.7412H1203.93V94.3477H1202.06V81.0176H1203.93V86.1592Z" fill="white"/>
</svg>
