<svg width="48" height="48" viewBox="0 0 48 48" fill="none" xmlns="http://www.w3.org/2000/svg">
<path d="M17.161 47.5301C17.161 47.5301 17.3374 38.3487 16.1846 34.9329C15.0082 31.5171 13.7142 26.0058 5.04438 20.2644C2.02111 18.2537 1.02119 18.4354 0.715335 18.6171C0.397715 18.7988 -0.0728332 19.6345 0.0095127 23.3289C0.103622 27.0354 -0.166943 37.198 4.05623 41.6797C8.27939 46.1614 11.5497 47.2273 17.161 47.5301Z" fill="#00B4D6"/>
<path d="M24.0328 23.3015C30.8205 12.1215 41.0314 8.18482 42.1489 7.83355C43.1135 7.54285 43.5958 7.2158 43.6782 6.39214C43.7723 5.60481 42.5253 3.90903 38.9256 2.15269C34.0084 -0.257743 24.0328 0.0087369 24.0328 0.0087369C24.0328 0.0087369 14.069 -0.257743 9.15173 2.15269C5.55204 3.90903 4.29333 5.60481 4.38744 6.39214C4.48155 7.2158 4.94033 7.53074 5.91672 7.83355C7.02251 8.18482 17.2569 12.1215 24.0328 23.3015Z" fill="#00B4D6"/>
<path d="M23.9917 47.8675C25.7797 47.8675 27.4149 47.7827 28.9206 47.6858C28.9206 47.6858 29.0971 39.4249 28.603 36.3604C28.0619 32.9446 26.9208 27.5545 23.9917 23.3877C21.086 27.5424 19.9332 32.9446 19.392 36.3604C18.9097 39.4249 19.0862 47.6858 19.0862 47.6858C20.5802 47.7948 22.2271 47.8675 23.9917 47.8675Z" fill="#00B4D6"/>
<path d="M30.8364 47.5301C30.8364 47.5301 30.66 38.3487 31.8246 34.9329C33.001 31.5171 34.3067 26.0058 42.9648 20.2644C45.9881 18.2537 46.988 18.4354 47.2939 18.6171C47.6115 18.7988 48.082 19.6345 47.9879 23.3289C47.9056 27.0354 48.1761 37.198 43.953 41.6797C39.7298 46.1614 36.4595 47.2273 30.8364 47.5301Z" fill="#00B4D6"/>
<path d="M2.99903 10.5725C2.38732 10.4514 1.97559 9.8215 1.97559 9.14318C1.97559 8.31952 2.62259 7.65332 3.41076 7.65332C3.54016 7.65332 3.79896 7.68966 3.98718 7.78656C3.98718 7.78656 10.4925 10.8269 14.598 16.3866L14.4922 16.5562C9.01028 12.135 2.99903 10.5725 2.99903 10.5725Z" fill="#00B4D6"/>
<path d="M1.57002 14.0362C0.95831 13.8787 0.499526 13.3215 0.475998 12.6432C0.452471 11.8195 1.06418 11.0928 1.86411 11.0928C2.05233 11.0928 2.31113 11.1291 2.51112 11.226C2.51112 11.226 9.0635 13.9635 13.169 19.1235L13.0514 19.2689C7.32247 15.09 1.57002 14.0362 1.57002 14.0362Z" fill="#00B4D6"/>
<path d="M1.24771 17.7525C0.647764 17.6071 0.212508 17.0621 0.18898 16.4201C0.153689 15.6207 0.753638 14.906 1.54181 14.906C1.58886 14.906 1.84766 14.906 2.0947 15.0029C2.0947 15.0029 8.41181 17.6556 11.7056 21.7618L11.5998 21.9435C6.10612 18.3339 1.24771 17.7646 1.24771 17.7646V17.7525Z" fill="#00B4D6"/>
<path d="M44.9921 10.5725C45.6156 10.4514 46.0273 9.8215 46.0273 9.14318C46.0273 8.31952 45.3686 7.65332 44.5686 7.65332C44.451 7.65332 44.1922 7.68966 43.9922 7.78656C43.9922 7.78656 37.4751 10.8269 33.3813 16.3866L33.4872 16.5562C38.9809 12.135 44.9804 10.5725 44.9804 10.5725H44.9921Z" fill="#00B4D6"/>
<path d="M46.4739 14.0362C47.0738 13.8787 47.5326 13.3215 47.5561 12.6432C47.5914 11.8195 46.9562 11.0928 46.168 11.0928C45.9915 11.0928 45.721 11.1291 45.521 11.226C45.521 11.226 38.9686 13.9635 34.8513 19.1235L34.969 19.2689C40.6979 15.09 46.4621 14.0241 46.4621 14.0241L46.4739 14.0362Z" fill="#00B4D6"/>
<path d="M46.7573 17.7525C47.3455 17.6071 47.7925 17.0621 47.8043 16.4201C47.8513 15.6207 47.2514 14.906 46.475 14.906C46.4044 14.906 46.1573 14.906 45.9103 15.0029C45.9103 15.0029 39.5814 17.6556 36.2876 21.7618L36.3935 21.9435C41.8636 18.3339 46.7455 17.7646 46.7455 17.7646L46.7573 17.7525Z" fill="#00B4D6"/>
</svg>
