<svg viewBox="0 0 384 384" fill="none" xmlns="http://www.w3.org/2000/svg">
<mask id="path-1-inside-1_833_3137" fill="#000">
<path fill-rule="evenodd" clip-rule="evenodd" d="M208 32H322C338.569 32 352 45.4315 352 62V176C369.673 176 384 190.327 384 208C384 225.673 369.673 240 352 240V354C352 370.569 338.569 384 322 384H208C208 366.327 193.673 352 176 352C158.327 352 144 366.327 144 384H30C13.4315 384 0 370.569 0 354V240C17.6731 240 32 225.673 32 208C32 190.327 17.6731 176 0 176V62C0 45.4314 13.4315 32 30 32H144C144 14.3269 158.327 0 176 0C193.673 0 208 14.3269 208 32Z"/>
</mask>
<path fill-rule="evenodd" clip-rule="evenodd" d="M208 32H322C338.569 32 352 45.4315 352 62V176C369.673 176 384 190.327 384 208C384 225.673 369.673 240 352 240V354C352 370.569 338.569 384 322 384H208C208 366.327 193.673 352 176 352C158.327 352 144 366.327 144 384H30C13.4315 384 0 370.569 0 354V240C17.6731 240 32 225.673 32 208C32 190.327 17.6731 176 0 176V62C0 45.4314 13.4315 32 30 32H144C144 14.3269 158.327 0 176 0C193.673 0 208 14.3269 208 32Z" fill="#000"/>

</svg>
