<svg viewBox="0 0 583 583" fill="none" xmlns="http://www.w3.org/2000/svg">
<g style="mix-blend-mode:overlay" opacity="1">
<path fill-rule="evenodd" clip-rule="evenodd" d="M326.586 48.9609C321.38 21.0936 296.917 0 267.525 0C238.133 0 213.67 21.0936 208.464 48.9609H30C13.4315 48.9609 0 62.3924 0 78.9609V246.557C0 252.079 5.0098 256.223 10.5311 256.223C43.7145 256.223 70.6149 283.109 70.6149 316.275C70.6149 349.441 43.7145 376.327 10.5311 376.327C5.0098 376.327 0 380.471 0 385.992V552.998C0 569.566 13.4314 582.998 30 582.998H197.895C203.347 582.998 207.441 578.058 207.441 572.607C207.441 539.441 234.342 512.555 267.525 512.555C300.709 512.555 327.609 539.441 327.609 572.607C327.609 578.058 331.704 582.998 337.155 582.998H503.951C520.519 582.998 533.951 569.566 533.951 552.998V375.32C561.864 370.142 583.001 345.678 583.001 316.279C583.001 286.88 561.864 262.415 533.951 257.237V78.9609C533.951 62.3924 520.519 48.9609 503.951 48.9609H326.586Z" fill="white"/>
</g>
</svg>
