<svg width="448" height="448" viewBox="0 0 448 448" fill="none" xmlns="http://www.w3.org/2000/svg">
<g filter="url(#filter0_d_1101_1455)">
<mask id="path-1-inside-1_1101_1455" fill="white">
<path fill-rule="evenodd" clip-rule="evenodd" d="M230 54H344C360.569 54 374 67.4315 374 84V198C391.673 198 406 212.327 406 230C406 247.673 391.673 262 374 262V376C374 392.569 360.569 406 344 406H229C229 388.879 215.121 375 198 375C180.879 375 167 388.879 167 406H52C35.4315 406 22 392.569 22 376V261C39.1208 261 53 247.121 53 230C53 212.879 39.1208 199 22 199V84C22 67.4314 35.4315 54 52 54H166C166 36.3269 180.327 22 198 22C215.673 22 230 36.3269 230 54Z"/>
</mask>
<path fill-rule="evenodd" clip-rule="evenodd" d="M230 54H344C360.569 54 374 67.4315 374 84V198C391.673 198 406 212.327 406 230C406 247.673 391.673 262 374 262V376C374 392.569 360.569 406 344 406H229C229 388.879 215.121 375 198 375C180.879 375 167 388.879 167 406H52C35.4315 406 22 392.569 22 376V261C39.1208 261 53 247.121 53 230C53 212.879 39.1208 199 22 199V84C22 67.4314 35.4315 54 52 54H166C166 36.3269 180.327 22 198 22C215.673 22 230 36.3269 230 54Z" fill="#162DA1"/>
<path d="M230 54H229V55H230V54ZM374 198H373V199H374V198ZM374 262V261H373V262H374ZM229 406H228V407H229V406ZM167 406V407H168V406H167ZM22 261V260H21V261H22ZM22 199H21V200H22V199ZM166 54V55H167V54H166ZM230 55H344V53H230V55ZM344 55C360.016 55 373 67.9837 373 84H375C375 66.8792 361.121 53 344 53V55ZM373 84V198H375V84H373ZM407 230C407 211.775 392.225 197 374 197V199C391.121 199 405 212.879 405 230H407ZM374 263C392.225 263 407 248.225 407 230H405C405 247.121 391.121 261 374 261V263ZM373 262V376H375V262H373ZM373 376C373 392.016 360.016 405 344 405V407C361.121 407 375 393.121 375 376H373ZM344 405H229V407H344V405ZM230 406C230 388.327 215.673 374 198 374V376C214.569 376 228 389.431 228 406H230ZM198 374C180.327 374 166 388.327 166 406H168C168 389.431 181.431 376 198 376V374ZM167 405H52V407H167V405ZM52 405C35.9837 405 23 392.016 23 376H21C21 393.121 34.8792 407 52 407V405ZM23 376V261H21V376H23ZM22 262C39.6731 262 54 247.673 54 230H52C52 246.569 38.5685 260 22 260V262ZM54 230C54 212.327 39.6731 198 22 198V200C38.5685 200 52 213.431 52 230H54ZM23 199V84H21V199H23ZM23 84C23 67.9837 35.9837 55 52 55V53C34.8792 53 21 66.8792 21 84H23ZM52 55H166V53H52V55ZM198 21C179.775 21 165 35.7746 165 54H167C167 36.8792 180.879 23 198 23V21ZM231 54C231 35.7746 216.225 21 198 21V23C215.121 23 229 36.8792 229 54H231Z" fill="#162DA1" mask="url(#path-1-inside-1_1101_1455)"/>
</g>
<defs>
<filter id="filter0_d_1101_1455" x="0" y="0" width="448" height="448" filterUnits="userSpaceOnUse" color-interpolation-filters="sRGB">
<feFlood flood-opacity="0" result="BackgroundImageFix"/>
<feColorMatrix in="SourceAlpha" type="matrix" values="0 0 0 0 0 0 0 0 0 0 0 0 0 0 0 0 0 0 127 0" result="hardAlpha"/>
<feOffset dx="10" dy="10"/>
<feGaussianBlur stdDeviation="16"/>
<feComposite in2="hardAlpha" operator="out"/>
<feColorMatrix type="matrix" values="0 0 0 0 0.0862745 0 0 0 0 0.176471 0 0 0 0 0.631373 0 0 0 0.24 0"/>
<feBlend mode="normal" in2="BackgroundImageFix" result="effect1_dropShadow_1101_1455"/>
<feBlend mode="normal" in="SourceGraphic" in2="effect1_dropShadow_1101_1455" result="shape"/>
</filter>
</defs>
</svg>
