<svg width="231" height="24" viewBox="0 0 231 24" fill="none" xmlns="http://www.w3.org/2000/svg">
<path d="M82.0012 10.9449H85.761V8.30955H82.0012V1.11328H78.375V23.0886H82.0012V10.9449Z" fill="#231F20"/>
<path d="M66.479 22.4558C71.4123 22.4558 75.411 17.6138 75.411 11.6473C75.411 5.68089 71.4123 0.838867 66.479 0.838867C61.5456 0.838867 57.5469 5.68089 57.5469 11.6473C57.5469 17.6138 61.5456 22.4558 66.479 22.4558ZM66.479 3.02445C69.4165 3.02445 71.7918 6.88261 71.7918 11.6473C71.7918 16.412 69.4095 20.2702 66.479 20.2702C63.5484 20.2702 61.1661 16.412 61.1661 11.6473C61.1661 6.88261 63.5484 3.02445 66.479 3.02445Z" fill="#231F20"/>
<path d="M54.6523 10.2552H43.0075V8.42801H53.1203V6.34081H32.5715V3.52275H53.1203V1.43555H28.9453V6.22837C28.9453 7.44415 30.0275 8.42801 31.3628 8.42801H39.051V10.2552H27.4062V12.4548H54.6523V10.2552Z" fill="#231F20"/>
<path d="M103.725 15.9482H99.9863V19.7994H88.6719V22.2169H115.039V19.7994H103.725V15.9482Z" fill="#231F20"/>
<path d="M172.25 19.7994H160.936V15.9482H157.197V19.7994H145.883V22.2169H172.25V19.7994Z" fill="#231F20"/>
<path d="M215.499 15.1751H219.238V12.8419H230.995V10.8672H203.742V12.8419H215.499V15.1751Z" fill="#231F20"/>
<path d="M200.848 19.7992H197.678L199.077 5.06938C199.224 3.2914 197.699 1.77344 195.668 1.77344H176.455V4.19796H195.345L193.982 19.7992H175.141V22.2167H200.848V19.7992Z" fill="#231F20"/>
<path d="M159.072 14.592C165.748 14.592 171.159 11.4858 171.159 7.66281C171.159 3.83979 165.748 0.726562 159.072 0.726562C152.396 0.726562 146.984 3.83276 146.984 7.66281C146.984 11.4929 152.396 14.592 159.072 14.592ZM159.072 2.91918C163.506 2.91918 167.097 5.04151 167.097 7.65578C167.097 10.2701 163.506 12.3924 159.072 12.3924C154.637 12.3924 151.046 10.2701 151.046 7.65578C151.046 5.04151 154.637 2.91918 159.072 2.91918Z" fill="#231F20"/>
<path d="M28.7812 18.7102C28.7812 21.6266 34.2698 23.9809 41.0444 23.9809C47.819 23.9809 53.3076 21.6196 53.3076 18.7102C53.3076 15.8007 47.819 13.4395 41.0444 13.4395C34.2698 13.4395 28.7812 15.8007 28.7812 18.7102ZM49.4635 18.6539C49.4635 20.4389 45.6897 21.8937 41.0444 21.8937C36.3992 21.8937 32.6183 20.4389 32.6183 18.6539C32.6183 16.8689 36.3921 15.4142 41.0444 15.4142C45.6967 15.4142 49.4635 16.8619 49.4635 18.6539Z" fill="#231F20"/>
<path d="M95.9609 9.08212C96.8253 10.2065 97.9497 11.1623 99.2006 11.9986C98.9898 12.104 98.779 12.2094 98.5611 12.3008L99.6434 14.1982C102.103 13.2635 104.387 11.345 106.13 9.13131C107.866 11.4223 110.698 13.0597 113.516 14.2896L114.584 12.2164C111.485 10.5931 109.433 8.35828 108.224 5.84239C109.011 4.24713 109.461 2.67997 109.461 1.34473H105.399C105.399 3.76222 104.204 7.66957 101.59 10.2698C100.009 8.96265 98.8352 7.44469 98.034 5.7932C98.8 4.21902 99.2428 2.66592 99.2428 1.34473H95.1738C95.1738 4.54931 93.0796 10.3822 88.3359 12.2937L89.4182 14.1912C91.8919 13.2495 94.197 11.3028 95.9539 9.07509L95.9609 9.08212Z" fill="#231F20"/>
<path d="M142.548 1.11328H138.922V23.0886H142.548V1.11328Z" fill="#231F20"/>
<path d="M125.889 14.9008C127.582 17.2902 131.187 19.5601 133.774 20.8883L135.06 18.8152C131.476 16.8053 128.967 14.0434 127.934 11.2886C128.58 9.64414 128.932 7.91534 128.932 6.18655V1.35156H124.975V6.18655C124.975 11.4502 122.22 16.5452 117.477 18.4568L118.559 20.3542C121.637 19.1806 124.118 17.241 125.889 14.9008Z" fill="#231F20"/>
<path d="M205.288 4.51377V7.80269C205.288 8.7725 206.153 9.56662 207.221 9.56662H229.456V7.59187H209.02V6.27068H229.449V2.97473C229.449 2.06114 228.634 1.32324 227.636 1.32324H205.281V3.298H225.823V4.50675H205.281L205.288 4.51377Z" fill="#231F20"/>
<path d="M205.287 14.0791V21.1208C205.287 22.0906 206.152 22.8777 207.22 22.8777H229.455V22.8706V14.0861H225.822V16.5036H208.9V14.0861H205.273L205.287 14.0791ZM225.836 18.4714V20.8889H208.914V18.4714H225.836Z" fill="#231F20"/>
<path d="M7.3813 21.8529C7.3813 21.8529 7.4572 18.0176 6.96134 16.5907C6.45535 15.1638 5.89877 12.8616 2.16969 10.4633C0.86932 9.62335 0.439236 9.69925 0.30768 9.77514C0.171065 9.85104 -0.0313271 10.2002 0.00409161 11.7434C0.0445701 13.2917 -0.0718055 17.5369 1.74467 19.409C3.56114 21.2812 4.96777 21.7264 7.3813 21.8529Z" fill="#00ACCD"/>
<path d="M10.327 11.7337C13.2465 7.06346 17.6384 5.41902 18.1191 5.27229C18.534 5.15085 18.7415 5.01424 18.7769 4.67017C18.8174 4.34128 18.281 3.63291 16.7327 2.89924C14.6177 1.89233 10.327 2.00365 10.327 2.00365C10.327 2.00365 6.04132 1.89233 3.92632 2.89924C2.37802 3.63291 1.83662 4.34128 1.87709 4.67017C1.91757 5.01424 2.11491 5.14579 2.53487 5.27229C3.01049 5.41902 7.41253 7.06346 10.327 11.7337Z" fill="#00ACCD"/>
<path d="M10.3266 22.0001C11.0957 22.0001 11.799 21.9647 12.4467 21.9242C12.4467 21.9242 12.5226 18.4734 12.3101 17.1933C12.0773 15.7664 11.5865 13.5148 10.3266 11.7793C9.07684 13.5148 8.58098 15.7715 8.34823 17.1933C8.14078 18.4734 8.21668 21.9242 8.21668 21.9242C8.85927 21.9698 9.56765 22.0001 10.3266 22.0001Z" fill="#00ACCD"/>
<path d="M13.2697 21.8529C13.2697 21.8529 13.1938 18.0176 13.6948 16.5907C14.2007 15.1638 14.7624 12.8616 18.4864 10.4633C19.7868 9.62335 20.2169 9.69925 20.3484 9.77514C20.485 9.85104 20.6874 10.2002 20.6469 11.7434C20.6115 13.2917 20.7279 17.5369 18.9114 19.409C17.0949 21.2812 15.6883 21.7264 13.2697 21.8529Z" fill="#00ACCD"/>
<path d="M1.29177 6.42059C1.02866 6.36999 0.851562 6.10688 0.851562 5.82353C0.851562 5.47946 1.12985 5.20117 1.46886 5.20117C1.52452 5.20117 1.63583 5.21635 1.71679 5.25683C1.71679 5.25683 4.51487 6.52684 6.28074 8.8493L6.2352 8.92013C3.87733 7.0733 1.29177 6.42059 1.29177 6.42059Z" fill="#00ACCD"/>
<path d="M0.658345 7.85746C0.395235 7.79169 0.197902 7.55894 0.187782 7.27559C0.177663 6.93152 0.440773 6.62793 0.78484 6.62793C0.865797 6.62793 0.977113 6.64311 1.06313 6.68359C1.06313 6.68359 3.88145 7.82711 5.64732 9.98259L5.59672 10.0433C3.13259 8.29767 0.658345 7.85746 0.658345 7.85746Z" fill="#00ACCD"/>
<path d="M0.541957 9.42148C0.283907 9.36076 0.0966938 9.13307 0.0865742 8.8649C0.0713947 8.53095 0.329445 8.23242 0.668453 8.23242C0.688692 8.23242 0.800008 8.23242 0.906264 8.2729C0.906264 8.2729 3.62338 9.381 5.04013 11.0963L4.99459 11.1722C2.63166 9.66435 0.541957 9.42654 0.541957 9.42654V9.42148Z" fill="#00ACCD"/>
<path d="M19.3612 6.42059C19.6294 6.36999 19.8065 6.10688 19.8065 5.82353C19.8065 5.47946 19.5231 5.20117 19.1791 5.20117C19.1285 5.20117 19.0172 5.21635 18.9311 5.25683C18.9311 5.25683 16.128 6.52684 14.3672 8.8493L14.4127 8.92013C16.7757 7.0733 19.3562 6.42059 19.3562 6.42059H19.3612Z" fill="#00ACCD"/>
<path d="M19.9991 7.85746C20.2571 7.79169 20.4545 7.55894 20.4646 7.27559C20.4798 6.93152 20.2065 6.62793 19.8675 6.62793C19.7916 6.62793 19.6753 6.64311 19.5893 6.68359C19.5893 6.68359 16.7709 7.82711 15 9.98259L15.0506 10.0433C17.5147 8.29767 19.994 7.8524 19.994 7.8524L19.9991 7.85746Z" fill="#00ACCD"/>
<path d="M20.1126 9.42148C20.3656 9.36076 20.5579 9.13307 20.5629 8.8649C20.5832 8.53095 20.3251 8.23242 19.9912 8.23242C19.9608 8.23242 19.8546 8.23242 19.7483 8.2729C19.7483 8.2729 17.0261 9.381 15.6094 11.0963L15.6549 11.1722C18.0077 9.66435 20.1075 9.42654 20.1075 9.42654L20.1126 9.42148Z" fill="#00ACCD"/>
</svg>
