<svg width="152" height="20" viewBox="0 0 152 20" fill="none" xmlns="http://www.w3.org/2000/svg">
<path d="M37.3705 17.753C39.7075 17.753 40.9045 17.354 40.9045 16.442C40.9045 15.53 39.7075 15.112 37.3705 15.112C35.0335 15.112 33.8365 15.53 33.8365 16.442C33.8365 17.354 35.0335 17.753 37.3705 17.753ZM37.3705 13.212C41.1515 13.212 43.4505 14.371 43.4505 16.442C43.4505 18.494 41.1515 19.653 37.3705 19.653C33.5895 19.653 31.3095 18.494 31.3095 16.442C31.3095 14.371 33.5895 13.212 37.3705 13.212ZM38.6815 10.362H45.3505V12.357H29.5235V10.362H36.1735V8.918H31.4425V2.876H43.4505V4.871H33.9315V6.923H43.5455V8.918H38.6815V10.362ZM51.676 13.573C52.968 13.573 53.861 12.186 53.861 9.583C53.861 6.999 52.968 5.612 51.676 5.612C50.365 5.612 49.491 6.999 49.491 9.583C49.491 12.186 50.365 13.573 51.676 13.573ZM51.676 3.351C54.317 3.351 56.274 5.745 56.274 9.583C56.274 13.44 54.317 15.853 51.676 15.853C49.016 15.853 47.078 13.44 47.078 9.583C47.078 5.745 49.016 3.351 51.676 3.351ZM63.228 8.728V10.799H60.682V19.634H58.174V2.135H60.682V8.728H63.228ZM80.4025 10.115L79.1295 11.977C77.4765 11.312 76.4125 10.115 75.8235 8.614C75.1965 10.077 74.0945 11.312 72.3655 11.958C70.6365 11.312 69.5535 10.077 68.9075 8.633C68.3185 10.115 67.2735 11.312 65.6205 11.977L64.3475 10.115C66.7225 9.184 67.6345 7.151 67.6345 5.118V3.313H70.1235V5.118C70.1235 6.638 70.7505 8.367 72.3655 9.45C73.9805 8.367 74.5885 6.657 74.5885 5.118V3.313H77.1155V5.118C77.1155 7.208 78.0275 9.203 80.4025 10.115ZM73.6195 12.547V15.568H80.2885V17.601H64.4615V15.568H71.1115V12.547H73.6195ZM88.723 3.484V6.03C88.723 9.279 90.11 12.471 93.074 13.744L91.649 15.777C89.635 14.865 88.286 13.136 87.507 10.989C86.728 13.326 85.303 15.207 83.213 16.195L81.712 14.124C84.771 12.813 86.215 9.431 86.215 6.03V3.484H88.723ZM93.929 2.116H96.437V19.672H93.929V2.116ZM103.276 7.854C103.276 9.64 104.929 10.685 107.323 10.685C109.736 10.685 111.389 9.64 111.389 7.854C111.389 6.068 109.736 5.023 107.323 5.023C104.929 5.023 103.276 6.068 103.276 7.854ZM108.577 15.568H115.265V17.601H99.4186V15.568H106.069V12.604C102.991 12.224 100.806 10.457 100.806 7.854C100.806 4.928 103.599 3.028 107.323 3.028C111.066 3.028 113.859 4.928 113.859 7.854C113.859 10.457 111.674 12.243 108.577 12.604V15.568ZM128.278 5.821V5.745H118.531V3.75H130.786V5.821C130.786 8.272 130.786 10.666 130.14 14.257L127.651 14.029C128.278 10.685 128.278 8.196 128.278 5.821ZM116.897 15.302H132.724V17.354H116.897V15.302ZM145.814 5.156V4.263H136.314V2.401H148.284V6.904H138.822V7.873H148.626V9.735H136.352V5.156H145.814ZM145.852 17.563V16.518H138.822V17.563H145.852ZM145.852 14.713V13.326H148.341V19.425H136.352V13.326H138.822V14.713H145.852ZM134.376 10.609H150.222V12.566H143.515V14.048H141.007V12.566H134.376V10.609Z" fill="black"/>
<path d="M7.3813 19.8529C7.3813 19.8529 7.4572 16.0176 6.96134 14.5907C6.45535 13.1638 5.89877 10.8616 2.16969 8.46328C0.86932 7.62335 0.439236 7.69925 0.30768 7.77514C0.171065 7.85104 -0.0313271 8.20017 0.00409161 9.74341C0.0445701 11.2917 -0.0718055 15.5369 1.74467 17.409C3.56114 19.2812 4.96777 19.7264 7.3813 19.8529Z" fill="#00ACCD"/>
<path d="M10.327 9.73367C13.2465 5.06346 17.6384 3.41902 18.1191 3.27229C18.534 3.15085 18.7415 3.01424 18.7769 2.67017C18.8174 2.34128 18.281 1.63291 16.7327 0.899237C14.6177 -0.107666 10.327 0.00364964 10.327 0.00364964C10.327 0.00364964 6.04132 -0.107666 3.92632 0.899237C2.37802 1.63291 1.83662 2.34128 1.87709 2.67017C1.91757 3.01424 2.11491 3.14579 2.53487 3.27229C3.01049 3.41902 7.41253 5.06346 10.327 9.73367Z" fill="#00ACCD"/>
<path d="M10.3266 20.0001C11.0957 20.0001 11.799 19.9647 12.4467 19.9242C12.4467 19.9242 12.5226 16.4734 12.3101 15.1933C12.0773 13.7664 11.5865 11.5148 10.3266 9.7793C9.07684 11.5148 8.58098 13.7715 8.34823 15.1933C8.14078 16.4734 8.21668 19.9242 8.21668 19.9242C8.85927 19.9698 9.56765 20.0001 10.3266 20.0001Z" fill="#00ACCD"/>
<path d="M13.2697 19.8529C13.2697 19.8529 13.1938 16.0176 13.6948 14.5907C14.2007 13.1638 14.7624 10.8616 18.4864 8.46328C19.7868 7.62335 20.2169 7.69925 20.3484 7.77514C20.485 7.85104 20.6874 8.20017 20.6469 9.74341C20.6115 11.2917 20.7279 15.5369 18.9114 17.409C17.0949 19.2812 15.6883 19.7264 13.2697 19.8529Z" fill="#00ACCD"/>
<path d="M1.29177 4.42059C1.02866 4.36999 0.851562 4.10688 0.851562 3.82353C0.851562 3.47946 1.12985 3.20117 1.46886 3.20117C1.52452 3.20117 1.63583 3.21635 1.71679 3.25683C1.71679 3.25683 4.51487 4.52684 6.28074 6.8493L6.2352 6.92013C3.87733 5.0733 1.29177 4.42059 1.29177 4.42059Z" fill="#00ACCD"/>
<path d="M0.658345 5.85746C0.395235 5.79169 0.197902 5.55894 0.187782 5.27559C0.177663 4.93152 0.440773 4.62793 0.78484 4.62793C0.865797 4.62793 0.977113 4.64311 1.06313 4.68359C1.06313 4.68359 3.88145 5.82711 5.64732 7.98259L5.59672 8.0433C3.13259 6.29767 0.658345 5.85746 0.658345 5.85746Z" fill="#00ACCD"/>
<path d="M0.541957 7.42148C0.283907 7.36076 0.0966938 7.13307 0.0865742 6.8649C0.0713947 6.53095 0.329445 6.23242 0.668453 6.23242C0.688692 6.23242 0.800008 6.23242 0.906264 6.2729C0.906264 6.2729 3.62338 7.381 5.04013 9.09628L4.99459 9.17217C2.63166 7.66435 0.541957 7.42654 0.541957 7.42654V7.42148Z" fill="#00ACCD"/>
<path d="M19.3612 4.42059C19.6294 4.36999 19.8065 4.10688 19.8065 3.82353C19.8065 3.47946 19.5231 3.20117 19.1791 3.20117C19.1285 3.20117 19.0172 3.21635 18.9311 3.25683C18.9311 3.25683 16.128 4.52684 14.3672 6.8493L14.4127 6.92013C16.7757 5.0733 19.3562 4.42059 19.3562 4.42059H19.3612Z" fill="#00ACCD"/>
<path d="M19.9991 5.85746C20.2571 5.79169 20.4545 5.55894 20.4646 5.27559C20.4798 4.93152 20.2065 4.62793 19.8675 4.62793C19.7916 4.62793 19.6753 4.64311 19.5893 4.68359C19.5893 4.68359 16.7709 5.82711 15 7.98259L15.0506 8.0433C17.5147 6.29767 19.994 5.8524 19.994 5.8524L19.9991 5.85746Z" fill="#00ACCD"/>
<path d="M20.1126 7.42148C20.3656 7.36076 20.5579 7.13307 20.5629 6.8649C20.5832 6.53095 20.3251 6.23242 19.9912 6.23242C19.9608 6.23242 19.8546 6.23242 19.7483 6.2729C19.7483 6.2729 17.0261 7.381 15.6094 9.09628L15.6549 9.17217C18.0077 7.66435 20.1075 7.42654 20.1075 7.42654L20.1126 7.42148Z" fill="#00ACCD"/>
</svg>
