<svg width="209" height="12" viewBox="0 0 209 12" fill="none" xmlns="http://www.w3.org/2000/svg">
<path d="M1 5C0.447715 5 9.65645e-08 5.44772 0 6C-9.65645e-08 6.55228 0.447715 7 1 7L1 5ZM209 6.00004L199 0.226532L199 11.7735L209 6.00004ZM3 7C3.55228 7 4 6.55229 4 6C4 5.44772 3.55228 5 3 5L3 7ZM7 5C6.44772 5 6 5.44772 6 6C6 6.55229 6.44772 7 7 7L7 5ZM11 7C11.5523 7 12 6.55229 12 6C12 5.44772 11.5523 5 11 5L11 7ZM15 5C14.4477 5 14 5.44772 14 6C14 6.55229 14.4477 7 15 7L15 5ZM19 7C19.5523 7 20 6.55229 20 6C20 5.44772 19.5523 5 19 5L19 7ZM23 5C22.4477 5 22 5.44772 22 6C22 6.55229 22.4477 7 23 7L23 5ZM27 7C27.5523 7 28 6.55229 28 6C28 5.44772 27.5523 5 27 5L27 7ZM31 5.00001C30.4477 5.00001 30 5.44772 30 6.00001C30 6.55229 30.4477 7.00001 31 7.00001L31 5.00001ZM35 7.00001C35.5523 7.00001 36 6.55229 36 6.00001C36 5.44772 35.5523 5.00001 35 5.00001L35 7.00001ZM39 5.00001C38.4477 5.00001 38 5.44772 38 6.00001C38 6.55229 38.4477 7.00001 39 7.00001L39 5.00001ZM43 7.00001C43.5523 7.00001 44 6.55229 44 6.00001C44 5.44772 43.5523 5.00001 43 5.00001L43 7.00001ZM47 5.00001C46.4477 5.00001 46 5.44772 46 6.00001C46 6.55229 46.4477 7.00001 47 7.00001L47 5.00001ZM51 7.00001C51.5523 7.00001 52 6.55229 52 6.00001C52 5.44772 51.5523 5.00001 51 5.00001L51 7.00001ZM55 5.00001C54.4477 5.00001 54 5.44772 54 6.00001C54 6.55229 54.4477 7.00001 55 7.00001L55 5.00001ZM59 7.00001C59.5523 7.00001 60 6.5523 60 6.00001C60 5.44773 59.5523 5.00001 59 5.00001L59 7.00001ZM63 5.00001C62.4477 5.00001 62 5.44773 62 6.00001C62 6.5523 62.4477 7.00001 63 7.00001L63 5.00001ZM67 7.00001C67.5523 7.00001 68 6.5523 68 6.00001C68 5.44773 67.5523 5.00001 67 5.00001L67 7.00001ZM71 5.00001C70.4477 5.00001 70 5.44773 70 6.00001C70 6.5523 70.4477 7.00001 71 7.00001L71 5.00001ZM75 7.00001C75.5523 7.00001 76 6.5523 76 6.00001C76 5.44773 75.5523 5.00001 75 5.00001L75 7.00001ZM79 5.00001C78.4477 5.00001 78 5.44773 78 6.00001C78 6.5523 78.4477 7.00001 79 7.00001L79 5.00001ZM83 7.00001C83.5523 7.00001 84 6.5523 84 6.00001C84 5.44773 83.5523 5.00001 83 5.00001L83 7.00001ZM87 5.00002C86.4477 5.00001 86 5.44773 86 6.00001C86 6.5523 86.4477 7.00001 87 7.00002L87 5.00002ZM91 7.00002C91.5523 7.00002 92 6.5523 92 6.00002C92 5.44773 91.5523 5.00002 91 5.00002L91 7.00002ZM95 5.00002C94.4477 5.00002 94 5.44773 94 6.00002C94 6.5523 94.4477 7.00002 95 7.00002L95 5.00002ZM99 7.00002C99.5523 7.00002 100 6.5523 100 6.00002C100 5.44773 99.5523 5.00002 99 5.00002L99 7.00002ZM103 5.00002C102.448 5.00002 102 5.44773 102 6.00002C102 6.5523 102.448 7.00002 103 7.00002L103 5.00002ZM107 7.00002C107.552 7.00002 108 6.5523 108 6.00002C108 5.44773 107.552 5.00002 107 5.00002L107 7.00002ZM111 5.00002C110.448 5.00002 110 5.44773 110 6.00002C110 6.5523 110.448 7.00002 111 7.00002L111 5.00002ZM115 7.00002C115.552 7.00002 116 6.5523 116 6.00002C116 5.44774 115.552 5.00002 115 5.00002L115 7.00002ZM119 5.00002C118.448 5.00002 118 5.44774 118 6.00002C118 6.55231 118.448 7.00002 119 7.00002L119 5.00002ZM123 7.00002C123.552 7.00002 124 6.55231 124 6.00002C124 5.44774 123.552 5.00002 123 5.00002L123 7.00002ZM127 5.00002C126.448 5.00002 126 5.44774 126 6.00002C126 6.55231 126.448 7.00002 127 7.00002L127 5.00002ZM131 7.00002C131.552 7.00002 132 6.55231 132 6.00002C132 5.44774 131.552 5.00002 131 5.00002L131 7.00002ZM135 5.00002C134.448 5.00002 134 5.44774 134 6.00002C134 6.55231 134.448 7.00002 135 7.00002L135 5.00002ZM139 7.00002C139.552 7.00002 140 6.55231 140 6.00002C140 5.44774 139.552 5.00002 139 5.00002L139 7.00002ZM143 5.00002C142.448 5.00002 142 5.44774 142 6.00002C142 6.55231 142.448 7.00002 143 7.00002L143 5.00002ZM147 7.00003C147.552 7.00003 148 6.55231 148 6.00003C148 5.44774 147.552 5.00003 147 5.00003L147 7.00003ZM151 5.00003C150.448 5.00003 150 5.44774 150 6.00003C150 6.55231 150.448 7.00003 151 7.00003L151 5.00003ZM155 7.00003C155.552 7.00003 156 6.55231 156 6.00003C156 5.44774 155.552 5.00003 155 5.00003L155 7.00003ZM159 5.00003C158.448 5.00003 158 5.44774 158 6.00003C158 6.55231 158.448 7.00003 159 7.00003L159 5.00003ZM163 7.00003C163.552 7.00003 164 6.55231 164 6.00003C164 5.44774 163.552 5.00003 163 5.00003L163 7.00003ZM167 5.00003C166.448 5.00003 166 5.44774 166 6.00003C166 6.55231 166.448 7.00003 167 7.00003L167 5.00003ZM171 7.00003C171.552 7.00003 172 6.55231 172 6.00003C172 5.44775 171.552 5.00003 171 5.00003L171 7.00003ZM175 5.00003C174.448 5.00003 174 5.44775 174 6.00003C174 6.55232 174.448 7.00003 175 7.00003L175 5.00003ZM179 7.00003C179.552 7.00003 180 6.55232 180 6.00003C180 5.44775 179.552 5.00003 179 5.00003L179 7.00003ZM183 5.00003C182.448 5.00003 182 5.44775 182 6.00003C182 6.55232 182.448 7.00003 183 7.00003L183 5.00003ZM187 7.00003C187.552 7.00003 188 6.55232 188 6.00003C188 5.44775 187.552 5.00003 187 5.00003L187 7.00003ZM191 5.00003C190.448 5.00003 190 5.44775 190 6.00003C190 6.55232 190.448 7.00003 191 7.00003L191 5.00003ZM195 7.00003C195.552 7.00003 196 6.55232 196 6.00003C196 5.44775 195.552 5.00003 195 5.00003L195 7.00003ZM199 5.00003C198.448 5.00003 198 5.44775 198 6.00003C198 6.55232 198.448 7.00003 199 7.00003L199 5.00003ZM203 7.00004C203.552 7.00004 204 6.55232 204 6.00004C204 5.44775 203.552 5.00004 203 5.00004L203 7.00004ZM207 5.00004C206.448 5.00004 206 5.44775 206 6.00004C206 6.55232 206.448 7.00004 207 7.00004L207 5.00004ZM1 7L3 7L3 5L1 5L1 7ZM7 7L11 7L11 5L7 5L7 7ZM15 7L19 7L19 5L15 5L15 7ZM23 7L27 7L27 5L23 5L23 7ZM31 7.00001L35 7.00001L35 5.00001L31 5.00001L31 7.00001ZM39 7.00001L43 7.00001L43 5.00001L39 5.00001L39 7.00001ZM47 7.00001L51 7.00001L51 5.00001L47 5.00001L47 7.00001ZM55 7.00001L59 7.00001L59 5.00001L55 5.00001L55 7.00001ZM63 7.00001L67 7.00001L67 5.00001L63 5.00001L63 7.00001ZM71 7.00001L75 7.00001L75 5.00001L71 5.00001L71 7.00001ZM79 7.00001L83 7.00001L83 5.00001L79 5.00001L79 7.00001ZM87 7.00002L91 7.00002L91 5.00002L87 5.00002L87 7.00002ZM95 7.00002L99 7.00002L99 5.00002L95 5.00002L95 7.00002ZM103 7.00002L107 7.00002L107 5.00002L103 5.00002L103 7.00002ZM111 7.00002L115 7.00002L115 5.00002L111 5.00002L111 7.00002ZM119 7.00002L123 7.00002L123 5.00002L119 5.00002L119 7.00002ZM127 7.00002L131 7.00002L131 5.00002L127 5.00002L127 7.00002ZM135 7.00002L139 7.00002L139 5.00002L135 5.00002L135 7.00002ZM143 7.00002L147 7.00003L147 5.00003L143 5.00002L143 7.00002ZM151 7.00003L155 7.00003L155 5.00003L151 5.00003L151 7.00003ZM159 7.00003L163 7.00003L163 5.00003L159 5.00003L159 7.00003ZM167 7.00003L171 7.00003L171 5.00003L167 5.00003L167 7.00003ZM175 7.00003L179 7.00003L179 5.00003L175 5.00003L175 7.00003ZM183 7.00003L187 7.00003L187 5.00003L183 5.00003L183 7.00003ZM191 7.00003L195 7.00003L195 5.00003L191 5.00003L191 7.00003ZM199 7.00003L203 7.00004L203 5.00004L199 5.00003L199 7.00003Z" fill="#CCCCCC"/>
</svg>
