<svg width="147" height="42" viewBox="0 0 147 42" fill="none" xmlns="http://www.w3.org/2000/svg">
<path d="M39.3062 32.3394H42.0132V30.442H39.3062V25.2607H36.6953V41.0828H39.3062V32.3394Z" fill="#231F20"/>
<path d="M28.1341 40.6275C31.6861 40.6275 34.5652 37.1413 34.5652 32.8455C34.5652 28.5497 31.6861 25.0635 28.1341 25.0635C24.5822 25.0635 21.7031 28.5497 21.7031 32.8455C21.7031 37.1413 24.5822 40.6275 28.1341 40.6275ZM28.1341 26.6371C30.2491 26.6371 31.9594 29.4149 31.9594 32.8455C31.9594 36.276 30.2441 39.0539 28.1341 39.0539C26.0242 39.0539 24.3089 36.276 24.3089 32.8455C24.3089 29.4149 26.0242 26.6371 28.1341 26.6371Z" fill="#231F20"/>
<path d="M19.6169 31.8432H11.2328V30.5277H18.5139V29.0249H3.71896V26.9959H18.5139V25.4932H1.1081V28.944C1.1081 29.8193 1.88731 30.5277 2.84868 30.5277H8.38411V31.8432H0V33.427H19.6169V31.8432Z" fill="#231F20"/>
<path d="M54.9475 35.9414H52.2557V38.7142H44.1094V40.4548H63.0938V38.7142H54.9475V35.9414Z" fill="#231F20"/>
<path d="M104.289 38.7142H96.1428V35.9414H93.451V38.7142H85.3047V40.4548H104.289V38.7142Z" fill="#231F20"/>
<path d="M135.426 35.3849H138.118V33.705H146.583V32.2832H126.961V33.705H135.426V35.3849Z" fill="#231F20"/>
<path d="M124.876 38.7147H122.594L123.601 28.1094C123.707 26.8292 122.609 25.7363 121.147 25.7363H107.313V27.482H120.914L119.933 38.7147H106.367V40.4553H124.876V38.7147Z" fill="#231F20"/>
<path d="M94.7966 34.9654C99.6034 34.9654 103.5 32.729 103.5 29.9765C103.5 27.2239 99.6034 24.9824 94.7966 24.9824C89.9898 24.9824 86.0938 27.2189 86.0938 29.9765C86.0938 32.7341 89.9898 34.9654 94.7966 34.9654ZM94.7966 26.5611C97.9894 26.5611 100.575 28.0891 100.575 29.9714C100.575 31.8536 97.9894 33.3817 94.7966 33.3817C91.6039 33.3817 89.0183 31.8536 89.0183 29.9714C89.0183 28.0891 91.6039 26.5611 94.7966 26.5611Z" fill="#231F20"/>
<path d="M0.992188 37.9296C0.992188 40.0294 4.9439 41.7245 9.82156 41.7245C14.6992 41.7245 18.6509 40.0244 18.6509 37.9296C18.6509 35.8349 14.6992 34.1348 9.82156 34.1348C4.9439 34.1348 0.992188 35.8349 0.992188 37.9296ZM15.8832 37.8891C15.8832 39.1743 13.1661 40.2217 9.82156 40.2217C6.47702 40.2217 3.75485 39.1743 3.75485 37.8891C3.75485 36.604 6.47196 35.5566 9.82156 35.5566C13.1712 35.5566 15.8832 36.5989 15.8832 37.8891Z" fill="#231F20"/>
<path d="M49.3571 30.9986C49.9794 31.8082 50.789 32.4963 51.6897 33.0984C51.5379 33.1743 51.3861 33.2502 51.2292 33.316L52.0084 34.6821C53.7794 34.0092 55.4238 32.6278 56.6786 31.034C57.9284 32.6835 59.9675 33.8624 61.9965 34.7479L62.7656 33.2553C60.5342 32.0864 59.0567 30.4774 58.1865 28.666C58.7532 27.5174 59.077 26.3891 59.077 25.4277H56.1524C56.1524 27.1683 55.2922 29.9816 53.41 31.8537C52.2715 30.9126 51.4265 29.8197 50.8497 28.6306C51.4012 27.4972 51.72 26.379 51.72 25.4277H48.7904C48.7904 27.735 47.2826 31.9347 43.8672 33.3109L44.6464 34.6771C46.4274 33.9991 48.0871 32.5975 49.352 30.9935L49.3571 30.9986Z" fill="#231F20"/>
<path d="M82.8999 25.2607H80.2891V41.0828H82.8999V25.2607Z" fill="#231F20"/>
<path d="M70.9082 35.1879C72.1276 36.9083 74.7233 38.5426 76.5853 39.4989L77.5112 38.0063C74.9307 36.5591 73.1244 34.5706 72.3806 32.5872C72.8461 31.4032 73.0991 30.1585 73.0991 28.9138V25.4326H70.2504V28.9138C70.2504 32.7036 68.2669 36.3719 64.8516 37.7482L65.6308 39.1144C67.847 38.2694 69.6331 36.8729 70.9082 35.1879Z" fill="#231F20"/>
<path d="M128.075 27.7093V30.0773C128.075 30.7755 128.698 31.3473 129.467 31.3473H145.476V29.9255H130.762V28.9742H145.471V26.6012C145.471 25.9434 144.884 25.4121 144.166 25.4121H128.07V26.8339H142.86V27.7042H128.07L128.075 27.7093Z" fill="#231F20"/>
<path d="M128.073 34.5957V39.6656C128.073 40.3639 128.695 40.9306 129.464 40.9306H145.473V40.9255V34.6008H142.857V36.3413H130.673V34.6008H128.062L128.073 34.5957ZM142.868 37.7581V39.4987H130.683V37.7581H142.868Z" fill="#231F20"/>
<g opacity="0.3">
<path d="M7.3813 19.8529C7.3813 19.8529 7.4572 16.0176 6.96134 14.5907C6.45535 13.1638 5.89877 10.8616 2.16969 8.46328C0.86932 7.62335 0.439236 7.69925 0.30768 7.77514C0.171065 7.85104 -0.0313271 8.20017 0.00409161 9.74341C0.0445701 11.2917 -0.0718055 15.5369 1.74467 17.409C3.56114 19.2812 4.96777 19.7264 7.3813 19.8529Z" fill="#00ACCD"/>
<path d="M10.327 9.73367C13.2465 5.06346 17.6384 3.41902 18.1191 3.27229C18.534 3.15085 18.7415 3.01424 18.7769 2.67017C18.8174 2.34128 18.281 1.63291 16.7327 0.899237C14.6177 -0.107666 10.327 0.00364964 10.327 0.00364964C10.327 0.00364964 6.04132 -0.107666 3.92632 0.899237C2.37802 1.63291 1.83662 2.34128 1.87709 2.67017C1.91757 3.01424 2.11491 3.14579 2.53487 3.27229C3.01049 3.41902 7.41253 5.06346 10.327 9.73367Z" fill="#00ACCD"/>
<path d="M10.3266 20.0001C11.0957 20.0001 11.799 19.9647 12.4467 19.9242C12.4467 19.9242 12.5226 16.4734 12.3101 15.1933C12.0773 13.7664 11.5865 11.5148 10.3266 9.7793C9.07684 11.5148 8.58098 13.7715 8.34823 15.1933C8.14078 16.4734 8.21668 19.9242 8.21668 19.9242C8.85927 19.9698 9.56765 20.0001 10.3266 20.0001Z" fill="#00ACCD"/>
<path d="M13.2697 19.8529C13.2697 19.8529 13.1938 16.0176 13.6948 14.5907C14.2007 13.1638 14.7624 10.8616 18.4864 8.46328C19.7868 7.62335 20.2169 7.69925 20.3484 7.77514C20.485 7.85104 20.6874 8.20017 20.6469 9.74341C20.6115 11.2917 20.7279 15.5369 18.9114 17.409C17.0949 19.2812 15.6883 19.7264 13.2697 19.8529Z" fill="#00ACCD"/>
<path d="M1.29177 4.42059C1.02866 4.36999 0.851562 4.10688 0.851562 3.82353C0.851562 3.47946 1.12985 3.20117 1.46886 3.20117C1.52452 3.20117 1.63583 3.21635 1.71679 3.25683C1.71679 3.25683 4.51487 4.52684 6.28074 6.8493L6.2352 6.92013C3.87733 5.0733 1.29177 4.42059 1.29177 4.42059Z" fill="#00ACCD"/>
<path d="M0.658345 5.85746C0.395235 5.79169 0.197902 5.55894 0.187782 5.27559C0.177663 4.93152 0.440773 4.62793 0.78484 4.62793C0.865797 4.62793 0.977113 4.64311 1.06313 4.68359C1.06313 4.68359 3.88145 5.82711 5.64732 7.98259L5.59672 8.0433C3.13259 6.29767 0.658345 5.85746 0.658345 5.85746Z" fill="#00ACCD"/>
<path d="M0.541957 7.42148C0.283907 7.36076 0.0966938 7.13307 0.0865742 6.8649C0.0713947 6.53095 0.329445 6.23242 0.668453 6.23242C0.688692 6.23242 0.800008 6.23242 0.906264 6.2729C0.906264 6.2729 3.62338 7.381 5.04013 9.09628L4.99459 9.17217C2.63166 7.66435 0.541957 7.42654 0.541957 7.42654V7.42148Z" fill="#00ACCD"/>
<path d="M19.3612 4.42059C19.6294 4.36999 19.8065 4.10688 19.8065 3.82353C19.8065 3.47946 19.5231 3.20117 19.1791 3.20117C19.1285 3.20117 19.0172 3.21635 18.9311 3.25683C18.9311 3.25683 16.128 4.52684 14.3672 6.8493L14.4127 6.92013C16.7757 5.0733 19.3562 4.42059 19.3562 4.42059H19.3612Z" fill="#00ACCD"/>
<path d="M19.9991 5.85746C20.2571 5.79169 20.4545 5.55894 20.4646 5.27559C20.4798 4.93152 20.2065 4.62793 19.8675 4.62793C19.7916 4.62793 19.6753 4.64311 19.5893 4.68359C19.5893 4.68359 16.7709 5.82711 15 7.98259L15.0506 8.0433C17.5147 6.29767 19.994 5.8524 19.994 5.8524L19.9991 5.85746Z" fill="#00ACCD"/>
<path d="M20.1126 7.42148C20.3656 7.36076 20.5579 7.13307 20.5629 6.8649C20.5832 6.53095 20.3251 6.23242 19.9912 6.23242C19.9608 6.23242 19.8546 6.23242 19.7483 6.2729C19.7483 6.2729 17.0261 7.381 15.6094 9.09628L15.6549 9.17217C18.0077 7.66435 20.1075 7.42654 20.1075 7.42654L20.1126 7.42148Z" fill="#00ACCD"/>
</g>
</svg>
