<svg width="174" height="20" viewBox="0 0 174 20" fill="none" xmlns="http://www.w3.org/2000/svg">
<path d="M66.7124 9.33942H69.4194V7.44199H66.7124V2.26074H64.1016V18.0828H66.7124V9.33942Z" fill="#C68494"/>
<path d="M55.5404 17.6275C59.0924 17.6275 61.9714 14.1413 61.9714 9.84547C61.9714 5.54969 59.0924 2.06348 55.5404 2.06348C51.9884 2.06348 49.1094 5.54969 49.1094 9.84547C49.1094 14.1413 51.9884 17.6275 55.5404 17.6275ZM55.5404 3.63708C57.6554 3.63708 59.3656 6.41492 59.3656 9.84547C59.3656 13.276 57.6503 16.0539 55.5404 16.0539C53.4305 16.0539 51.7152 13.276 51.7152 9.84547C51.7152 6.41492 53.4305 3.63708 55.5404 3.63708Z" fill="#C68494"/>
<path d="M47.0231 8.84323H38.639V7.52768H45.9201V6.02491H31.1252V3.99593H45.9201V2.49316H28.5143V5.94396C28.5143 6.8193 29.2936 7.52768 30.2549 7.52768H35.7904V8.84323H27.4062V10.427H47.0231V8.84323Z" fill="#C68494"/>
<path d="M82.3537 12.9414H79.6619V15.7142H71.5156V17.4548H90.5V15.7142H82.3537V12.9414Z" fill="#C68494"/>
<path d="M131.695 15.7142H123.549V12.9414H120.857V15.7142H112.711V17.4548H131.695V15.7142Z" fill="#C68494"/>
<path d="M162.832 12.3849H165.524V10.705H173.989V9.2832H154.367V10.705H162.832V12.3849Z" fill="#C68494"/>
<path d="M152.282 15.7147H150L151.007 5.10938C151.113 3.82925 150.015 2.73633 148.553 2.73633H134.72V4.48196H148.32L147.339 15.7147H133.773V17.4553H152.282V15.7147Z" fill="#C68494"/>
<path d="M122.203 11.9654C127.01 11.9654 130.906 9.729 130.906 6.97646C130.906 4.22392 127.01 1.98242 122.203 1.98242C117.396 1.98242 113.5 4.21886 113.5 6.97646C113.5 9.73406 117.396 11.9654 122.203 11.9654ZM122.203 3.56108C125.396 3.56108 127.981 5.08915 127.981 6.9714C127.981 8.85365 125.396 10.3817 122.203 10.3817C119.01 10.3817 116.425 8.85365 116.425 6.9714C116.425 5.08915 119.01 3.56108 122.203 3.56108Z" fill="#C68494"/>
<path d="M28.3984 14.9296C28.3984 17.0294 32.3501 18.7245 37.2278 18.7245C42.1055 18.7245 46.0572 17.0244 46.0572 14.9296C46.0572 12.8349 42.1055 11.1348 37.2278 11.1348C32.3501 11.1348 28.3984 12.8349 28.3984 14.9296ZM43.2895 14.8891C43.2895 16.1743 40.5723 17.2217 37.2278 17.2217C33.8833 17.2217 31.1611 16.1743 31.1611 14.8891C31.1611 13.604 33.8782 12.5566 37.2278 12.5566C40.5774 12.5566 43.2895 13.5989 43.2895 14.8891Z" fill="#C68494"/>
<path d="M76.7633 7.99859C77.3857 8.80816 78.1953 9.49629 79.0959 10.0984C78.9441 10.1743 78.7923 10.2502 78.6355 10.316L79.4147 11.6821C81.1856 11.0092 82.83 9.62785 84.0849 8.03401C85.3347 9.68351 87.3738 10.8624 89.4027 11.7479L90.1718 10.2553C87.9405 9.08645 86.463 7.47743 85.5927 5.66601C86.1594 4.51744 86.4832 3.3891 86.4832 2.42773H83.5587C83.5587 4.16831 82.6985 6.98157 80.8162 8.8537C79.6778 7.91257 78.8328 6.81965 78.256 5.6306C78.8075 4.4972 79.1263 3.37898 79.1263 2.42773H76.1966C76.1966 4.73501 74.6888 8.93465 71.2734 10.3109L72.0526 11.6771C73.8337 10.9991 75.4933 9.59749 76.7583 7.99353L76.7633 7.99859Z" fill="#C68494"/>
<path d="M110.306 2.26074H107.695V18.0828H110.306V2.26074Z" fill="#C68494"/>
<path d="M98.3144 12.1879C99.5338 13.9083 102.13 15.5426 103.992 16.4989L104.917 15.0063C102.337 13.5591 100.531 11.5706 99.7868 9.58719C100.252 8.4032 100.505 7.15848 100.505 5.91377V2.43262H97.6566V5.91377C97.6566 9.70357 95.6732 13.3719 92.2578 14.7482L93.037 16.1144C95.2532 15.2694 97.0393 13.8729 98.3144 12.1879Z" fill="#C68494"/>
<path d="M155.482 4.70926V7.07726C155.482 7.77551 156.104 8.34727 156.873 8.34727H172.882V6.92546H158.168V5.97422H172.877V3.60117C172.877 2.94339 172.29 2.41211 171.572 2.41211H155.477V3.83392H170.266V4.70421H155.477L155.482 4.70926Z" fill="#C68494"/>
<path d="M155.479 11.5957V16.6656C155.479 17.3639 156.101 17.9306 156.87 17.9306H172.88V17.9255V11.6008H170.264V13.3413H158.08V11.6008H155.469L155.479 11.5957ZM170.274 14.7581V16.4987H158.09V14.7581H170.274Z" fill="#C68494"/>
<path d="M7.3813 19.8539C7.3813 19.8539 7.4572 16.0186 6.96134 14.5917C6.45535 13.1648 5.89877 10.8626 2.16969 8.46425C0.86932 7.62433 0.439236 7.70022 0.30768 7.77612C0.171065 7.85202 -0.0313271 8.20114 0.00409161 9.74439C0.0445701 11.2927 -0.0718055 15.5379 1.74467 17.41C3.56114 19.2821 4.96777 19.7274 7.3813 19.8539Z" fill="#CD00B9"/>
<path d="M10.327 9.73367C13.2465 5.06346 17.6384 3.41902 18.1191 3.27229C18.534 3.15085 18.7415 3.01424 18.7769 2.67017C18.8174 2.34128 18.281 1.63291 16.7327 0.899237C14.6177 -0.107666 10.327 0.00364964 10.327 0.00364964C10.327 0.00364964 6.04132 -0.107666 3.92632 0.899237C2.37802 1.63291 1.83662 2.34128 1.87709 2.67017C1.91757 3.01424 2.11491 3.14579 2.53487 3.27229C3.01049 3.41902 7.41253 5.06346 10.327 9.73367Z" fill="#CD00B9"/>
<path d="M10.3266 20.0001C11.0957 20.0001 11.799 19.9647 12.4467 19.9242C12.4467 19.9242 12.5226 16.4734 12.3101 15.1933C12.0773 13.7664 11.5865 11.5148 10.3266 9.7793C9.07684 11.5148 8.58098 13.7715 8.34823 15.1933C8.14078 16.4734 8.21668 19.9242 8.21668 19.9242C8.85927 19.9698 9.56765 20.0001 10.3266 20.0001Z" fill="#CD00B9"/>
<path d="M13.2697 19.8539C13.2697 19.8539 13.1938 16.0186 13.6948 14.5917C14.2007 13.1648 14.7624 10.8626 18.4864 8.46425C19.7868 7.62433 20.2169 7.70022 20.3484 7.77612C20.485 7.85202 20.6874 8.20114 20.6469 9.74439C20.6115 11.2927 20.7279 15.5379 18.9114 17.41C17.0949 19.2821 15.6883 19.7274 13.2697 19.8539Z" fill="#CD00B9"/>
<path d="M1.29177 4.42059C1.02866 4.36999 0.851562 4.10688 0.851562 3.82353C0.851562 3.47946 1.12985 3.20117 1.46886 3.20117C1.52452 3.20117 1.63583 3.21635 1.71679 3.25683C1.71679 3.25683 4.51487 4.52684 6.28074 6.8493L6.2352 6.92013C3.87733 5.0733 1.29177 4.42059 1.29177 4.42059Z" fill="#CD00B9"/>
<path d="M0.658345 5.85844C0.395235 5.79266 0.197902 5.55991 0.187782 5.27656C0.177663 4.93249 0.440773 4.62891 0.78484 4.62891C0.865797 4.62891 0.977113 4.64409 1.06313 4.68456C1.06313 4.68456 3.88145 5.82808 5.64732 7.98356L5.59672 8.04428C3.13259 6.29864 0.658345 5.85844 0.658345 5.85844Z" fill="#CD00B9"/>
<path d="M0.541957 7.42148C0.283907 7.36076 0.0966938 7.13307 0.0865742 6.8649C0.0713947 6.53095 0.329445 6.23242 0.668453 6.23242C0.688692 6.23242 0.800008 6.23242 0.906264 6.2729C0.906264 6.2729 3.62338 7.381 5.04013 9.09628L4.99459 9.17217C2.63166 7.66435 0.541957 7.42654 0.541957 7.42654V7.42148Z" fill="#CD00B9"/>
<path d="M19.3612 4.42059C19.6294 4.36999 19.8065 4.10688 19.8065 3.82353C19.8065 3.47946 19.5231 3.20117 19.1791 3.20117C19.1285 3.20117 19.0172 3.21635 18.9311 3.25683C18.9311 3.25683 16.128 4.52684 14.3672 6.8493L14.4127 6.92013C16.7757 5.0733 19.3562 4.42059 19.3562 4.42059H19.3612Z" fill="#CD00B9"/>
<path d="M19.9991 5.85844C20.2571 5.79266 20.4545 5.55991 20.4646 5.27656C20.4798 4.93249 20.2065 4.62891 19.8675 4.62891C19.7916 4.62891 19.6753 4.64409 19.5893 4.68456C19.5893 4.68456 16.7709 5.82808 15 7.98356L15.0506 8.04428C17.5147 6.29864 19.994 5.85338 19.994 5.85338L19.9991 5.85844Z" fill="#CD00B9"/>
<path d="M20.1126 7.42148C20.3656 7.36076 20.5579 7.13307 20.5629 6.8649C20.5832 6.53095 20.3251 6.23242 19.9912 6.23242C19.9608 6.23242 19.8546 6.23242 19.7483 6.2729C19.7483 6.2729 17.0261 7.381 15.6094 9.09628L15.6549 9.17217C18.0077 7.66435 20.1075 7.42654 20.1075 7.42654L20.1126 7.42148Z" fill="#CD00B9"/>
</svg>
