<svg width="20" height="20" viewBox="0 0 20 20" fill="none" xmlns="http://www.w3.org/2000/svg">
<path d="M17.9835 14.9928L17.5237 15.4522L18.5469 16.4762L18.6324 15.0312L17.9835 14.9928ZM9.99716 7L10.457 6.54057L9.99716 6.08039L9.53735 6.54057L9.99716 7ZM2.01614 14.9874L1.36725 15.0254L1.45186 16.4718L2.47594 15.4469L2.01614 14.9874ZM18.6324 15.0312C18.6441 14.8334 18.65 14.6333 18.65 14.4313H17.35C17.35 14.608 17.3448 14.7824 17.3347 14.9544L18.6324 15.0312ZM9.53735 7.45943L17.5237 15.4522L18.4433 14.5333L10.457 6.54057L9.53735 7.45943ZM2.47594 15.4469L10.457 7.45943L9.53735 6.54057L1.55634 14.528L2.47594 15.4469ZM1.35 14.4313C1.35 14.6314 1.35579 14.8295 1.36725 15.0254L2.66503 14.9495C2.65506 14.7791 2.65 14.6063 2.65 14.4313H1.35ZM9.99671 5.35C4.9408 5.35 1.35 9.46168 1.35 14.4313H2.65C2.65 10.088 5.74715 6.65 9.99671 6.65V5.35ZM18.65 14.4313C18.65 9.46094 15.0519 5.35 9.99671 5.35V6.65C14.247 6.65 17.35 10.0887 17.35 14.4313H18.65Z" fill="#666666"/>
</svg>
